<svg id="_813c2686-e70f-4fb0-bf6b-a2eb7b1db384" data-name="813c2686-e70f-4fb0-bf6b-a2eb7b1db384" xmlns="http://www.w3.org/2000/svg" xmlns:xlink="http://www.w3.org/1999/xlink" width="1121.04" height="851.8" viewBox="0 0 1121.04 851.8"><defs><style>.cls-1{opacity:0.9;}.cls-2,.cls-28,.cls-7{fill:#1bb1dc;}.cls-10,.cls-15,.cls-2,.cls-4{opacity:0.1;}.cls-10,.cls-2,.cls-23,.cls-27,.cls-28,.cls-4,.cls-9{isolation:isolate;}.cls-3{fill:#3f3d56;}.cls-5{fill:#fbbebe;}.cls-6{fill:#65617d;}.cls-8{fill:#b2b1bb;}.cls-14,.cls-9{opacity:0.2;}.cls-10{fill:#ccc;}.cls-11{fill:#464353;}.cls-12{fill:#333f4f;}.cls-13{fill:#2d394a;stroke:#40868e;}.cls-13,.cls-27{stroke-miterlimit:10;}.cls-16{fill:url(#linear-gradient);}.cls-17{fill:#a1616a;}.cls-18{fill:#ff748e;}.cls-19{fill:#5e5a6b;}.cls-20{fill:#9f9eff;}.cls-21{fill:url(#linear-gradient-2);}.cls-22{fill:#514e7f;}.cls-23{opacity:0.15;}.cls-24{fill:#945b79;}.cls-25{fill:#ffc1c7;}.cls-26{fill:#ff6584;}.cls-27{fill:none;stroke:#000;stroke-width:0.75px;stroke-dasharray:12;opacity:0.3;}.cls-28{opacity:0.5;}</style><linearGradient id="linear-gradient" x1="1116.34" y1="405.84" x2="1116.34" y2="825.75" gradientTransform="translate(1338.72 825.79) rotate(180)" gradientUnits="userSpaceOnUse"><stop offset="0" stop-color="gray" stop-opacity="0.25"/><stop offset="0.54" stop-color="gray" stop-opacity="0.12"/><stop offset="1" stop-color="gray" stop-opacity="0.1"/></linearGradient><linearGradient id="linear-gradient-2" x1="493.27" y1="-25.85" x2="493.27" y2="530.51" gradientTransform="matrix(1, 0, 0, -1, -39.48, 825.79)" xlink:href="#linear-gradient"/></defs><g class="cls-1"><path class="cls-2" d="M1119.76,402.74v.18a5.23,5.23,0,0,1-.13.87c-.37,2.36-.81,4.73-1.34,7.1-3.61,16.19-11,32.23-20.89,46.73-.39.56-.78,1.12-1.18,1.67-.76,1.09-1.53,2.16-2.32,3.23-.55.73-1.1,1.46-1.67,2.19a155.62,155.62,0,0,1-12.54,14.37c-2.44,2.46-5,4.84-7.53,7.11l-1.12,1q-2.07,1.8-4.2,3.5c-.61.49-1.23,1-1.85,1.45l-1.08.84-.77.57c-.69.53-1.39,1-2.1,1.55l-.5.35c-1.67,1.19-3.35,2.34-5.06,3.45a126.43,126.43,0,0,1-11.29,6.5c-1.79.91-3.6,1.77-5.41,2.57q-3.3,1.47-6.65,2.69c-.6.23-1.21.44-1.82.66-1.71.59-3.44,1.14-5.16,1.64l-.88.26-.44.12h0l-1.06.29a137,137,0,0,1-15.64,3.26l-.86.13-.45.07c-6.69,1-13.36,1.5-20,1.83a251.36,251.36,0,0,1-27.45,0l-2.5-.17h-.45c-1.73-.13-3.46-.29-5.18-.47-1-.1-2-.21-3-.34-1.52-.18-3-.39-4.54-.61h-.07l-1.45-.23c-1.31-.21-2.6-.43-3.89-.69l-1.32-.24-2-.41-.39-.08q-6.29-1.35-12.32-3.28l-.92-.31c-2.92-1-5.79-2.06-8.6-3.25q-3.13-1.35-6.15-2.87-4.32-2.19-8.42-4.71-5.73-3.51-11.1-7.56c-4.71-3.51-9.24-7.29-13.64-11.21l-.91-.82-1.66-1.5a269.5,269.5,0,0,1-56.13-71.36q-2.28-4.26-4.42-8.66c-.44-.9-.87-1.8-1.3-2.71a1.47,1.47,0,0,1-.1-.22l-.66-1.4c-1.8-3.88-3.5-7.85-5.1-11.87l-.72-1.82-1.12-2.94-.45-1.23q-2.07-5.59-3.86-11.35c-.2-.66-.41-1.32-.61-2-.63-2.08-1.24-4.17-1.81-6.28-.53-1.94-1-3.91-1.51-5.9-.08-.31-.15-.62-.22-.94-4-16.88-5.71-35.12-1.65-53.63.27-1.26.57-2.52.91-3.77.48-1.87,1-3.74,1.66-5.61.14-.44.29-.88.44-1.32l.18-.48a1.12,1.12,0,0,1,.11-.34.68.68,0,0,0,.07-.2c.35-.92.7-1.84,1.08-2.77s.78-1.85,1.19-2.77h0l.06-.13c0-.12.11-.23.16-.35.33-.72.67-1.44,1-2.14l.36-.72.1-.36c.19-.37.39-.75.59-1.11a90.06,90.06,0,0,1,9.68-14.69,83.93,83.93,0,0,1,6.6-7.25A71.38,71.38,0,0,1,826,244.57l1.92-1.17a47.85,47.85,0,0,1,17.37-6.3c7.94-1.12,15.39.17,22.64,1.9l.73.18c1.22.29,2.44.6,3.65.91,4.23,1.07,8.49,2.18,12.79,3.13,4,.89,8,1.65,12.13,2.18a85,85,0,0,0,12.55.7c.62,0,1.26,0,1.89-.06a68.24,68.24,0,0,0,22.5-4.94,43.27,43.27,0,0,0,14.64-9.67,32.88,32.88,0,0,0,2.26-2.6h0a30,30,0,0,0,3.18-5c.28-.53.55-1.07.81-1.6h0c.1-.18.2-.38.3-.57h0l1.53-3h0c.06-.11.11-.22.17-.32.74-1.43,1.48-2.84,2.24-4.22a80.66,80.66,0,0,1,10.82-15.94h0a45.22,45.22,0,0,1,16.06-11.53c1-.43,2-.84,3.11-1.22a45.2,45.2,0,0,1,14.48-2.59h1.73a50.59,50.59,0,0,1,14.42,2.55h0a74.75,74.75,0,0,1,19.81,10.26,133.83,133.83,0,0,1,24.81,22.79c.58.68,1.16,1.38,1.73,2.08A172.51,172.51,0,0,1,1082.84,245c14.46,25.62,23.94,55.63,30.78,86.19l.33,1.46c.16.72.32,1.44.47,2.15.32,1.48.64,3,.94,4.43.23,1.09.46,2.19.68,3.28h0c.16.79.32,1.57.47,2.37.1.49.2,1,.29,1.49a240,240,0,0,1,3.63,24.75,4.17,4.17,0,0,0,.07.93A136.47,136.47,0,0,1,1119.76,402.74Z" transform="translate(0.01 -0.04)"/><path class="cls-3" d="M1046.87,484c-1.1-.29-3,1-5.44,3.11-1.18,1-2.49,2.25-3.91,3.61l-.67.65-.3.28c-1.88,1.81-3.94,3.81-6.12,5.83-1.36,1.26-2.76,2.53-4.21,3.78-1.91,1.65-3,6.18-3.52,12.38a136.53,136.53,0,0,1-15.64,3.26l-.86.13-.45.07c-.31-1.86-.54-3.08-.54-3.08s-9-7.51-6.38-16.89c1.51-5.38,16.28-15.45,28.61-23.07l4.39-2.66.91-.55,1.65-1,4.1-2.4c2.84-1.64,4.9-2.79,5.63-3.2l.3-.17S1049.68,484.72,1046.87,484Z" transform="translate(0.01 -0.04)"/><path class="cls-4" d="M1046.87,484c-1.1-.29-3,1-5.44,3.11-1.18,1-2.49,2.25-3.91,3.61l-.67.65-.3.28c-1.88,1.81-3.94,3.81-6.12,5.83-1.36,1.26-2.76,2.53-4.21,3.78-1.91,1.65-3,6.18-3.52,12.38a136.53,136.53,0,0,1-15.64,3.26l-.86.13-.45.07c-.31-1.86-.54-3.08-.54-3.08s-9-7.51-6.38-16.89c1.51-5.38,16.28-15.45,28.61-23.07l4.39-2.66.91-.55,1.65-1,4.1-2.4c2.84-1.64,4.9-2.79,5.63-3.2l.3-.17S1049.68,484.72,1046.87,484Z" transform="translate(0.01 -0.04)"/><path class="cls-3" d="M1044.71,472.72s-1.84,1.89-4.7,4.88c-1.2,1.25-2.59,2.7-4.09,4.29l-.14.15-.78.81-5.67,6c-10.22,10.94-21.78,23.75-21.78,25.79a6.56,6.56,0,0,1-.49,2.22l-.86.13-.45.07c-6.69,1-13.36,1.5-20,1.83a251.36,251.36,0,0,1-27.45,0l-2.5-.17h-.45c-1.73-.13-3.46-.29-5.18-.47-1-.1-2-.21-3-.34,1.18-1.64,2.41-3.36,3.63-5.12,2.45-3.52,4.88-7.16,6.9-10.46.12-.19.23-.38.35-.56,1.21-2,2.26-3.89,3.07-5.52a14.64,14.64,0,0,0,1.63-4.62,25.58,25.58,0,0,1,1.79-5.73c4.41-11.2,15.94-34,22.38-46.59l.58-1.12.56-1.08,3.4-6.56,15.75-4.25,1-.27,3.48-.94,1.34-.36,7.45-2h.09l.27-.08,7.86-2.11,2.61-.71,3-.79,7.6,12.95,2.22,32.34Z" transform="translate(0.01 -0.04)"/><path class="cls-4" d="M937.27,516.32c-3.08-4-4.87-6.45-4.87-6.45s4.37-1.06,10.07-2.67c2.91-.83,6.17-1.79,9.37-2.84,2-.67,4-1.37,5.91-2.08,1-.36,1.91-.74,2.8-1.11,4.14-1.74,7.25-3.51,7.88-5.09a3.3,3.3,0,0,0-.16-1.89,52.06,52.06,0,0,0-3.68-8.34c-.53-1-1.11-2.09-1.73-3.22-2-3.65-4.39-7.83-7-12.24-2.19-3.68-4.54-7.53-6.92-11.39-2.1-3.39-4.23-6.8-6.32-10.1-.06-.1-.13-.2-.19-.31-9.53-15.06-18.09-28-18.44-28.49h0l-5.62,13.49-.24.22L908.88,442l-.22.21c-2.88,2.55-6.15,5.47-9.48,8.45-2.47,2.21-5,4.45-7.35,6.61-3.41,3.06-6.6,5.95-9.19,8.32a73.3,73.3,0,0,0-6.21,6,65.25,65.25,0,0,0-4,10.81c4.4,3.92,8.93,7.7,13.64,11.22,3.59,2.68,7.28,5.21,11.1,7.55q4.11,2.52,8.42,4.71c2,1,4,2,6.15,2.87,2.81,1.2,5.67,2.28,8.6,3.25l.92.31a123.06,123.06,0,0,0,12.32,3.28l.39.08,2,.41Z" transform="translate(0.01 -0.04)"/><path class="cls-3" d="M1014,421.49l-.9,1.38c-.36.57-.83,1.3-1.4,2.17s-1.36,2.14-2.21,3.45l-.62,1c-1.46,2.26-3.16,4.91-5,7.84-.23.35-.46.7-.69,1.07s-.47.74-.71,1.11c-12,18.8-29.74,46.66-34.2,54.7a18.93,18.93,0,0,0-1,1.89c-.57,1.43-3.14,3-6.69,4.57-.79.36-1.64.71-2.51,1.07-1.94.77-4.06,1.52-6.22,2.25-3.15,1.06-6.4,2-9.36,2.89-6.26,1.81-11.24,3-11.24,3s1.72,2.33,4.67,6.21l-2-.41-.39-.08q-6.28-1.35-12.32-3.28l-.92-.31c-2.92-1-5.79-2.06-8.6-3.25q-3.13-1.35-6.15-2.87-4.32-2.19-8.42-4.71-5.73-3.51-11.1-7.56c-4.71-3.51-9.24-7.29-13.64-11.21l-.91-.82a67.31,67.31,0,0,1,3.77-10c0-.22,2.92-3,7.22-6.9,2.65-2.43,5.84-5.31,9.19-8.32l7.35-6.59,8.69-7.76.22-.2,9-8,.24-.22,5.63-13.5H924l20.47.32h3.22l6.42.1,7.64.11,8.89.14,34.85.54h1.13l6.61.1Z" transform="translate(0.01 -0.04)"/><path class="cls-5" d="M1014.59,282.17l-3.38,30.73s-34.62,13.79-35.46,13.51-23.08-20.27-19.42-33.5c1.83-6.63,2.68-15.83,3.06-23.34s.32-13.25.32-13.25,50.38-18,45.87-5.63c-1.63,4.5-.9,9.89.71,14.92A70,70,0,0,0,1014.59,282.17Z" transform="translate(0.01 -0.04)"/><path class="cls-4" d="M1006.29,265.56a12.91,12.91,0,0,1-.93,1,33.75,33.75,0,0,1-46,2.92c.38-7.45.32-13.25.32-13.25s50.38-18,45.87-5.63C1004,255.14,1004.68,260.53,1006.29,265.56Z" transform="translate(0.01 -0.04)"/><path class="cls-5" d="M1014.59,242.29a33.57,33.57,0,1,1,0-.43Z" transform="translate(0.01 -0.04)"/><path class="cls-4" d="M972.93,314S959.71,284.7,955.2,284.7s-11.54,151.65-11.54,151.65l69,1.09,2.82-79.63-14.08-70.58S988.7,315.1,972.93,314Z" transform="translate(0.01 -0.04)"/><path class="cls-4" d="M972.93,316.27S959.71,287,955.2,287s-11.54,151.66-11.54,151.66l78.25,1.18-6.47-79.73-14.08-70.57S988.7,317.36,972.93,316.27Z" transform="translate(0.01 -0.04)"/><path class="cls-6" d="M972.93,315.14s-13.22-29.31-17.73-29.31-11.54,151.65-11.54,151.65l78.25,1.18-6.47-79.76-14.08-70.58S988.7,316.23,972.93,315.14Z" transform="translate(0.01 -0.04)"/><path class="cls-4" d="M960.1,276.62s-2.36-3.46-5.74-2.33-5.91-2-9.29,1.12-16.89,7.32-19.42,5.91-11.54,4.79-13.51,8.45-8.45,13.51-8.45,13.51-5.62,6.75-4.78,10.41-2,7.88-5.35,9.57-10.13,18.58-10.13,18.58,1.82,22.58-5.78,26.52-2,21.11-2,21.11l35.9-8.51,10.16-23.06s-3.94,67.55-8.73,73.74-5.34,10.14-5.34,10.14,18.57,3.94,22.51,7.31,14.36-.84,14.36-.84l10.13-89.79s3.66-16.88,3.66-25.61S960.1,276.62,960.1,276.62Z" transform="translate(0.01 -0.04)"/><path class="cls-7" d="M959,276.62s-2.37-3.46-5.75-2.33-5.91-2-9.29,1.12-16.88,7.32-19.42,5.91S913,286.11,911,289.77s-8.44,13.51-8.44,13.51-5.63,6.75-4.79,10.41-2,7.88-5.34,9.57-10.14,18.58-10.14,18.58,1.82,22.58-5.78,26.52c-1.9,1-3,3.18-3.51,5.92-2.18,11,6.86,21.12,18.1,20.77l19.34-8,10.13-29.15s-3.94,67.55-8.72,73.74-5.34,10.12-5.34,10.12,18.58,3.94,22.52,7.31,14.35-.84,14.35-.84l10.13-89.79s3.66-16.88,3.66-25.61S959,276.62,959,276.62Z" transform="translate(0.01 -0.04)"/><path class="cls-4" d="M896.94,325.51s3.38,9.29,12.67,8.45S896.94,325.51,896.94,325.51Z" transform="translate(0.01 -0.04)"/><path class="cls-4" d="M906,311.44s6.19,1.13,8.44,6.47S906,311.44,906,311.44Z" transform="translate(0.01 -0.04)"/><path class="cls-4" d="M923.4,301.9c0,1.13,3.94,20.83,0,29S920,348.63,920,348.63Z" transform="translate(0.01 -0.04)"/><path class="cls-4" d="M1006.52,269.84s2.21-2.59,4.46-2.31,3.66,1.69,6.48,2.82,9.56,1.4,9.56,2.25,5.92,4.22,9.86,5.06,16.32,9.29,19.42,25.62,8.44,21.11,8.44,21.11L1034.91,339s23.08,98,25.89,105,3.1,48.69,3.1,48.69-18.3,8.16-23.08,10.7-2.82-24.21-12.67-39.69-21.11-38-21.11-38l-17.17-48.13s-11-64.17-1.69-76S1007.32,274.07,1006.52,269.84Z" transform="translate(0.01 -0.04)"/><path class="cls-7" d="M1065,492.12v.58l-1.09.49-.77.34-7.64,3.46c-4.19,1.91-8.82,4-11.74,5.48-.73.35-1.35.67-1.83.93a1.07,1.07,0,0,1-1.14,0c-1.5-1-2.18-6.08-3.24-12.7-.44-2.74-.94-5.74-1.6-8.81-.1-.48-.21-1-.32-1.44a69.92,69.92,0,0,0-2.86-9.62,40.24,40.24,0,0,0-3.51-7.12c-1.3-2-2.61-4.18-3.92-6.38-3.52-5.92-7-12.23-9.92-17.64-.2-.39-.4-.76-.6-1.13-.74-1.38-1.44-2.69-2.07-3.91-1.31-2.5-2.41-4.62-3.2-6.16l-1.27-2.51a2.1,2.1,0,0,0-.13-.26l-1.55-4.34-3-8.38-3.49-9.79-1.65-4.61-1.19-3.35-.38-1.06-5.92-16.61s-.42-2.41-1-6.38c-1.57-10.44-4.42-31.67-4.41-48.3a89.44,89.44,0,0,1,.7-12.13c.07-.44.13-.87.21-1.29s.16-.92.25-1.36a16.24,16.24,0,0,1,2.57-6.53c9.28-11.82,19.18-27.52,18.34-31.74l.19-.21a9,9,0,0,1,1.36-1.18,5.32,5.32,0,0,1,2-.9,3.39,3.39,0,0,1,.9,0h0c2.25.28,3.66,1.69,6.47,2.82s9.57,1.4,9.57,2.25,5.91,4.22,9.85,5.07,16.33,9.28,19.42,25.61c3,15.73,8.06,20.74,8.43,21.1h0l-1.11.54-16.93,8.31-3.63,1.77-8.17,4s2.14,9.07,5.19,21.89a2.73,2.73,0,0,0,.13.53c.09.38.18.77.28,1.16,2.24,9.4,4.92,20.6,7.59,31.65h0l.24,1,.78,3.2c.24,1,.49,2,.73,3l.39,1.59c.74,3.06,1.48,6.08,2.2,9,1.07,4.33,2.09,8.44,3,12.2,2.6,10.36,4.61,17.95,5.33,19.73,1,2.58,1.72,9.83,2.18,18C1064.77,474.48,1064.94,489.07,1065,492.12Z" transform="translate(0.01 -0.04)"/><path class="cls-4" d="M1068.63,393.06c-.83.14-1.89.26-3.12.38-9,.82-26.71,1-26.71,1s-13.23-26.18-24.49-25.33c0,0,10.41-11.82,14.64-10.41.7.23,1.14-.29,1.36-1.3,1.12-5-2.77-22.35-2.77-22.35l-5.35-23.36,31,7.6c2.82.56,11.54,5.07,11.54,5.07s.28,12.1,2.53,14.91,4.79,16.33,4.51,19.71,3.09,19.14-.28,23.36S1075.67,391.9,1068.63,393.06Z" transform="translate(0.01 -0.04)"/><path class="cls-7" d="M1069.76,393.06c-.84.14-1.89.26-3.12.38-9,.82-26.72,1-26.72,1s-13.23-26.18-24.48-25.33c0,0,10.41-11.82,14.63-10.41.71.23,1.15-.29,1.36-1.3,1.13-5-2.77-22.35-2.77-22.35l-5.34-23.36,31,7.6c2.81.56,11.54,5.07,11.54,5.07s.28,12.1,2.53,14.91,4.78,16.33,4.5,19.71,3.1,19.14-.28,23.36S1076.79,391.9,1069.76,393.06Z" transform="translate(0.01 -0.04)"/><path class="cls-4" d="M1038,331.7s25.9,2.82,27,9.29S1038,331.7,1038,331.7Z" transform="translate(0.01 -0.04)"/><path class="cls-4" d="M1014.59,242.29a33.54,33.54,0,0,1-9.23,23.18.48.48,0,0,1-.08-.16c-1-2.14-2-4.36-1.88-6.71.09-2.83,1.72-5.39,2.25-8.19.67-3.54-.49-7.13-1.63-10.54-.83-2.5-2.44-5.53-5.06-5.22a6.77,6.77,0,0,1-1.55.18c-1.4-.22-1.68-2-1.83-3.44A15.59,15.59,0,0,0,982.85,218a3.94,3.94,0,0,0-2.23.15c-1,.44-1.5,1.49-2.38,2.1-2.86,2-6.5-1.81-10-1.52-3,.25-4.75,3.27-6,6s-2.74,5.77-5.63,6.4a1.73,1.73,0,0,1-1.37-.15c-.9-.66-.28-2,.19-3.07,1.18-2.67.39-4.8-1.06-6.71a33.76,33.76,0,0,1,60.15,21.08Z" transform="translate(0.01 -0.04)"/><path class="cls-8" d="M905.57,505.9q-4.32-2.19-8.42-4.71-5.73-3.51-11.1-7.56l-3.45-28-.11-.92-6.55-53.28-.39-3.15,10.88-.33,7.7-.23.52,4.53L899,449.8l.11.9Z" transform="translate(0.01 -0.04)"/><path class="cls-4" d="M897.15,501.17q-5.73-3.51-11.1-7.56l-3.45-28-.11-.92-6.55-53.28-.39-3.15,10.88-.33-.47,1.74.27,2.19,5.45,44.51.11.92Z" transform="translate(0.01 -0.04)"/><path class="cls-8" d="M972.09,408.82l-.59,4.77-.91,7.23-2,15.93-.14,1.1-.14,1.13-5.46,43.65-1.69,13.57-.56,4.45-.06.52-2.2,17.73-2.5-.17h-.45c-1.73-.13-3.46-.29-5.18-.47-1-.1-2-.21-3-.34-1.52-.18-3-.39-4.54-.61h-.07l-1.45-.23,1.37-9.88v-.34l6.4-47.86,2.71-20.27.15-1.12.15-1.12,2.13-15.92.9-6.68.52-3.94.65-.05Z" transform="translate(0.01 -0.04)"/><path class="cls-9" d="M962.8,411.36l-.28,2.39-.82,6.93-1.88,15.93-.13,1.11-.17,1.18-3.72,31.54-4,33.58v.39l-1,8.38-.64,5.46c-1-.1-2-.21-3-.34-1.52-.18-3-.39-4.54-.61h-.07l-1.45-.23,1.42-9.87v-.34l6.4-47.86,2.71-20.27.15-1.12.15-1.12,2.13-15.92.9-6.68.52-3.94.65-.05Z" transform="translate(0.01 -0.04)"/><path class="cls-6" d="M1043.73,502.47l.43,2.91c-1.79.91-3.6,1.77-5.41,2.57q-3.3,1.47-6.65,2.69l-1.67-13.18-1.1-8.59L1027.44,474l-1.82-14.32-.31-2.39-4.43-34.76-.78-6.1-.24-2-.23-1.8-.53-4.16h.36l7.61-.83,2.44-.25.76,5.09,1.08,7.24,7.14,47.7,1.52,10.15,1.42,9.49,2.22,14.86Z" transform="translate(0.01 -0.04)"/><path class="cls-10" d="M1043.73,502.47l.43,2.91c-1.79.91-3.6,1.77-5.41,2.57q-3.3,1.47-6.65,2.69l-1.67-13.18-1.1-8.59L1027.44,474l-1.82-14.32-.31-2.39-4.43-34.76-.78-6.1-.24-2-.23-1.8-.53-4.16h.36l7.61-.83,2.44-.25.76,5.09,1.08,7.24,7.14,47.7,1.52,10.15,1.42,9.49,2.22,14.86Z" transform="translate(0.01 -0.04)"/><path class="cls-8" d="M1044.16,505.38c-1.79.91-3.6,1.77-5.41,2.57l-1.14-9.94-.76-6.66-1.07-9.31-.18-1.59-1.21-10.6-5.65-49.39-.91-7.91-.29-2.6-.47-2.28,2.44-.25.76,5.09,1.08,7.24,7.14,47.7L1040,477.6l1.42,9.49,2.22,14.86.08.52Z" transform="translate(0.01 -0.04)"/><path class="cls-6" d="M1068.07,408l-.06,3.83-1.2,78.86c-.61.49-1.23,1-1.85,1.45v.58l-1.09.49-.77.34c-.69.53-1.39,1-2.1,1.55l-.5.35c-1.67,1.19-3.35,2.34-5.06,3.45v-2.41l1-68,.06-4.18.18-12.26.08-5.45,7.58.95Z" transform="translate(0.01 -0.04)"/><path class="cls-10" d="M1068.07,408l-.06,3.83-1.2,78.86c-.61.49-1.23,1-1.85,1.45v.58l-1.09.49-.77.34c-.69.53-1.39,1-2.1,1.55l-.5.35c-1.67,1.19-3.35,2.34-5.06,3.45v-2.41l1-68,.06-4.18.18-12.26.08-5.45,7.58.95Z" transform="translate(0.01 -0.04)"/><path class="cls-8" d="M1068.07,408l-.06,3.83-1.2,78.86c-.61.49-1.23,1-1.85,1.45v.58l-1.09.49V493l.18-31,.3-50.11v-4.36Z" transform="translate(0.01 -0.04)"/><path class="cls-6" d="M1119.74,402.9V403a5.23,5.23,0,0,1-.13.87c-.37,2.36-.81,4.73-1.34,7.1l-50.25.92-3.65.07-7.63.14-3.21.06h-1.12l-22.13.41h-2.44l-8,.15h-.17l-6.14.12-9.91.18h-1.11l-31,.57-9,.16-7.56.14-6.59.12h-3.61l-5,.09-22.77-1-1.12-.05-21.18-.91-8.42-.37L876,411.28l-62.23-2.69q-2.28-4.26-4.42-8.66c-.44-.9-.87-1.8-1.3-2.71l63.34-1h0l39-.6h0l7.37-.11h1.13l20-.31,6.85.38h.12l3.44.19,1.12.06,13.66.76h0l33.21,1.83,1.15.06,15.52.86,4.69.26h.1l31,1.71,1.14.07h.25Z" transform="translate(0.01 -0.04)"/><path class="cls-8" d="M1119.74,402.9V403a5.23,5.23,0,0,1-.13.87c-.37,2.36-.81,4.73-1.34,7.1l-50.25.92-3.64.07-7.64.14-3.21.06h-1.12l-22.13.41h-2.44l-8,.15h-.17l-6.14.12-9.91.18h-1.11l-31,.57-9,.16-7.56.14-6.59.12h-3.61l-5,.09-22.78-1h-1.12l-21.17-.92-8.43-.36L876,411.34l-62.23-2.7q-2.28-4.26-4.42-8.66c-.44-.9-.87-1.8-1.3-2.71l63.34-1h0l39-.6h0l7.37-.11h1.13l20-.31,6.85.38h.13l3.44.19,1.12.07,13.66.75h0l33.21,1.83,1.14.06,15.52.86,4.69.26h.1l31,1.71,1.14.07h.25Z" transform="translate(0.01 -0.04)"/><path class="cls-4" d="M1119.74,402.9V403l-68.41.17h-1.12l-31.17.08H999l-49.38.12h-4.27l-27.25.07H917l-28.45.07-79.21-3.42c-.44-.9-.87-1.8-1.3-2.71l63.34-1h0l39-.6h0l7.37-.11h1.13l20-.31,6.85.38h.13l3.44.19,1.12.07,13.66.75h0l33.21,1.83,1.14.06,15.52.86,4.69.26h.1l31,1.71,1.14.07h.25Z" transform="translate(0.01 -0.04)"/><path class="cls-4" d="M1053.43,357c1.69.56,11.54,3.09,13.51,9S1053.43,357,1053.43,357Z" transform="translate(0.01 -0.04)"/><path class="cls-5" d="M1024.38,366.9s-14.35,4.36-20.83,4.36-31.8-.14-31.8-.14-66.15-22.1-46.3,8.16,51.22,13.37,51.22,13.37,2.54.56,5.63,1.27,62.91.14,64.88-2.25S1024.38,366.9,1024.38,366.9Z" transform="translate(0.01 -0.04)"/><path class="cls-4" d="M1065.52,393.44c-9,.82-26.71,1-26.71,1s-13.23-26.18-24.49-25.33c0,0,10.41-11.82,14.64-10.41.7.23,1.14-.29,1.36-1.3,11,3.37,32,11.61,34.1,26.06C1065,387.37,1065.31,390.65,1065.52,393.44Z" transform="translate(0.01 -0.04)"/><path class="cls-11" d="M1066.64,393.44c-9,.82-26.72,1-26.72,1s-13.23-26.18-24.48-25.33c0,0,10.41-11.82,14.63-10.41.71.23,1.15-.29,1.36-1.3,11,3.37,32,11.61,34.11,26.06C1066.09,387.37,1066.44,390.65,1066.64,393.44Z" transform="translate(0.01 -0.04)"/><path class="cls-4" d="M1065.52,393.44c-9,.83-26.71,1-26.71,1s-13.23-26.18-24.49-25.33c0,0,10.41-11.82,14.64-10.42.7.24,1.14-.28,1.36-1.29,11,3.37,32,11.61,34.1,26.06C1065,387.38,1065.31,390.66,1065.52,393.44Z" transform="translate(0.01 -0.04)"/><path class="cls-4" d="M987.57,468.78s25.33-6.2,29.27-2.82S987.57,468.78,987.57,468.78Z" transform="translate(0.01 -0.04)"/><path class="cls-4" d="M915,493s10.7,6.19,11.82,11.26S915,493,915,493Z" transform="translate(0.01 -0.04)"/><path class="cls-12" d="M869.68,282.9V393.82c0,1.91,1,2.18,2.69,3.1,5.63,3.12,19.49,8.68,36.13-.12,1.71-.9,2.76-1.2,2.76-3.14V283.59S890.11,292.12,869.68,282.9Z" transform="translate(0.01 -0.04)"/><ellipse class="cls-13" cx="890.48" cy="282.77" rx="20.79" ry="4.42"/><g class="cls-14"><circle cx="871.58" cy="328.91" r="0.47"/><circle cx="873.95" cy="329.57" r="0.47"/><circle cx="876.87" cy="330.5" r="0.47"/><circle cx="882.12" cy="331.63" r="0.47"/><circle cx="887.65" cy="332.3" r="0.47"/><circle cx="893.38" cy="332.57" r="0.47"/><circle cx="901.6" cy="331.44" r="0.47"/><circle cx="898.88" cy="332.1" r="0.47"/><circle cx="906.69" cy="330.5" r="0.47"/><circle cx="904.24" cy="330.97" r="0.47"/><circle cx="909.38" cy="329.57" r="0.47"/><circle cx="879.55" cy="331.17" r="0.47"/><circle cx="884.97" cy="332.1" r="0.47"/><circle cx="890.84" cy="332.57" r="0.47"/><circle cx="896.18" cy="332.57" r="0.47"/></g><g class="cls-14"><circle cx="871.58" cy="331.2" r="0.47"/><circle cx="873.95" cy="331.87" r="0.47"/><circle cx="876.87" cy="332.8" r="0.47"/><circle cx="882.12" cy="333.93" r="0.47"/><circle cx="887.65" cy="334.6" r="0.47"/><circle cx="893.38" cy="334.86" r="0.47"/><circle cx="901.6" cy="333.73" r="0.47"/><circle cx="898.88" cy="334.4" r="0.47"/><circle cx="906.69" cy="332.8" r="0.47"/><circle cx="904.24" cy="333.27" r="0.47"/><circle cx="909.38" cy="331.87" r="0.47"/><circle cx="879.55" cy="333.46" r="0.47"/><circle cx="884.97" cy="334.4" r="0.47"/><circle cx="890.84" cy="334.86" r="0.47"/><circle cx="896.18" cy="334.86" r="0.47"/></g><g class="cls-14"><circle cx="871.58" cy="333.5" r="0.47"/><circle cx="873.95" cy="334.16" r="0.47"/><circle cx="876.87" cy="335.1" r="0.47"/><circle cx="882.12" cy="336.23" r="0.47"/><circle cx="887.65" cy="336.9" r="0.47"/><circle cx="893.38" cy="337.16" r="0.47"/><circle cx="901.6" cy="336.03" r="0.47"/><circle cx="898.88" cy="336.69" r="0.47"/><circle cx="906.69" cy="335.1" r="0.47"/><circle cx="904.24" cy="335.56" r="0.47"/><circle cx="909.38" cy="334.16" r="0.47"/><circle cx="879.55" cy="335.76" r="0.47"/><circle cx="884.97" cy="336.69" r="0.47"/><circle cx="890.84" cy="337.16" r="0.47"/><circle cx="896.18" cy="337.16" r="0.47"/></g><g class="cls-14"><circle cx="871.58" cy="335.8" r="0.47"/><circle cx="873.95" cy="336.46" r="0.47"/><circle cx="876.87" cy="337.39" r="0.47"/><circle cx="882.12" cy="338.52" r="0.47"/><circle cx="887.65" cy="339.19" r="0.47"/><circle cx="893.38" cy="339.45" r="0.47"/><circle cx="901.6" cy="338.32" r="0.47"/><circle cx="898.88" cy="338.99" r="0.47"/><circle cx="906.69" cy="337.39" r="0.47"/><circle cx="904.24" cy="337.86" r="0.47"/><circle cx="909.38" cy="336.46" r="0.47"/><circle cx="879.55" cy="338.05" r="0.47"/><circle cx="884.97" cy="338.99" r="0.47"/><circle cx="890.84" cy="339.45" r="0.47"/><circle cx="896.18" cy="339.45" r="0.47"/></g><g class="cls-14"><circle cx="871.58" cy="338.09" r="0.47"/><circle cx="873.95" cy="338.75" r="0.47"/><circle cx="876.87" cy="339.69" r="0.47"/><circle cx="882.12" cy="340.82" r="0.47"/><circle cx="887.65" cy="341.49" r="0.47"/><circle cx="893.38" cy="341.75" r="0.47"/><circle cx="901.6" cy="340.62" r="0.47"/><circle cx="898.88" cy="341.28" r="0.47"/><circle cx="906.69" cy="339.69" r="0.47"/><circle cx="904.24" cy="340.15" r="0.47"/><circle cx="909.38" cy="338.75" r="0.47"/><circle cx="879.55" cy="340.35" r="0.47"/><circle cx="884.97" cy="341.28" r="0.47"/><circle cx="890.84" cy="341.75" r="0.47"/><circle cx="896.18" cy="341.75" r="0.47"/></g><g class="cls-14"><circle cx="871.58" cy="340.39" r="0.47"/><circle cx="873.95" cy="341.05" r="0.47"/><circle cx="876.87" cy="341.98" r="0.47"/><circle cx="882.12" cy="343.11" r="0.47"/><circle cx="887.65" cy="343.78" r="0.47"/><circle cx="893.38" cy="344.05" r="0.47"/><circle cx="901.6" cy="342.91" r="0.47"/><circle cx="898.88" cy="343.58" r="0.47"/><circle cx="906.69" cy="341.98" r="0.47"/><circle cx="904.24" cy="342.45" r="0.47"/><circle cx="909.38" cy="341.05" r="0.47"/><circle cx="879.55" cy="342.65" r="0.47"/><circle cx="884.97" cy="343.58" r="0.47"/><circle cx="890.84" cy="344.05" r="0.47"/><circle cx="896.18" cy="344.05" r="0.47"/></g><g class="cls-14"><circle cx="871.58" cy="342.68" r="0.47"/><circle cx="873.95" cy="343.34" r="0.47"/><circle cx="876.87" cy="344.28" r="0.47"/><circle cx="882.12" cy="345.41" r="0.47"/><circle cx="887.65" cy="346.08" r="0.47"/><circle cx="893.38" cy="346.34" r="0.47"/><circle cx="901.6" cy="345.21" r="0.47"/><circle cx="898.88" cy="345.87" r="0.47"/><circle cx="906.69" cy="344.28" r="0.47"/><circle cx="904.24" cy="344.74" r="0.47"/><circle cx="909.38" cy="343.34" r="0.47"/><circle cx="879.55" cy="344.94" r="0.47"/><circle cx="884.97" cy="345.87" r="0.47"/><circle cx="890.84" cy="346.34" r="0.47"/><circle cx="896.18" cy="346.34" r="0.47"/></g><g class="cls-14"><circle cx="871.58" cy="344.98" r="0.47"/><circle cx="873.95" cy="345.64" r="0.47"/><circle cx="876.87" cy="346.57" r="0.47"/><circle cx="882.12" cy="347.7" r="0.47"/><circle cx="887.65" cy="348.37" r="0.47"/><circle cx="893.38" cy="348.64" r="0.47"/><circle cx="901.6" cy="347.51" r="0.47"/><circle cx="898.88" cy="348.17" r="0.47"/><circle cx="906.69" cy="346.57" r="0.47"/><circle cx="904.24" cy="347.04" r="0.47"/><circle cx="909.38" cy="345.64" r="0.47"/><circle cx="879.55" cy="347.24" r="0.47"/><circle cx="884.97" cy="348.17" r="0.47"/><circle cx="890.84" cy="348.64" r="0.47"/><circle cx="896.18" cy="348.64" r="0.47"/></g><g class="cls-14"><circle cx="871.58" cy="347.27" r="0.47"/><circle cx="873.95" cy="347.94" r="0.47"/><circle cx="876.87" cy="348.87" r="0.47"/><circle cx="882.12" cy="350" r="0.47"/><circle cx="887.65" cy="350.67" r="0.47"/><circle cx="893.38" cy="350.93" r="0.47"/><circle cx="901.6" cy="349.8" r="0.47"/><circle cx="898.88" cy="350.47" r="0.47"/><circle cx="906.69" cy="348.87" r="0.47"/><circle cx="904.24" cy="349.34" r="0.47"/><circle cx="909.38" cy="347.94" r="0.47"/><circle cx="879.55" cy="349.53" r="0.47"/><circle cx="884.97" cy="350.47" r="0.47"/><circle cx="890.84" cy="350.93" r="0.47"/><circle cx="896.18" cy="350.93" r="0.47"/></g><g class="cls-14"><circle cx="871.58" cy="349.57" r="0.47"/><circle cx="873.95" cy="350.23" r="0.47"/><circle cx="876.87" cy="351.16" r="0.47"/><circle cx="882.12" cy="352.29" r="0.47"/><circle cx="887.65" cy="352.96" r="0.47"/><circle cx="893.38" cy="353.23" r="0.47"/><circle cx="901.6" cy="352.1" r="0.47"/><circle cx="898.88" cy="352.76" r="0.47"/><circle cx="906.69" cy="351.16" r="0.47"/><circle cx="904.24" cy="351.63" r="0.47"/><circle cx="909.38" cy="350.23" r="0.47"/><circle cx="879.55" cy="351.83" r="0.47"/><circle cx="884.97" cy="352.76" r="0.47"/><circle cx="890.84" cy="353.23" r="0.47"/><circle cx="896.18" cy="353.23" r="0.47"/></g><g class="cls-14"><circle cx="871.58" cy="351.86" r="0.47"/><circle cx="873.95" cy="352.53" r="0.47"/><circle cx="876.87" cy="353.46" r="0.47"/><circle cx="882.12" cy="354.59" r="0.47"/><circle cx="887.65" cy="355.26" r="0.47"/><circle cx="893.38" cy="355.52" r="0.47"/><circle cx="901.6" cy="354.39" r="0.47"/><circle cx="898.88" cy="355.06" r="0.47"/><circle cx="906.69" cy="353.46" r="0.47"/><circle cx="904.24" cy="353.93" r="0.47"/><circle cx="909.38" cy="352.53" r="0.47"/><circle cx="879.55" cy="354.12" r="0.47"/><circle cx="884.97" cy="355.06" r="0.47"/><circle cx="890.84" cy="355.52" r="0.47"/><circle cx="896.18" cy="355.52" r="0.47"/></g><g class="cls-14"><circle cx="871.58" cy="354.16" r="0.47"/><circle cx="873.95" cy="354.82" r="0.47"/><circle cx="876.87" cy="355.76" r="0.47"/><circle cx="882.12" cy="356.89" r="0.47"/><circle cx="887.65" cy="357.56" r="0.47"/><circle cx="893.38" cy="357.82" r="0.47"/><circle cx="901.6" cy="356.69" r="0.47"/><circle cx="898.88" cy="357.35" r="0.47"/><circle cx="906.69" cy="355.76" r="0.47"/><circle cx="904.24" cy="356.22" r="0.47"/><circle cx="909.38" cy="354.82" r="0.47"/><circle cx="879.55" cy="356.42" r="0.47"/><circle cx="884.97" cy="357.35" r="0.47"/><circle cx="890.84" cy="357.82" r="0.47"/><circle cx="896.18" cy="357.82" r="0.47"/></g><g class="cls-14"><circle cx="871.58" cy="356.46" r="0.47"/><circle cx="873.95" cy="357.12" r="0.47"/><circle cx="876.87" cy="358.05" r="0.47"/><circle cx="882.12" cy="359.18" r="0.47"/><circle cx="887.65" cy="359.85" r="0.47"/><circle cx="893.38" cy="360.11" r="0.47"/><circle cx="901.6" cy="358.98" r="0.47"/><circle cx="898.88" cy="359.65" r="0.47"/><circle cx="906.69" cy="358.05" r="0.47"/><circle cx="904.24" cy="358.52" r="0.47"/><circle cx="909.38" cy="357.12" r="0.47"/><circle cx="879.55" cy="358.71" r="0.47"/><circle cx="884.97" cy="359.65" r="0.47"/><circle cx="890.84" cy="360.11" r="0.47"/><circle cx="896.18" cy="360.11" r="0.47"/></g><g class="cls-14"><circle cx="871.58" cy="358.75" r="0.47"/><circle cx="873.95" cy="359.41" r="0.47"/><circle cx="876.87" cy="360.35" r="0.47"/><circle cx="882.12" cy="361.48" r="0.47"/><circle cx="887.65" cy="362.15" r="0.47"/><circle cx="893.38" cy="362.41" r="0.47"/><circle cx="901.6" cy="361.28" r="0.47"/><circle cx="898.88" cy="361.94" r="0.47"/><circle cx="906.69" cy="360.35" r="0.47"/><circle cx="904.24" cy="360.81" r="0.47"/><circle cx="909.38" cy="359.41" r="0.47"/><circle cx="879.55" cy="361.01" r="0.47"/><circle cx="884.97" cy="361.94" r="0.47"/><circle cx="890.84" cy="362.41" r="0.47"/><circle cx="896.18" cy="362.41" r="0.47"/></g><g class="cls-14"><circle cx="871.58" cy="361.05" r="0.47"/><circle cx="873.95" cy="361.71" r="0.47"/><circle cx="876.87" cy="362.64" r="0.47"/><circle cx="882.12" cy="363.77" r="0.47"/><circle cx="887.65" cy="364.44" r="0.47"/><circle cx="893.38" cy="364.71" r="0.47"/><circle cx="901.6" cy="363.57" r="0.47"/><circle cx="898.88" cy="364.24" r="0.47"/><circle cx="906.69" cy="362.64" r="0.47"/><circle cx="904.24" cy="363.11" r="0.47"/><circle cx="909.38" cy="361.71" r="0.47"/><circle cx="879.55" cy="363.31" r="0.47"/><circle cx="884.97" cy="364.24" r="0.47"/><circle cx="890.84" cy="364.71" r="0.47"/><circle cx="896.18" cy="364.71" r="0.47"/></g><g class="cls-14"><circle cx="871.58" cy="363.34" r="0.47"/><circle cx="873.95" cy="364" r="0.47"/><circle cx="876.87" cy="364.94" r="0.47"/><circle cx="882.12" cy="366.07" r="0.47"/><circle cx="887.65" cy="366.74" r="0.47"/><circle cx="893.38" cy="367" r="0.47"/><circle cx="901.6" cy="365.87" r="0.47"/><circle cx="898.88" cy="366.53" r="0.47"/><circle cx="906.69" cy="364.94" r="0.47"/><circle cx="904.24" cy="365.4" r="0.47"/><circle cx="909.38" cy="364" r="0.47"/><circle cx="879.55" cy="365.6" r="0.47"/><circle cx="884.97" cy="366.53" r="0.47"/><circle cx="890.84" cy="367" r="0.47"/><circle cx="896.18" cy="367" r="0.47"/></g><g class="cls-14"><circle cx="871.58" cy="365.64" r="0.47"/><circle cx="873.95" cy="366.3" r="0.47"/><circle cx="876.87" cy="367.23" r="0.47"/><circle cx="882.12" cy="368.36" r="0.47"/><circle cx="887.65" cy="369.03" r="0.47"/><circle cx="893.38" cy="369.3" r="0.47"/><circle cx="901.6" cy="368.17" r="0.47"/><circle cx="898.88" cy="368.83" r="0.47"/><circle cx="906.69" cy="367.23" r="0.47"/><circle cx="904.24" cy="367.7" r="0.47"/><circle cx="909.38" cy="366.3" r="0.47"/><circle cx="879.55" cy="367.9" r="0.47"/><circle cx="884.97" cy="368.83" r="0.47"/><circle cx="890.84" cy="369.3" r="0.47"/><circle cx="896.18" cy="369.3" r="0.47"/></g><g class="cls-14"><circle cx="871.58" cy="367.93" r="0.47"/><circle cx="873.95" cy="368.6" r="0.47"/><circle cx="876.87" cy="369.53" r="0.47"/><circle cx="882.12" cy="370.66" r="0.47"/><circle cx="887.65" cy="371.33" r="0.47"/><circle cx="893.38" cy="371.59" r="0.47"/><circle cx="901.6" cy="370.46" r="0.47"/><circle cx="898.88" cy="371.13" r="0.47"/><circle cx="906.69" cy="369.53" r="0.47"/><circle cx="904.24" cy="370" r="0.47"/><circle cx="909.38" cy="368.6" r="0.47"/><circle cx="879.55" cy="370.19" r="0.47"/><circle cx="884.97" cy="371.13" r="0.47"/><circle cx="890.84" cy="371.59" r="0.47"/><circle cx="896.18" cy="371.59" r="0.47"/></g><g class="cls-14"><circle cx="871.58" cy="370.23" r="0.47"/><circle cx="873.95" cy="370.89" r="0.47"/><circle cx="876.87" cy="371.82" r="0.47"/><circle cx="882.12" cy="372.95" r="0.47"/><circle cx="887.65" cy="373.62" r="0.47"/><circle cx="893.38" cy="373.89" r="0.47"/><circle cx="901.6" cy="372.76" r="0.47"/><circle cx="898.88" cy="373.42" r="0.47"/><circle cx="906.69" cy="371.82" r="0.47"/><circle cx="904.24" cy="372.29" r="0.47"/><circle cx="909.38" cy="370.89" r="0.47"/><circle cx="879.55" cy="372.49" r="0.47"/><circle cx="884.97" cy="373.42" r="0.47"/><circle cx="890.84" cy="373.89" r="0.47"/><circle cx="896.18" cy="373.89" r="0.47"/></g><g class="cls-14"><circle cx="871.58" cy="372.52" r="0.47"/><circle cx="873.95" cy="373.19" r="0.47"/><circle cx="876.87" cy="374.12" r="0.47"/><circle cx="882.12" cy="375.25" r="0.47"/><circle cx="887.65" cy="375.92" r="0.47"/><circle cx="893.38" cy="376.18" r="0.47"/><circle cx="901.6" cy="375.05" r="0.47"/><circle cx="898.88" cy="375.72" r="0.47"/><circle cx="906.69" cy="374.12" r="0.47"/><circle cx="904.24" cy="374.59" r="0.47"/><circle cx="909.38" cy="373.19" r="0.47"/><circle cx="879.55" cy="374.78" r="0.47"/><circle cx="884.97" cy="375.72" r="0.47"/><circle cx="890.84" cy="376.18" r="0.47"/><circle cx="896.18" cy="376.18" r="0.47"/></g><g class="cls-14"><circle cx="871.58" cy="374.82" r="0.47"/><circle cx="873.95" cy="375.48" r="0.47"/><circle cx="876.87" cy="376.42" r="0.47"/><circle cx="882.12" cy="377.55" r="0.47"/><circle cx="887.65" cy="378.22" r="0.47"/><circle cx="893.38" cy="378.48" r="0.47"/><circle cx="901.6" cy="377.35" r="0.47"/><circle cx="898.88" cy="378.01" r="0.47"/><circle cx="906.69" cy="376.42" r="0.47"/><circle cx="904.24" cy="376.88" r="0.47"/><circle cx="909.38" cy="375.48" r="0.47"/><circle cx="879.55" cy="377.08" r="0.47"/><circle cx="884.97" cy="378.01" r="0.47"/><circle cx="890.84" cy="378.48" r="0.47"/><circle cx="896.18" cy="378.48" r="0.47"/></g><g class="cls-14"><circle cx="871.58" cy="377.12" r="0.47"/><circle cx="873.95" cy="377.78" r="0.47"/><circle cx="876.87" cy="378.71" r="0.47"/><circle cx="882.12" cy="379.84" r="0.47"/><circle cx="887.65" cy="380.51" r="0.47"/><circle cx="893.38" cy="380.77" r="0.47"/><circle cx="901.6" cy="379.64" r="0.47"/><circle cx="898.88" cy="380.31" r="0.47"/><circle cx="906.69" cy="378.71" r="0.47"/><circle cx="904.24" cy="379.18" r="0.47"/><circle cx="909.38" cy="377.78" r="0.47"/><circle cx="879.55" cy="379.37" r="0.47"/><circle cx="884.97" cy="380.31" r="0.47"/><circle cx="890.84" cy="380.77" r="0.47"/><circle cx="896.18" cy="380.77" r="0.47"/></g><g class="cls-14"><circle cx="871.58" cy="379.41" r="0.47"/><circle cx="873.95" cy="380.07" r="0.47"/><circle cx="876.87" cy="381.01" r="0.47"/><circle cx="882.12" cy="382.14" r="0.47"/><circle cx="887.65" cy="382.81" r="0.47"/><circle cx="893.38" cy="383.07" r="0.47"/><circle cx="901.6" cy="381.94" r="0.47"/><circle cx="898.88" cy="382.6" r="0.47"/><circle cx="906.69" cy="381.01" r="0.47"/><circle cx="904.24" cy="381.47" r="0.47"/><circle cx="909.38" cy="380.07" r="0.47"/><circle cx="879.55" cy="381.67" r="0.47"/><circle cx="884.97" cy="382.6" r="0.47"/><circle cx="890.84" cy="383.07" r="0.47"/><circle cx="896.18" cy="383.07" r="0.47"/></g><g class="cls-14"><circle cx="871.58" cy="381.71" r="0.47"/><circle cx="873.95" cy="382.37" r="0.47"/><circle cx="876.87" cy="383.3" r="0.47"/><circle cx="882.12" cy="384.43" r="0.47"/><circle cx="887.65" cy="385.1" r="0.47"/><circle cx="893.38" cy="385.36" r="0.47"/><circle cx="901.6" cy="384.23" r="0.47"/><circle cx="898.88" cy="384.9" r="0.47"/><circle cx="906.69" cy="383.3" r="0.47"/><circle cx="904.24" cy="383.77" r="0.47"/><circle cx="909.38" cy="382.37" r="0.47"/><circle cx="879.55" cy="383.97" r="0.47"/><circle cx="884.97" cy="384.9" r="0.47"/><circle cx="890.84" cy="385.36" r="0.47"/><circle cx="896.18" cy="385.36" r="0.47"/></g><path class="cls-3" d="M945.75,226.7s13.69-5.12,18.24,5.43l1.28.33,2.87.74c7.25-10.83,26.34,0,26.34,0l26.8,11.85-1,1.67-26.86-9.37s-3.55,11-8.21,13.65S973,249.53,973,249.53c-4.72-1.89-5.08-10.18-5-14.18l-4.06-.81c-.28,4-1.76,11.71-9,12.58-9.85,1.18-10.54-7.51-10.54-7.51S944.13,228.55,945.75,226.7Z" transform="translate(0.01 -0.04)"/><path class="cls-11" d="M955.52,226.8c-.45,1-1.08,2.41-.17,3.06a1.7,1.7,0,0,0,1.36.16c2.89-.63,4.42-3.71,5.63-6.41s3-5.72,6-6c3.47-.29,7.1,3.49,10,1.51.88-.6,1.41-1.66,2.39-2.1a3.91,3.91,0,0,1,2.22-.14,15.58,15.58,0,0,1,12.73,13.34c.15,1.4.44,3.22,1.83,3.44a5.81,5.81,0,0,0,1.55-.18c2.62-.3,4.22,2.72,5.06,5.22,1.14,3.41,2.29,7,1.63,10.55-.52,2.79-2.16,5.35-2.25,8.19-.08,2.34.91,4.57,1.88,6.7s2.55,4.63,4.87,4.33c1.9-.25,3-2.27,3.87-4s2.56-3.51,4.41-3c.82.24,1.68.94,2.43.51a1.72,1.72,0,0,0,.71-1.22c.9-3.94-.39-8.36,1.52-11.91,1.47-2.73,4.46-4.21,6.89-6.15a19.7,19.7,0,0,0,3.1-27.69c-.14-.18-.29-.35-.44-.53-2.59-3-6.33-5.73-6.54-9.72-.16-3,1.9-5.84,1.92-8.88s-1.88-5.61-4-7.63a26.23,26.23,0,0,0-23.58-6.21c-2.18.52-4.37,1.34-6.6,1.06-2.58-.32-4.74-2-7.06-3.22-7.62-3.85-17.93-1-22.54,6.13-2.67,4.15-3.71,9.57-7.69,12.48-2.62,1.91-6.36,2.62-7.81,5.52-.87,1.74-.62,3.8-.36,5.73a13.42,13.42,0,0,0,4.28,8.19C955,220.51,957.12,223.13,955.52,226.8Z" transform="translate(0.01 -0.04)"/><g class="cls-15"><path d="M1027.33,199.42a15.75,15.75,0,0,0,.6-2.34A13.39,13.39,0,0,0,1027.33,199.42Z" transform="translate(0.01 -0.04)"/><path d="M956.06,224.36a8.71,8.71,0,0,1,.56-1.5c1.62-3.67-.46-6.29-2.88-8.76a13.42,13.42,0,0,1-4.28-8.19,19,19,0,0,1-.24-2.61,5.46,5.46,0,0,0-.53.82c-.87,1.74-.62,3.8-.36,5.73a13.42,13.42,0,0,0,4.28,8.19C954.46,219.9,956.11,221.9,956.06,224.36Z" transform="translate(0.01 -0.04)"/><path d="M1019.52,257.64c-1.85-.54-3.49,1.28-4.4,3s-2,3.71-3.88,4c-2.31.3-3.9-2.2-4.87-4.33s-2-4.36-1.88-6.7a2.89,2.89,0,0,1,.08-.83,15.49,15.49,0,0,0-1.2,4.77c-.08,2.34.91,4.57,1.88,6.7s2.55,4.63,4.87,4.33c1.9-.25,3-2.27,3.87-4s2.56-3.51,4.41-3c.82.24,1.68.94,2.43.51a1.72,1.72,0,0,0,.71-1.22,15.1,15.1,0,0,0,.33-2.68C1021.17,258.51,1020.35,257.9,1019.52,257.64Z" transform="translate(0.01 -0.04)"/><path d="M1031.1,238.9c-2.42,1.94-5.41,3.42-6.89,6.15a10.11,10.11,0,0,0-1,3.81c1.5-2.65,4.42-4.11,6.81-6a20,20,0,0,0,7.1-12A19.94,19.94,0,0,1,1031.1,238.9Z" transform="translate(0.01 -0.04)"/><path d="M1005.71,248.82a22.43,22.43,0,0,0,1.07-3.47c.66-3.54-.5-7.14-1.64-10.55-.83-2.5-2.44-5.52-5-5.22a5.84,5.84,0,0,1-1.56.18c-1.39-.22-1.68-2-1.82-3.44A15.59,15.59,0,0,0,984,213a3.94,3.94,0,0,0-2.23.14c-1,.44-1.51,1.5-2.38,2.1-2.87,2-6.5-1.8-10-1.51-2.94.24-4.75,3.26-6,6s-2.74,5.78-5.63,6.41a1.7,1.7,0,0,1-1.36-.16,1.1,1.1,0,0,1-.45-.84,6.54,6.54,0,0,1-.51,1.72c-.45,1-1.08,2.41-.17,3.06a1.7,1.7,0,0,0,1.36.16c2.89-.63,4.42-3.71,5.63-6.41s3-5.72,6-6c3.47-.29,7.1,3.49,10,1.51.88-.6,1.41-1.66,2.39-2.1a3.91,3.91,0,0,1,2.22-.14,15.58,15.58,0,0,1,12.73,13.34c.15,1.4.44,3.22,1.83,3.44a5.81,5.81,0,0,0,1.55-.18c2.62-.3,4.22,2.72,5.06,5.22C1005.11,242,1006.19,245.43,1005.71,248.82Z" transform="translate(0.01 -0.04)"/></g></g><g class="cls-1"><path class="cls-2" d="M0,206.81c0,.93,0,1.86.07,2.8A196,196,0,0,0,3.62,240c5.73,29.8,17.7,59.6,31.86,88,.23.45.46.9.68,1.35l1,2q1,2.06,2.08,4.08l1.57,3h0c.37.72.76,1.44,1.14,2.17.23.44.47.89.72,1.34a247.42,247.42,0,0,0,12.85,21.76l.53.78a135,135,0,0,0,20.36,24C90,400.9,107.15,409.9,125.52,415c.62.18,1.24.34,1.87.51,1.2.31,2.42.61,3.64.9.84.2,1.68.39,2.53.56a131.62,131.62,0,0,0,17.77,2.57c3.24.25,6.49.37,9.72.37h1.4a119.34,119.34,0,0,0,12-.7l.57-.07a103.43,103.43,0,0,0,31.16-8.39q2.37-1.07,4.65-2.25l.78-.4.38-.21h0a126.19,126.19,0,0,0,14.66-9.17c5.45-3.91,10.59-8.15,15.56-12.51a239.69,239.69,0,0,0,21-20.68l.3-.33q4.23-4.77,8.07-9.8v-.06q2.67-3.51,5.12-7.15c.08-.1.15-.21.23-.33,2.39-3.57,4.61-7.23,6.63-11L284,336q2.19-4.14,4-8.42c6.92-16.08,10-33.49,11.69-50.94,3.45-35.26,1.44-71.59-7.89-106.86q-1.89-7.16-4.19-14.25c-.21-.63-.41-1.27-.63-1.9-.33-1-.68-2-1-3-.14-.42-.29-.85-.44-1.27q-2-5.76-4.33-11.45l-.81-2c-.85-2-1.72-4.09-2.63-6.12-.83-1.87-1.69-3.75-2.59-5.61-.15-.3-.29-.59-.43-.89-7.7-15.81-17.8-31.18-32.16-42.77q-1.5-1.19-3-2.31-2.25-1.68-4.65-3.22l-1.13-.72-.42-.26-.3-.18-.17-.1c-.81-.49-1.64-1-2.47-1.42s-1.7-.9-2.56-1.33h-.12l-.34-.16c-.67-.34-1.35-.66-2-1l-.7-.31-.27-.12-1.13-.47a78.42,78.42,0,0,0-15.94-4.77A74.37,74.37,0,0,0,198.2,63a60.73,60.73,0,0,0-13.93.75c-.7.12-1.39.25-2.08.4a42.45,42.45,0,0,0-16.15,7c-6.29,4.56-10.73,10.67-14.76,17l-.41.64c-.68,1.07-1.34,2.14-2,3.21-2.31,3.74-4.62,7.5-7.06,11.19-2.26,3.42-4.63,6.78-7.19,10a84.49,84.49,0,0,1-8.4,9.14c-.45.42-.91.84-1.38,1.25a62.56,62.56,0,0,1-18.91,11.57c-6.28,2.35-13,3.41-19.53,2.05h0A26.14,26.14,0,0,1,81,135.49c-3.26-1.44-6.45-2.85-9.59-4.1a71.28,71.28,0,0,0-17.53-5h0a39,39,0,0,0-18.49,2c-1,.35-1.95.75-2.94,1.19a41.86,41.86,0,0,0-11.82,7.91c-.41.39-.81.79-1.21,1.19C10.69,147.62,5.87,160,3.28,172.09A152.22,152.22,0,0,0,0,206.81Z" transform="translate(0.01 -0.04)"/><path class="cls-16" d="M127.52,412.72l-2,2.32c.62.18,1.24.34,1.87.51,1.2.31,2.42.61,3.64.9.84.2,1.68.39,2.53.56a131.62,131.62,0,0,0,17.77,2.57c3.24.25,6.49.37,9.72.37a15.17,15.17,0,0,0,1.62-2.89c1.32-3.09,6.47-8.57,12-13.84-.11.89-.18,1.4-.18,1.4V405l-.06,14.27.57-.07a103.43,103.43,0,0,0,31.16-8.39q2.37-1.06,4.65-2.25l.78-.4.38-.21c.69-3.44,1.32-6.74,1.83-9.37l.06-.37c.07-.35.13-.7.2-1s.11-.62.17-.9.07-.41.11-.6c.34-1.81.53-2.89.53-2.89a15,15,0,0,1,.18-1.64h0a14.45,14.45,0,0,1,3.87-8.1,7.49,7.49,0,0,0,1.86-3.21h0c1.1-3.4.91-7.84.75-9.86-.05-.67-.11-1.07-.11-1.07s3.81-2,6.06-8.21a24.15,24.15,0,0,0,1.09-4c1.63-8.79,6.66-27.33,7.28-29.61h0l.06-.22s.13-.32.36-.93a1.11,1.11,0,0,1,.07-.22l.09-.23h0c2.26-6.19,11-31.28,10.29-47.94-.77-19.13,1.16-29.09,1.16-29.09l2.26-41.58v-.44l.13-2.43v-.69c.33.25.63.49.87.69l.55.46.19.18v-.48c.35.29.55.48.55.48s1-16.15.9-25.28c0-1.07,0-2.06-.08-2.9,6.76-2.29,17-6.07,17.63-8,.49-1.59,4.29-5.09,7.56-7.89l1.79-1.5.93-.77c1.3-1.06,2.19-1.75,2.19-1.75a2,2,0,0,1-.71-.27c.36-.16.75-.35,1.15-.57,1-.52,2-1.16,3.16-1.91,4.81-3.17,10.68-8.17,13.95-13,1.82-2.71,2.83-5.38,2.39-7.65a4.61,4.61,0,0,0-.16-.64L317,112.65l1.61-2.32a3.77,3.77,0,0,0-.34-4.74l.06-.08-.1-.07-.6-.4.11.1a2,2,0,0,0-2.6.56l-.24.35-13.33,19.12-2.35,3.39c-5.2-1.57-12.77,2.85-18.74,7.35-2.16,1.63-4.12,3.26-5.67,4.63l-1,.91c-.47-1-.74-1.7-.74-1.7-.29,3.16-11.45,7.9-14,9.62a9.61,9.61,0,0,1-3.89,1.31c.37-12-8.92-24.65-8.92-24.65l-18-23h0l-1.11-1.41-3.56-4.53a21.18,21.18,0,0,1-.32-4.28,26.28,26.28,0,0,1,1-6.94c.11-.36.23-.73.35-1.1a23.15,23.15,0,0,1,1.25-3c.19-.37.38-.75.59-1.12h.1c-.39,1.38-.8,2.77-1.08,4.16-.08.38-.15.75-.2,1.13l-.06.47a15.22,15.22,0,0,0-.08,1.79v.26c.18,2.41,2,11.15,4.37,10.76a1.43,1.43,0,0,0,1.3-.63,6.38,6.38,0,0,0,1.13-1.84,10,10,0,0,0,.41-1.2,24.21,24.21,0,0,0,.57-7,20,20,0,0,1-.36,3.26c.13-2.53-.08-5.19-.16-7.35V81.79h0a13,13,0,0,1,0-1.39h.28v0h.29a30.17,30.17,0,0,0,6.63-2A30.64,30.64,0,0,0,246.79,74a7.59,7.59,0,0,0,1.42-.2,7.5,7.5,0,0,0,3.59-2l.2-.22a5.06,5.06,0,0,1-.86,4.58.76.76,0,0,1-.11.14h.14c2.87-.2,5.32-2.39,6.51-5a1.59,1.59,0,0,0,.12-.27,18.29,18.29,0,0,0,.87-8.89,60.26,60.26,0,0,1-.65-9c0-.73.13-1.46.2-2.19v-.26a14.2,14.2,0,0,0,0-2.44v-.17a9.73,9.73,0,0,0-.24-1.31h.09a2.14,2.14,0,0,0,1.65-.85l.18-.15a3.42,3.42,0,0,0,.58-.68,5.4,5.4,0,0,0,.55-1,17.49,17.49,0,0,0,.69-2.45,37.56,37.56,0,0,0,1.17-10.29c-.07,1-.2,2.1-.36,3.15.28-4-.28-7.84-2.91-10.72-1.8-2-4.33-3.15-6.77-4.3a5,5,0,0,1-2.19-1.56,6.37,6.37,0,0,1-.68-2.74c-.85-5.82-6.32-9.85-11.76-12.21-7-3-15.43-4.35-22.16-.73C212.79,4,210.21,6.73,207.26,9c-3.74,2.83-8,4.82-12,7.3s-7.82,5.62-9.74,9.84-1.62,9.2-1.09,14c.27,2.44.6,4.88.73,7.28V48a37.54,37.54,0,0,1-3,16.1,31.54,31.54,0,0,1-10.33,13.19,11.78,11.78,0,0,0-2.92,2.53,3.15,3.15,0,0,0-.24,3.61,3.89,3.89,0,0,0,.81.76,6.44,6.44,0,0,1,.93.8,2.8,2.8,0,0,1,.52.88,5.24,5.24,0,0,1,.08,2.91.47.47,0,0,1,0,.26l-.12.5a28.43,28.43,0,0,1-7.74,13.09c.16,1.18,1.6,1.64,2.79,1.82h0a65,65,0,0,0,9.45.68h1.36c-.15.36-.29.73-.44,1.12h0c-.32.85-.67,1.8-1,2.8h0c-1.44,4.25-2.78,9.45-2.18,12.89,1.16,6.7,4.63,37.31,2.9,42.67s2.7,44.58,2.7,44.58.12.61.35,1.68c.28,1.32.73,3.34,1.31,5.81a.82.82,0,0,1-.13.31c-2.7,6.35-5.74,13.3-7.28,16.12-2.07,3.79-2.1,17.83,1.23,30.68,1.71,6.62,4.32,12.92,8,17.34,0,0,3.78,5.33,3.49,8a1.82,1.82,0,0,1-.19.64c-.82,1.6-.4,4.05-.07,5.37.14.58.27.94.27.94v1L187.33,334a97.35,97.35,0,0,1-.8,11.57c-4.61,5.71-11.72,14-15.08,15.4-5.18,2.11-43.82,49-43.82,49s.31.56.91,1.48Z" transform="translate(0.01 -0.04)"/><path class="cls-17" d="M282.28,159a10.09,10.09,0,0,1-3.7,1.4c-4.83.15-8.81-12.93-8.81-12.93s1.38-1.39,3.57-3.34c6.47-5.76,20.05-16.39,26.42-10.44C306.9,140.38,290.6,154.52,282.28,159Z" transform="translate(0.01 -0.04)"/><path class="cls-17" d="M133.52,417a131.62,131.62,0,0,0,17.77,2.57c-2.53-4.47-19-9.78-19-9.78l-2.23,2.6L129,413.65l-1.62,1.9c1.2.31,2.42.61,3.64.9C131.84,416.65,132.68,416.84,133.52,417Z" transform="translate(0.01 -0.04)"/><path class="cls-4" d="M282.28,159a10.09,10.09,0,0,1-3.7,1.4c-4.83.15-8.81-12.93-8.81-12.93s1.38-1.39,3.57-3.34C274.88,147.71,279.24,157.25,282.28,159Z" transform="translate(0.01 -0.04)"/><path class="cls-18" d="M251.3,154.31s4,.29,6.54-1.42,13.5-6.39,13.78-9.52c0,0,6.54,15.92,10.23,16.49,0,0-11.37,8.95-12.22,11.79s-23,9.8-23,9.8Z" transform="translate(0.01 -0.04)"/><path class="cls-19" d="M251.3,154.31s4,.29,6.54-1.42,13.5-6.39,13.78-9.52c0,0,6.54,15.92,10.23,16.49,0,0-11.37,8.95-12.22,11.79s-23,9.8-23,9.8Z" transform="translate(0.01 -0.04)"/><path class="cls-4" d="M129,413.65c.49.75,1.16,1.71,2,2.8.84.2,1.68.39,2.53.56a131.62,131.62,0,0,0,17.77,2.57c-2.53-4.47-19-9.78-19-9.78l-2.23,2.6Z" transform="translate(0.01 -0.04)"/><path class="cls-19" d="M129.15,410.9s.3.56.89,1.47a43.25,43.25,0,0,0,3.49,4.61,131.62,131.62,0,0,0,17.77,2.57c3.24.25,6.49.37,9.72.37h1.4a14.93,14.93,0,0,0,1-2c1.23-2.92,5.89-8,11-13,.24-.25.5-.49.74-.73,7.29-7.07,15.17-13.76,15.17-13.76l.76-48.69s-1.73,2.31-4.19,5.39c-4.52,5.65-11.51,13.9-14.79,15.25C167,364.52,129.15,410.9,129.15,410.9Z" transform="translate(0.01 -0.04)"/><path class="cls-4" d="M129.15,410.9s.3.56.89,1.47a43.25,43.25,0,0,0,3.49,4.61,131.62,131.62,0,0,0,17.77,2.57c3.24.25,6.49.37,9.72.37h1.4a14.93,14.93,0,0,0,1-2c1.23-2.92,5.89-8,11-13,.24-.25.5-.49.74-.73,7.29-7.07,15.17-13.76,15.17-13.76l.76-48.69s-1.73,2.31-4.19,5.39c-4.52,5.65-11.51,13.9-14.79,15.25C167,364.52,129.15,410.9,129.15,410.9Z" transform="translate(0.01 -0.04)"/><path class="cls-4" d="M149,404a60.78,60.78,0,0,0,12.65,0C169.17,403.26,163.52,407.81,149,404Z" transform="translate(0.01 -0.04)"/><path class="cls-4" d="M145.58,408.81s9.95,5.68,13.79,2.84S155.67,414.39,145.58,408.81Z" transform="translate(0.01 -0.04)"/><path class="cls-19" d="M185.65,289.18a3.93,3.93,0,0,1,.16,2.78,6.27,6.27,0,0,0-.42,3.23,13.68,13.68,0,0,0,.31,1.9c.16.67.31,1.12.31,1.12l1.68,37.51a99.81,99.81,0,0,1-.78,11.46c-.54,4-1.46,8.11-3,10.52-3.39,5.2-7.82,39.2-8.74,46.54l-.17,1.39-.06,13.54a103.43,103.43,0,0,0,31.16-8.39q2.37-1.06,4.65-2.25l.78-.4.38-.21h0c.69-3.52,1.32-6.83,1.79-9.35l.06-.37.2-1c.06-.3.11-.62.17-.9s.07-.41.11-.6c.2-1.12.32-1.76.32-1.76a17.27,17.27,0,0,1,.39-2.77h0a13.65,13.65,0,0,1,3.57-6.88,8.53,8.53,0,0,0,2.16-4.43h0a33,33,0,0,0,.29-9.57,5.44,5.44,0,0,0,.55-.39c1.16-.82,4.27-3.46,5.95-9.28a22.46,22.46,0,0,0,.6-2.55c1.71-9.28,7.2-29.56,7.2-29.56s.21-.55.57-1.54h0c.13-.33.27-.72.42-1.15a1.11,1.11,0,0,1,.07-.22l.09-.23h0c2.87-8.21,10.06-30.49,9.46-45.68-.77-18.94,1.13-28.8,1.13-28.8l2.37-44v-1.1l.22-4.14L227.8,201h-1.27l-5.18-.16h-.72l-7-.21-3.13-.09-5.64-.17H202.8l-4.35-.13-12.68,7.39s-.49,1.23-1.3,3.18c-.17.44-.37.93-.59,1.44s-.43,1.07-.68,1.66l-1.8,4.32c-.21.51-.42,1-.64,1.54-2.68,6.38-5.73,13.44-7.27,16.27-1.91,3.52-2,16,.63,28,1.65,7.41,4.37,14.66,8.41,19.57A27.68,27.68,0,0,1,185.65,289.18Z" transform="translate(0.01 -0.04)"/><path class="cls-4" d="M199.86,390.33s7.77,6.13,11,6.11S199.86,390.33,199.86,390.33Z" transform="translate(0.01 -0.04)"/><path class="cls-17" d="M246.61,133.9v12.51l-8.26-3.56-8.22-3.55-17.9-17.62s-14.17-9.21-21.75-17.59c-4.33-4.79-6.51-9.3-2.69-11.68a23.86,23.86,0,0,0,5-4.35,80.93,80.93,0,0,0,9.88-14.58c.12-.21.24-.42.35-.63,3.69-6.77,6.13-12.55,6.13-12.55s10.38,3.33,17.06,8c.54.37,1.05.76,1.54,1.16,3.73,3.06,5.57,6.59,2.15,10.12a26.3,26.3,0,0,0-2.45,2.92h0a20.53,20.53,0,0,0-1.52,2.39c-.21.37-.4.74-.58,1.11A25.53,25.53,0,0,0,223,101.17Z" transform="translate(0.01 -0.04)"/><path class="cls-11" d="M245.1,44.6c.43.74,1,1.39,1.43,2.15.84,1.6.7,3.5.62,5.31a30.41,30.41,0,0,0,.55,8.46c.59,2.49,1.68,4.9,1.77,7.46.13,3.62-1.75,7-3.57,10.09a7.3,7.3,0,0,0,5.2-2.42,5,5,0,0,1-1,4.67c3-.14,5.51-2.48,6.65-5.23a18.49,18.49,0,0,0,.85-8.79,58.71,58.71,0,0,1-.64-8.89,34.2,34.2,0,0,0,.26-4.85c-.28-3.22-2.26-6-4.16-8.62l-3.85-5.27a2.75,2.75,0,0,0-1.06-1C244.52,36.12,244.08,42.82,245.1,44.6Z" transform="translate(0.01 -0.04)"/><path class="cls-4" d="M229.85,79.57a26.3,26.3,0,0,0-2.45,2.92h0a20.53,20.53,0,0,0-1.52,2.39c-.21.37-.4.74-.58,1.11a29.58,29.58,0,0,1-14.19-4.51A30.15,30.15,0,0,1,203,73.9c-.12-.16-.24-.33-.35-.5.12-.21.24-.42.35-.63,3.69-6.77,6.13-12.55,6.13-12.55s10.38,3.33,17.06,8c.54.37,1.05.76,1.54,1.16C231.43,72.51,233.27,76,229.85,79.57Z" transform="translate(0.01 -0.04)"/><path class="cls-17" d="M256.82,55.07a29.85,29.85,0,0,1-24.43,29.36,30.74,30.74,0,0,1-5.41.48h-1.13a29.54,29.54,0,0,1-14.77-4.54,29.8,29.8,0,1,1,45.74-25.3Z" transform="translate(0.01 -0.04)"/><path class="cls-4" d="M230.89,128.83s15,8.48,11.18,1.33l-19.61-29h0l22.26,28.61s14.21,19.51,6.44,33c0,0-1.14,11.18.19,13.83s-.38,30.89-.38,30.89-5.3-4.93-8.15-4-22.92,2.65-22.92,2.65Z" transform="translate(0.01 -0.04)"/><path class="cls-4" d="M249.64,201.59l-.28,5.24c-1.8-1.31-4.3-2.77-6-2.22-2.84.95-22.92,2.66-22.92,2.66l.92-6.52Z" transform="translate(0.01 -0.04)"/><path class="cls-11" d="M231.46,128.83s15,8.48,11.17,1.33l-19.61-29h0l22.27,28.61s14.21,19.51,6.44,33c0,0-1.14,11.18.19,13.83s-.38,30.89-.38,30.89-5.31-4.93-8.15-4-22.87,2.64-22.87,2.64Z" transform="translate(0.01 -0.04)"/><path class="cls-4" d="M239.52,143.37c-.88,9.1-4.63,19.94-4.63,19.94s-2.64,26.91-6,34.87-1.9,18.94-3.8,39.21c-.68,7.3-3,12.31-6.2,15.7-5.22,5.57-12.67,6.73-18.55,6.38-.48,0-.94-.06-1.39-.1-9.48-1-18.57-46.61-18.57-46.61s-4.35-38.84-2.65-44.14S176,133,174.89,126.37c-.72-4.2,1.45-11.07,3.13-15.54,1-2.58,1.79-4.36,1.79-4.36s3.22-10.23,8.53-15.53A7.76,7.76,0,0,1,194,88.58a13.82,13.82,0,0,1,7,2.2l.24.16s34.49,35.24,37.7,43.38C239.74,136.6,239.83,139.9,239.52,143.37Z" transform="translate(0.01 -0.04)"/><path class="cls-19" d="M238.35,142.8c-.88,9.1-4.62,19.94-4.62,19.94s-2.65,26.91-6.06,34.87-1.9,18.94-3.79,39.22c-.68,7.29-3,12.31-6.21,15.69-5.22,5.57-12.66,6.73-18.55,6.39l-1.39-.11c-9.47-.94-18.57-46.61-18.57-46.61s-4.35-38.84-2.65-44.14-1.7-35.62-2.84-42.25c-.72-4.2,1.45-11.07,3.13-15.54,1-2.58,1.79-4.36,1.79-4.36s3.23-10.23,8.53-15.53A7.86,7.86,0,0,1,192.74,88a13.82,13.82,0,0,1,7,2.2l.25.16s34.48,35.24,37.7,43.39C238.6,136,238.7,139.29,238.35,142.8Z" transform="translate(0.01 -0.04)"/><path class="cls-4" d="M199.72,281.49s-7.81,7-10.51,6.68S199.72,281.49,199.72,281.49Z" transform="translate(0.01 -0.04)"/><path class="cls-4" d="M201.8,288.18s-8.24,3.82-10.7,4.39S198.62,287.19,201.8,288.18Z" transform="translate(0.01 -0.04)"/><path class="cls-4" d="M233.68,183.58s12.22.15,14.07,4S237.66,182,233.68,183.58Z" transform="translate(0.01 -0.04)"/><path class="cls-4" d="M232,190.26s9.38,2,12.22,4.27S232,190.26,232,190.26Z" transform="translate(0.01 -0.04)"/><path class="cls-4" d="M216.21,167.1s-1.13,38.51-5.33,43.48S216.21,167.1,216.21,167.1Z" transform="translate(0.01 -0.04)"/><path class="cls-4" d="M205.69,276s-7.8,34,7.89,36.09,10.87-38.65,10.87-38.65Z" transform="translate(0.01 -0.04)"/><path class="cls-17" d="M205.12,275.38s-7.8,34,7.89,36.09,10.87-38.65,10.87-38.65Z" transform="translate(0.01 -0.04)"/><path class="cls-4" d="M256.63,51.78a10.77,10.77,0,0,1-1.11-2.06c-2.09-4.35-7.45-2.23-11.39-.14L242,52.28a17.64,17.64,0,0,0-2.4,3.7,29.49,29.49,0,0,0-1,3.32c-.54,1.92-1.34,3.76-2.06,5.63a66.17,66.17,0,0,0-4.21,19.5,30.74,30.74,0,0,1-5.41.48h-.13v-.14c.2-.75.37-1.51.52-2.27h0a39.4,39.4,0,0,0,.3-13v-.28c-.15-1-.33-1.93-.42-2.9-.36.67-.71,1.34-1.08,2-2.37,4.46-4.87,8.83-9.36,10.78a19.5,19.5,0,0,1-5.69,1.28A32.31,32.31,0,0,0,204,81.56a4.47,4.47,0,0,0-2.07,1.25,6.16,6.16,0,0,0-1,3.11,25.65,25.65,0,0,1-1.13,4.32,37.78,37.78,0,0,1-9.25,13.8l-1,1a19.06,19.06,0,0,1-6.14,4.25,18.47,18.47,0,0,1-6.51,1c1-2.58,1.79-4.36,1.79-4.36s3.23-10.23,8.53-15.53A7.86,7.86,0,0,1,192.81,88,83.22,83.22,0,0,0,203,72.8a29.84,29.84,0,1,1,53.66-21Z" transform="translate(0.01 -0.04)"/><path class="cls-11" d="M258.52,28.51c-1.77-2-4.25-3.12-6.64-4.25a5,5,0,0,1-2.15-1.57,6.73,6.73,0,0,1-.67-2.71c-.83-5.77-6.19-9.76-11.53-12.1-6.87-3-15.12-4.3-21.72-.72-3.2,1.74-5.74,4.47-8.63,6.69-3.66,2.81-7.89,4.77-11.8,7.23s-7.64,5.55-9.5,9.78c-2.87,6.52-.72,14-.35,21.12.56,11.21-4,22.94-13.06,29.58a11.48,11.48,0,0,0-2.87,2.51,3.16,3.16,0,0,0-.23,3.57,20.67,20.67,0,0,0,1.7,1.55c1,1.18.82,3,.42,4.5a28.17,28.17,0,0,1-7.58,13c.15,1.17,1.57,1.63,2.73,1.8a63.8,63.8,0,0,0,9.26.68,15.6,15.6,0,0,0,13-5.23c5.5-5.19,10.19-11.68,11.44-19.14a6.29,6.29,0,0,1,1-3.12,4.7,4.7,0,0,1,2.07-1.25c4.12-1.42,8.8-.72,12.8-2.46,5.18-2.25,7.7-7.7,10.44-12.8.09,1,.27,1.94.42,2.9a39.31,39.31,0,0,1-.77,15.61c-.74,2.88-1.82,5.75-1.74,8.73.06,2.18,2.3,13.75,5.25,10.29s1.86-11.1,1.87-15.39A66.1,66.1,0,0,1,236,63.83c.71-1.87,1.51-3.7,2.06-5.63a27.4,27.4,0,0,1,1-3.31,17.25,17.25,0,0,1,2.4-3.7l2.11-2.71c3.94-2.08,9.3-4.21,11.39.14.81,1.67,1.23,3.51,3.3,1.89,1.24-1,1.64-2.85,2-4.28C261.58,40.17,262.66,33.09,258.52,28.51Z" transform="translate(0.01 -0.04)"/><path class="cls-4" d="M218.52,132.82c-.81-20.41-29.36-24.63-36-5.33-.05.13-.09.26-.13.39-4.36,13.08-2.47,46.18-2.47,46.18s.57,22.22,2.66,29.61,7.95,28.61,7.95,32,5.45,16.48,7.74,17.43,3.46,8.33,4,9.66,2.25,18.59,2.25,18.59,21.41-1.33,21.79-4.74-4.74-20.08-4.74-20.08-3.77-6.82-4.25-12.32-3.51-8-2.95-11.74-1.7-5.69-1.7-8.15-1.71-9.1-1.71-9.1-3.6-2.84-3-6.25-5.11-10.23-3.6-12.69,1.9-8.53,1.9-8.53,1.89-27.28,3.22-34.67,9.09-19.32,9.09-19.32S218.57,133.42,218.52,132.82Z" transform="translate(0.01 -0.04)"/><path class="cls-4" d="M217.67,252.52c-5.22,5.57-12.66,6.73-18.55,6.39-.67-2.59-1.67-5.76-3.12-6.36-2.3-1-7.74-14-7.74-17.43s-5.87-24.63-8-32-2.65-29.61-2.65-29.61-1.9-33.1,2.46-46.17a1.44,1.44,0,0,1,.13-.4c6.67-19.3,35.23-15.08,36,5.33v.94s-7.77,11.93-9.09,19.32-3.23,34.67-3.23,34.67-.38,6.07-1.89,8.53,4.17,9.29,3.6,12.7,3,6.25,3,6.25,1.7,6.63,1.7,9.09,2.28,4.36,1.71,8.15,2.47,6.25,2.95,11.75A30.49,30.49,0,0,0,217.67,252.52Z" transform="translate(0.01 -0.04)"/><path class="cls-19" d="M217.41,132.25c-.8-20.41-29.36-24.63-36-5.33a1.69,1.69,0,0,1-.13.4c-4.36,13.07-2.46,46.17-2.46,46.17s.56,22.22,2.65,29.61,8,28.61,8,32,5.44,16.48,7.74,17.43,3.45,8.33,4,9.66,2.27,18.57,2.27,18.57,21.4-1.33,21.78-4.74S220.52,256,220.52,256s-3.77-6.82-4.26-12.32-3.51-7.95-2.94-11.74-1.71-5.69-1.71-8.15-1.7-9.09-1.7-9.09-3.6-2.85-3-6.26-5.12-10.23-3.6-12.69,1.89-8.53,1.89-8.53,1.9-27.28,3.22-34.67,9.1-19.32,9.1-19.32A4.81,4.81,0,0,1,217.41,132.25Z" transform="translate(0.01 -0.04)"/><path class="cls-4" d="M182.24,184.72c.57-.57,11.37-12.5,14.78-8.24S182.24,184.72,182.24,184.72Z" transform="translate(0.01 -0.04)"/><path class="cls-4" d="M183.24,194c.42-.43,10.8-.85,13.36-6.68S183.24,194,183.24,194Z" transform="translate(0.01 -0.04)"/><g class="cls-15"><path d="M171.42,89.19a2.77,2.77,0,0,1,.57,1,4.43,4.43,0,0,0-.57-3.87c-.51-.58-1.25-.92-1.71-1.54l-.09-.16a3,3,0,0,0,.09,3C170.17,88.26,170.91,88.61,171.42,89.19Z" transform="translate(0.01 -0.04)"/><path d="M185.88,52.36V49.14c-.2-3.87-.91-7.84-1.08-11.71-.22,4.74.84,9.73,1.08,14.55C185.88,52.1,185.87,52.23,185.88,52.36Z" transform="translate(0.01 -0.04)"/><path d="M230.16,99.82c-2.63,3.09-4.69-5.79-5.15-9.29a11.34,11.34,0,0,0-.09,1.84c.06,2.18,2.29,13.75,5.24,10.29,2-2.34,2.19-6.33,2.07-10C232.13,95.42,231.65,98.08,230.16,99.82Z" transform="translate(0.01 -0.04)"/><path d="M227.42,68a37.62,37.62,0,0,1,.41,4.5,39.21,39.21,0,0,0-.41-7.34c-.15-1-.33-1.93-.41-2.9-2.74,5.1-5.27,10.55-10.44,12.8-4,1.73-8.68,1-12.81,2.46a4.44,4.44,0,0,0-2.06,1.25,6.19,6.19,0,0,0-1,3.12c-1.25,7.46-5.94,14-11.45,19.14a15.49,15.49,0,0,1-13,5.22,62.42,62.42,0,0,1-9.26-.67,6.61,6.61,0,0,1-1.39-.36,15,15,0,0,1-1.35,1.4c.16,1.17,1.58,1.63,2.74,1.8a63.8,63.8,0,0,0,9.26.68,15.54,15.54,0,0,0,13-5.23c5.51-5.19,10.2-11.68,11.45-19.14a6.19,6.19,0,0,1,1-3.12,4.61,4.61,0,0,1,2.06-1.25c4.13-1.42,8.81-.72,12.81-2.46,5.17-2.25,7.7-7.7,10.44-12.8C227.09,66.1,227.27,67.07,227.42,68Z" transform="translate(0.01 -0.04)"/><path d="M260.58,43.35c-.32,1.43-.72,3.32-1.95,4.28-2.07,1.62-2.5-.22-3.3-1.89-2.09-4.35-7.46-2.23-11.39-.14l-2.11,2.7a17.64,17.64,0,0,0-2.4,3.7,29.49,29.49,0,0,0-1,3.32c-.54,1.92-1.34,3.76-2.06,5.63A65.67,65.67,0,0,0,232,84.43v1.16a66.11,66.11,0,0,1,4.32-21.8c.72-1.87,1.52-3.7,2.06-5.63a29.33,29.33,0,0,1,1-3.31,16.65,16.65,0,0,1,2.4-3.7l2.11-2.71c3.93-2.08,9.3-4.21,11.39.14.8,1.67,1.23,3.51,3.3,1.89,1.23-1,1.63-2.85,1.95-4.28A37.26,37.26,0,0,0,261.71,36,46.79,46.79,0,0,1,260.58,43.35Z" transform="translate(0.01 -0.04)"/></g><path class="cls-11" d="M286.42,150.9l.59.41a2.32,2.32,0,0,1-.6-3.25h0l26.33-38.23a2.35,2.35,0,0,1,3.26-.6l-.58-.4a3.76,3.76,0,0,1,1,5.22h0L291.66,149.9a3.77,3.77,0,0,1-5.24,1Z" transform="translate(0.01 -0.04)"/><path class="cls-20" d="M315.52,108.87l.59.41h0l-29,42.09h0l-.6-.41a1.74,1.74,0,0,1-.44-2.42l27-39.22A1.74,1.74,0,0,1,315.52,108.87Z" transform="translate(0.01 -0.04)"/><rect class="cls-11" x="309.11" y="116.17" width="4.17" height="0.47" rx="0.17" transform="translate(38.8 306.61) rotate(-55.44)"/></g><path class="cls-21" d="M814.23,759.57l-8-25.46s-6.7-18.07-5.62-27.76-2.25-20.27-2.25-20.27l6.58-34.25s.36-3.73.34-8.65c0-8.2-1.16-19.7-6.84-22.69-9.08-4.79-27.69-45.28-31.59-45.28s-16.44-2.61-16.44-7a3.84,3.84,0,0,0,0-.48v-.15a2.24,2.24,0,0,0-.1-.35l-.06-.17-.18-.4-.06-.11a10.71,10.71,0,0,0-1.81-2.37c16.94-3.23,33.8-6.78,50.54-10.91h-.62l.62-.15a57,57,0,0,1-6.65-.46l-.49.11c-24.62-3.36-46.75-22.61-52.77-47-6.68-27,5-55.18,4.48-83a95.29,95.29,0,0,0-15.11-49.58c-1.28-2-2.64-3.92-4.06-5.8a38,38,0,0,0,14.63-55.82c-.43-.62-.88-1.22-1.34-1.81a38.11,38.11,0,0,1-6.22,47.14A37.77,37.77,0,1,0,665,320.47c-.13.22-.24.44-.36.66-.81-.36-1.62-.72-2.43-1.05a37.75,37.75,0,0,1,33.14-24.73c-.75-.05-1.49-.07-2.25-.07a37.73,37.73,0,0,0-34.79,23.26c-11.32-4.15-23.13-5.87-34.75-2.92a37.89,37.89,0,0,0-6.3,2.19l.52-.41a28.35,28.35,0,0,0-7.87,5c-3.48,3.21-5.93,7.37-8.88,11.09a47.14,47.14,0,0,1-10.55,9.58c.33-.16.66-.35,1-.52-13.4,9.48-31.61,12.21-46.93,6.11-4.3-1.72-8.45-4.07-13-4.7a19.63,19.63,0,0,0-10.29,1.5c.14-.11.27-.23.42-.34a26.93,26.93,0,0,0-10.8,8.1c-5,6.17-7.51,14-9.3,21.71a70.81,70.81,0,0,0-2,16.72c.07,7.22,1.69,14.19,6,19.84,6.68,8.66,15.8,11,25.32,12.56-.28,1-.55,1.92-.79,2.9a86,86,0,0,0,59.37,103.66l1.85,3.14.6.14c4.43,7.49,9.28,15.9,13.78,24,.24.43.47.86.71,1.28L598,563.55h0c-2.23,1.15-7.77,4.16-10.84,7.12a7.25,7.25,0,0,0-2,2.83c-1.3,4.36-8.22,15.68-13,18.72s-8.66,17.85-8.22,25.67-2.6,7-10.39,7.42,0,11.75,0,11.75l.2.76c-.36.62-.77,1.29-1.22,2-2,3.07-4.63,6.47-6.55,6.29-3.47-.33-5.63,8.16-5.41,9.46s-6.06,11.75-8.44,12.84-12.55,3.17-9.74,12.91L510,693.88l-10,9.58s-14.28-8.06-37.44,17a20.75,20.75,0,0,1,7.68.72l-.66.32c-6.1,2.89-16.66,7.82-24.47,11l-41.59,1.29v-31s-3.68-8.7-8,0l-1.09,31.32L304,737,321,719h0l.22-.24a14.83,14.83,0,0,0,3.33-14.67L253.84,482h0l-.49-1.56A12.17,12.17,0,0,0,243.4,472l-98.18-13.25-.68-.09-9,2.45a8.84,8.84,0,0,0-6.2,10.86s0,.09,0,.14c2.32,8,6.13,21.06,11,37.47H126.8l10.39,89.68,6.33,34.5Q146,647,149.19,660c5.21,21,15.52,65.79,15.75,91.77l-76,82.86v16.83H574.39a.8.8,0,0,0,.08.16H811s-2.59-4.57,3-11.1,2.82-32.43,2.82-32.43-3.14-4.14.7-13.28S814.23,759.57,814.23,759.57ZM211,740l-12.9.42-12-78.06C195,690.9,203.65,718,211,740Zm332.18,47.44-8.37-17.08a9.3,9.3,0,0,0,5.43-1.45c5.41-3.92,8.65-13.06,8.65-13.06l14.52-17.25,1.2-1.44c2.94,8.21,6.4,14.69,9.17,17.82,6.92,7.84,7.79,30.47,9.92,38.74s.47,4.79,0,9.58a12.4,12.4,0,0,0,.29,3.49C574.46,796.54,560.85,787.2,543.22,787.46Z" transform="translate(0.01 -0.04)"/><polygon class="cls-22" points="93.84 834.94 179.19 742.43 518.19 731.52 577.37 851.6 93.84 851.6 93.84 834.94"/><polygon class="cls-9" points="93.84 834.94 179.19 742.43 518.19 731.52 577.37 851.6 93.84 851.6 93.84 834.94"/><path class="cls-22" d="M535.42,827.26v3.2a6.24,6.24,0,0,1-6.24,6.24H347c-3.45,0,0-6.89,0-6.89l-2.06-45.13a7.46,7.46,0,0,1,5.62-7.56c10.14-2.56,17.12,1.55,17.12,1.55l112.88-2.87a35.64,35.64,0,0,1,7,.33,30.68,30.68,0,0,1,20.69,12.26l25.94,35.17A6.27,6.27,0,0,1,535.42,827.26Z" transform="translate(0.01 -0.04)"/><path class="cls-4" d="M535.42,830.46h0a6.24,6.24,0,0,1-6.24,6.24H347c-3.45,0,0-6.89,0-6.89s10.06-4.88,25-4l133-2.88s15.71.36,24.9,1.36A6.23,6.23,0,0,1,535.42,830.46Z" transform="translate(0.01 -0.04)"/><polygon class="cls-7" points="483.71 783.51 369.37 783.51 372.53 818.28 504.97 815.98 483.71 783.51"/><path class="cls-22" d="M289.79,808V820L170,824.9s-27.39-1.87-30.75-18.7a15.72,15.72,0,0,1,.1-5.3c1.21-7.09,7.29-19.47,34.09-25.19l33-3.39H280S289.52,781.83,289.79,808Z" transform="translate(0.01 -0.04)"/><path class="cls-4" d="M289.79,808.35V820L170,824.9s-27.39-1.87-30.75-18.7a15.72,15.72,0,0,1,.1-5.3s16.56,15.66,39,13.36l105.44-4.59Q286.82,809.16,289.79,808.35Z" transform="translate(0.01 -0.04)"/><ellipse class="cls-4" cx="197.83" cy="789.89" rx="36.83" ry="6.32" transform="matrix(1, -0.05, 0.05, 1, -40.38, 11.19)"/><path class="cls-22" d="M209.52,786.9l-19.38,9.58-20.62-4.88-.1-33.61c1.31-24.53-10-73.63-15.59-95.88q-3.22-12.9-5.65-26L141.84,602l-10.32-88.74h24.56l14.44,20.68Z" transform="translate(0.01 -0.04)"/><path class="cls-22" d="M209.52,786.9l-19.38,9.58L177.78,724.7c.24-12.23-15.09-70.29-16.09-72.68C149.47,622.85,139,513.26,139,513.26h17.09l14.43,20.64Z" transform="translate(0.01 -0.04)"/><path class="cls-23" d="M209.52,786.9l-19.38,9.58L177.78,724.7c.24-12.23-15.09-70.29-16.09-72.68C149.47,622.85,139,513.26,139,513.26h17.09l14.43,20.64Z" transform="translate(0.01 -0.04)"/><path class="cls-22" d="M325.05,720.32l-66,69.55-7.74.55-9.43.68a10.63,10.63,0,0,1-10.48-6.29c-20-45-83.94-262.59-97.4-308.68a8.73,8.73,0,0,1,5.93-10.84l.2-.06,9-2.42.67.08L246,475.79a14.63,14.63,0,0,1,12,10.06l70.38,219.93A14.65,14.65,0,0,1,325.05,720.32Z" transform="translate(0.01 -0.04)"/><path class="cls-4" d="M325.05,720.32l-66,69.55-7.74.55-9.43.68a10.63,10.63,0,0,1-10.48-6.29c-20-45-83.94-262.59-97.4-308.68a8.73,8.73,0,0,1,5.93-10.84l.2-.06,9-2.42.67.08L246,475.79a14.63,14.63,0,0,1,12,10.06l70.38,219.93A14.65,14.65,0,0,1,325.05,720.32Z" transform="translate(0.01 -0.04)"/><path class="cls-22" d="M324.82,720.56,259.05,789.9l-7.74.55-98.7-316a30.17,30.17,0,0,1-2.77-11.55L247.6,476a12.07,12.07,0,0,1,9.9,8.3l70.77,221.15A15.19,15.19,0,0,1,324.82,720.56Z" transform="translate(0.01 -0.04)"/><path class="cls-7" d="M320,708.9a14.83,14.83,0,0,1-2.66,3.3l-64.75,60.2L164.25,479.61l84.83,8.4a14.87,14.87,0,0,1,12.79,10.53L321.46,697A14.9,14.9,0,0,1,320,708.9Z" transform="translate(0.01 -0.04)"/><path class="cls-4" d="M320,708.9,249.08,488a14.87,14.87,0,0,1,12.79,10.53L321.46,697A14.9,14.9,0,0,1,320,708.9Z" transform="translate(0.01 -0.04)"/><circle class="cls-24" cx="700.28" cy="344.11" r="37.55"/><path class="cls-24" d="M662.33,338.58a37.55,37.55,0,0,1,35.31-37.49c-.74,0-1.48-.07-2.23-.07a37.56,37.56,0,0,0-1.23,75.11h1.23c.75,0,1.49,0,2.23-.07A37.55,37.55,0,0,1,662.33,338.58Z" transform="translate(0.01 -0.04)"/><path class="cls-4" d="M667.19,344.15a37.55,37.55,0,0,1,35.33-37.48c-.74,0-1.49-.07-2.24-.07a37.56,37.56,0,0,0,0,75.11,20.87,20.87,0,0,0,2.24-.08A37.54,37.54,0,0,1,667.19,344.15Z" transform="translate(0.01 -0.04)"/><path class="cls-25" d="M507,765.18a102.32,102.32,0,0,1-10.82,4.93c-9.66,3.8-24.38,8.16-38.09,6.49-23-2.8-36.84,4.74-36.84,4.74L416.08,743s17-5,23.91-6.25c5.18-1,23.87-9.61,32.84-13.84,3-1.4,4.87-2.32,4.87-2.32h17.24Z" transform="translate(0.01 -0.04)"/><path class="cls-4" d="M507,765.18a102.32,102.32,0,0,1-10.82,4.93C495,736,481.91,725.82,472.83,722.9c3-1.4,4.87-2.32,4.87-2.32h17.24Z" transform="translate(0.01 -0.04)"/><path class="cls-26" d="M570.78,650.56v84l-4.51,5.34L551.82,757s-3.23,9-8.62,12.92-17.68-1.29-17.68-1.29l-3.45,5.6s-7.75,1.51-11.41,0-12.72,4.31-12.72,4.31c1.3-61.62-32.1-56.66-32.1-56.66,23.05-24.78,37.27-16.81,37.27-16.81l9.92-9.48,12.28-12.44c-2.8-9.63,7.32-11.69,9.69-12.77s8.62-11.42,8.41-12.71,1.93-9.7,5.38-9.37c1.92.18,4.55-3.19,6.53-6.22,1.58-2.44,2.74-4.66,2.74-4.66Z" transform="translate(0.01 -0.04)"/><path class="cls-26" d="M600.61,566.59l25.4-13-1.44,15.23,5,15.3S625,596,624.41,597.26s-11.49,28.3-11.49,28.3l-8.76-11.06Z" transform="translate(0.01 -0.04)"/><polyline class="cls-4" points="604.18 614.46 600.62 566.55 626.02 553.56"/><path class="cls-25" d="M709.75,552.31s-8.44,12.14-20,27.61c-26.9,36-70.66,90-64,50.82.22-1.28.39-2.56.54-3.85-1.64,1.1-5.4.14-9.5-1.81l-.28-.13a49.2,49.2,0,0,1-5.84-3.38c-.21-.13-.41-.27-.61-.41-4.55-3.17-8.19-6.88-8-9.44,3.23-56.24,16.32-29.42,20-23.18a4.05,4.05,0,0,0,.84,1.17q-.24-.66-.54-1.38c-2.58-6.33-7.51-15.79-13.14-25.9v-.1l-.75-1.34c-4.68-8.35-9.75-17.08-14.31-24.74l-1.23-2.06c-7.2-12.08-12.8-21.09-12.8-21.09s32.71-29.92,60.28-48.1c23-15.19,42.48-22.2,36.25,3.28-4,16.38-2.83,30.39.86,42,.13.43.27.86.42,1.28a68.67,68.67,0,0,0,2.56,6.51,73.25,73.25,0,0,0,4.48,8.5A82.37,82.37,0,0,0,709.75,552.31Z" transform="translate(0.01 -0.04)"/><path class="cls-23" d="M658.9,506.9c-15.51,16.85-18.81,33-43.52,33a85.1,85.1,0,0,1-21.31-2.7c-7.79-13.1-14-23.15-14-23.15s110.22-100.79,96.53-44.82C672.42,486.14,654.89,495,658.9,506.9Z" transform="translate(0.01 -0.04)"/><path class="cls-25" d="M700.27,452.34a84.9,84.9,0,1,1-84.9-84.9h0a84.52,84.52,0,0,1,84.89,84.15Z" transform="translate(0.01 -0.04)"/><path class="cls-4" d="M613.44,599.28s1.51,24.13,16.81,22.19,3.66,51.28,3.66,51.28l-17,15.51-18.34,5.64s-16.16-4.74-15.94-5.61S589.09,637,589.09,637l9.48-26.94Z" transform="translate(0.01 -0.04)"/><path class="cls-22" d="M613.44,601s1.51,24.13,16.81,22.2,3.66,51.28,3.66,51.28l-17,15.51-18.32,5.6s-16.16-4.74-15.94-5.6,6.46-51.28,6.46-51.28l9.48-26.93Z" transform="translate(0.01 -0.04)"/><path class="cls-4" d="M570.78,650.56v84l-4.51,5.34c-4.65-12.34-8.19-29.07-6-44.11,2.85-19.94-2.83-45.46-4.89-53.73,1.58-2.44,2.74-4.66,2.74-4.66Z" transform="translate(0.01 -0.04)"/><path class="cls-4" d="M615.38,603.59a49.59,49.59,0,0,1-3.65,13.74c-.56,1.33-1.13,2.62-1.7,3.83-4.55-3.17-8.19-6.88-8-9.44,3.23-56.24,16.32-29.42,20-23.18C620.23,589.9,616.21,593.9,615.38,603.59Z" transform="translate(0.01 -0.04)"/><path class="cls-4" d="M622.31,588.33c-2.7-6.63-8-16.7-13.93-27.34l.75-.38L622.85,588A3.06,3.06,0,0,0,622.31,588.33Z" transform="translate(0.01 -0.04)"/><path class="cls-4" d="M709.75,552.31s-93.51,134.45-84,78.43c.22-1.28.39-2.56.54-3.85-1.68,1.12-5.57.1-9.78-1.94.64-3.74,1-6.3,1-6.3l10.35-29.28s6-23.27,5.17-28l.28-.19,51.46-34.55h.05A82.47,82.47,0,0,0,709.75,552.31Z" transform="translate(0.01 -0.04)"/><path class="cls-26" d="M806.71,654l-7.33,37.89-22,159.87H586.52s3.44-28,3.44-32.32-3.87-10.77-3.44-15.51,2.08-1.3,0-9.48-3-30.6-9.87-38.35-18.13-36.21-14.7-60.3-5.61-56.45-5.61-56.45-7.75-11.21,0-11.64,10.78.39,10.35-7.34S570.13,598,574.87,595s11.64-14.22,12.93-18.53a7.28,7.28,0,0,1,2-2.81c3.88-3.72,11.77-7.53,11.77-7.53l7.54-3.77v.1l13.68,27.28s-6.4,3.11-7.47,15.6a48.9,48.9,0,0,1-3.65,13.74c-.36.86-.72,1.71-1.09,2.52-1.1,2.44-2.22,4.6-3.17,6.32h0C606,630.44,605,632,605,632s-.37,2.92-.93,7h0c-1.15,8.38-3.09,21.66-4.24,24.84-1,2.82-3,7.67-4.11,12-.7,2.71-1.1,5.22-.73,6.86a1.26,1.26,0,0,0,.1.38c1.29,4,7.75-13.2,7.75-13.2s4.74-14.65,6.9-14.65c1.65,0,5.36-20.68,7-30.22.48-2.85.77-4.7.77-4.7L627.85,591s1.43-5.53,2.8-11.75c1.44-6.54,2.81-13.83,2.37-16.26l.28-.19,51.46-34.55h0l.79-.53h-.08c-.36,0-1.4-.64-3.39-5.32-.51-1.19-1.08-2.63-1.71-4.41,0,0,16.46-6.61,22.33-1.77a5,5,0,0,1,1,1.06,4,4,0,0,1,.43.71c3.88,8,5.6,14,9.48,19.18a15.62,15.62,0,0,0,1.36,1.57c4.69,4.91,14,10.66,12.43,12.22-1.72,1.72,12.93,9,12.93,9s8.57,4.9,11.26,9a4.08,4.08,0,0,1,.8,2.18c0,4.31,12.5,6.89,16.38,6.89s22.41,40.08,31.45,44.82S806.71,654,806.71,654Z" transform="translate(0.01 -0.04)"/><g class="cls-15"><path d="M613.37,589.71s-6.4,3.11-7.47,15.6a48.92,48.92,0,0,1-3.66,13.74,88.56,88.56,0,0,1-4.25,8.84h0c-1.41,2.55-2.42,4.12-2.42,4.12s-.37,2.92-.93,7h0c-1.12,8.45-3.12,21.73-4.25,24.89-1,2.82-3,7.67-4.11,12-.7,2.71-1.1,5.22-.73,6.86a1.26,1.26,0,0,0,.1.38c1.29,4,7.75-13.2,7.75-13.2s4.74-14.65,6.9-14.65c.61,0,1.51-2.86,2.48-6.94.49-3.27,1-6.54,1.33-9.28h0c.56-4.1.93-7,.93-7s.57-.88,1.45-2.4c.92-5.27,1.56-9.25,1.56-9.25l10.35-29.29s.75-2.92,1.69-6.89l-11-21.87-7.54,3.77h0Z" transform="translate(0.01 -0.04)"/><path d="M800.24,623c-9-4.74-27.57-44.82-31.45-44.82s-16.38-2.58-16.38-6.89-12.06-11.21-12.06-11.21-14.65-7.32-12.93-9c1.55-1.56-7.74-7.31-12.43-12.22a18.43,18.43,0,0,1-1.36-1.57c-3.88-5.18-5.6-11.21-9.48-19.18a5.27,5.27,0,0,0-.43-.72,5.9,5.9,0,0,0-1-1.06c-2.64-2.17-7.4-2-11.86-1.22a7.17,7.17,0,0,1,2.38,1.22,5.9,5.9,0,0,1,1,1.06,5.27,5.27,0,0,1,.43.72c3.88,8,5.6,14,9.48,19.18a16.61,16.61,0,0,0,1.37,1.53c4.69,4.91,14,10.66,12.43,12.22-1.72,1.72,12.93,9,12.93,9s12.06,6.9,12.06,11.21,12.5,6.89,16.38,6.89,22.41,40.08,31.45,44.82,6.47,31,6.47,31l-7.34,38-22,159.87h9.48l22-159.87L806.71,654S809.29,627.72,800.24,623Z" transform="translate(0.01 -0.04)"/></g><path class="cls-25" d="M423.92,743.77s-54.81-15.86-58.69,8.49,22.41,38.35,39.21,37.92,24.13-16.38,24.13-16.38Z" transform="translate(0.01 -0.04)"/><path class="cls-25" d="M698.76,818.62s-12.28,8.83-38.35,8.83-56.45,5.6-56.45,5.6S565.18,741.7,487.4,819.9c0,0-14,18.1,58.6,20,0,0,25.64-.86,31.24,11.85h145l19.83-14.85Z" transform="translate(0.01 -0.04)"/><path class="cls-22" d="M407,704.42s-3.66-8.61-8,0l-2.35,66.8L401.84,787,407,773Z" transform="translate(0.01 -0.04)"/><path class="cls-4" d="M703.72,517.34c-7.52,2.56-15.77,8.56-18.2,10.44-.45,0-2-1-5.1-9.73C680.41,518.05,699,510.58,703.72,517.34Z" transform="translate(0.01 -0.04)"/><path class="cls-26" d="M622.85,589.71s-6.4,3.11-7.47,15.6a48.9,48.9,0,0,1-3.65,13.74l-4.21,8.85h0L604.17,639h0l.35,22.68-8.76,14.18-.73,6.86L592.76,704l-11.64-5.6s4.8-34.22,8.4-41.15,8.41-43.63,8.41-43.63-.22-13.47,1.51-15.84-3-1.94-3.45-6.89c-.26-2.94-3.54-11.1-6.17-17.25,3.88-3.72,11.77-7.53,11.77-7.53l7.54-3.77Z" transform="translate(0.01 -0.04)"/><path class="cls-4" d="M622.85,589.71s-6.4,3.11-7.47,15.6a48.9,48.9,0,0,1-3.65,13.74l-4.21,8.85h0L604.17,639h0l.35,22.68-8.76,14.18-.73,6.86L592.76,704l-11.64-5.6s4.8-34.22,8.4-41.15,8.41-43.63,8.41-43.63-.22-13.47,1.51-15.84-3-1.94-3.45-6.89c-.26-2.94-3.54-11.1-6.17-17.25,3.88-3.72,11.77-7.53,11.77-7.53l7.54-3.77Z" transform="translate(0.01 -0.04)"/><path class="cls-4" d="M715,540.53c-9.61,7.86-35.45,30.16-38.42,45.32-3.66,18.69-14.65,16.88-14.65,16.88-13.73-29.78-23.18-37.08-28.59-38.11l51.46-34.56h.05l.79-.53h-.11c-.36,0-1.4-.63-3.39-5.31L702.75,518a5,5,0,0,1,1,1.06,4.63,4.63,0,0,1,.43.71c3.88,8,5.6,14,9.48,19.18A17.82,17.82,0,0,0,715,540.53Z" transform="translate(0.01 -0.04)"/><path class="cls-26" d="M715,538.8c-9.61,7.86-35.45,30.17-38.42,45.33C672.91,602.81,661.92,601,661.92,601c-13.73-29.77-23.18-37.1-28.59-38.1l51.46-34.55h.05l.79-.53h-.11c-.36,0-1.4-.64-3.39-5.32l20.62-6.18a5,5,0,0,1,1,1.06,4,4,0,0,1,.43.71c3.88,8,5.6,14,9.48,19.18A16.2,16.2,0,0,0,715,538.8Z" transform="translate(0.01 -0.04)"/><path class="cls-4" d="M656.75,689.77c.64-.21,34.22-19.22,30.36-4.76S656.75,689.77,656.75,689.77Z" transform="translate(0.01 -0.04)"/><path class="cls-4" d="M511.52,708s17.66,27.47,23.91,26.61S511.52,708,511.52,708Z" transform="translate(0.01 -0.04)"/><path class="cls-4" d="M533.52,697.75s1.08,21.33,10.35,22.83S533.52,697.75,533.52,697.75Z" transform="translate(0.01 -0.04)"/><path class="cls-4" d="M631.52,766.26s21.94,36.5,17.67,49.13Z" transform="translate(0.01 -0.04)"/><path class="cls-4" d="M657,770.57s29.68,39,24.54,42.23S657,770.57,657,770.57Z" transform="translate(0.01 -0.04)"/><path class="cls-4" d="M590.23,708s-3.05,27.73,8.4,35.79Z" transform="translate(0.01 -0.04)"/><path class="cls-4" d="M723.33,584.63S672.52,624.06,680.66,665s16,44,16,44,3,16.37,8.62,23.27S710,743.64,710,743.64s5.17-2.37,6.89,9.48,10.77,20.25,10.77,20.25,3,9.48-4.74,14.65-6,10.78-6,10.78l-31.46,18.31,35,34.69H811s-2.59-4.52,3-11,2.81-32.1,2.81-32.1-3.13-4.1.7-13.15-3.29-34.9-3.29-34.9l-8-25.21s-6.68-17.88-5.6-27.47-2.2-20.07-2.2-20.07l-17.37-54.8S781.93,578.38,723.33,584.63Z" transform="translate(0.01 -0.04)"/><path class="cls-26" d="M725.05,584.63S674.2,624.06,682.39,665s15.94,44,15.94,44,3,16.37,8.62,23.27,4.74,11.42,4.74,11.42,5.17-2.37,6.9,9.48,10.77,20.25,10.77,20.25,3,9.48-4.74,14.65-6,10.78-6,10.78l-31.46,18.31,35.12,34.69h90.49s-2.58-4.52,3-11,2.8-32.1,2.8-32.1-3.13-4.1.7-13.15-3.29-34.9-3.29-34.9l-8-25.21s-6.68-17.88-5.6-27.47-2.22-20.07-2.22-20.07l-17.37-54.8S783.65,578.38,725.05,584.63Z" transform="translate(0.01 -0.04)"/><path class="cls-4" d="M742.07,612.42s36.2,12.28,45.89,18.32S773.74,606.82,742.07,612.42Z" transform="translate(0.01 -0.04)"/><path class="cls-4" d="M761,798.8s51.49,6.46,48.49,16.59S761,798.8,761,798.8Z" transform="translate(0.01 -0.04)"/><path class="cls-4" d="M750.94,809.78s37.67,12.07,31,22S750.94,809.78,750.94,809.78Z" transform="translate(0.01 -0.04)"/><path class="cls-4" d="M751.61,569.09c-20.55,4-41.2,7.42-61.86,10.83l-5.38.89c-11.36,1.87-22.79,3.75-34.31,3.69-5.61,0-11.39-.58-16.37-3.18a17.6,17.6,0,0,1-3-2c-3.49-2.8-6-6.87-5.94-11.29.06-8.06,7.71-13.65,14.29-18.31,9.63-6.83,19.14-15.5,22.86-26.39a30.16,30.16,0,0,0,1.45-6.3c1.1-9.25-2.27-18.38-5.86-27-3.92-9.35-9.3-19.4-17.16-25.08a23.59,23.59,0,0,0-10.81-4.37c-12.08-1.6-23.51,7-35.68,6.52-9.89-.43-18.29-6.78-24.24-14.25-4.33-5.44-7.07-12.72-13.59-16-7.06-3.51-15.09-4.34-22.94-5.51a84.9,84.9,0,1,1,144.34,78.87c.13.43.27.86.42,1.28a68.67,68.67,0,0,0,2.56,6.51s16.46-6.61,22.33-1.77a5,5,0,0,1,1,1.06,4,4,0,0,1,.43.71c3.88,8,5.6,14,9.48,19.18A15.62,15.62,0,0,0,715,538.8c4.69,4.91,14,10.66,12.43,12.22-1.72,1.72,12.93,9,12.93,9S748.92,565,751.61,569.09Z" transform="translate(0.01 -0.04)"/><path class="cls-24" d="M508.67,416.09c-7.66-9.88-6.83-23.84-4-36,1.78-7.67,4.31-15.38,9.27-21.49s12.77-10.39,20.58-9.33c4.57.62,8.7,3,13,4.65,19.3,7.64,43.24,1.29,56.22-14.92,2.94-3.67,5.37-7.79,8.85-11a31.48,31.48,0,0,1,13.58-6.85c21.72-5.48,44.12,5.31,62.7,17.82,15.86,10.68,30.94,23.15,41.35,39.18a93.93,93.93,0,0,1,15,49.07c.53,27.6-11.11,55.44-4.45,82.22,6.57,26.45,32.4,46.81,59.65,47-37.42,9.18-75.48,15.47-113.49,21.74-11.37,1.88-22.79,3.76-34.31,3.69-5.61,0-11.4-.58-16.37-3.18s-9-7.65-9-13.26c.06-8.07,7.72-13.65,14.29-18.31,11.42-8.1,22.67-18.79,24.32-32.69,1.1-9.25-2.27-18.39-5.87-27-5.49-13.1-13.86-27.61-27.94-29.49-12.07-1.61-23.51,7-35.68,6.51-9.88-.43-18.29-6.78-24.24-14.25-4.33-5.44-7.07-12.72-13.58-15.95C542.46,426.29,521.23,432.28,508.67,416.09Z" transform="translate(0.01 -0.04)"/><path class="cls-24" d="M728.75,365.75a37.56,37.56,0,0,0,10.66-50.38c.46.58.9,1.18,1.33,1.79a37.56,37.56,0,0,1-61,43.77c-.23-.31-.45-.63-.66-.95-.42-.62-.83-1.25-1.21-1.88A37.55,37.55,0,0,0,728.75,365.75Z" transform="translate(0.01 -0.04)"/><g class="cls-15"><path d="M609.76,335.37c2.94-3.68,5.37-7.8,8.85-11a22.91,22.91,0,0,1,1.79-1.47,27.81,27.81,0,0,0-7.82,4.91c-3.48,3.18-5.91,7.3-8.85,11a46.23,46.23,0,0,1-10.49,9.54A47.43,47.43,0,0,0,609.76,335.37Z" transform="translate(0.01 -0.04)"/><path d="M693,574.61c-11.36,1.87-22.79,3.75-34.31,3.68-5.61,0-11.39-.57-16.37-3.17s-9-7.65-8.95-13.27c.06-8.06,7.71-13.64,14.29-18.31,11.42-8.1,22.66-18.79,24.31-32.69,1.1-9.24-2.27-18.39-5.87-27-5.49-13.1-13.85-27.62-27.94-29.49-12.07-1.61-23.5,7-35.67,6.5-9.88-.42-18.29-6.77-24.24-14.24-4.34-5.44-7.08-12.72-13.59-15.95-16.16-8-37.39-2-50-18.22-7.66-9.88-6.82-23.85-4-36,1.78-7.67,4.31-15.38,9.26-21.5a28,28,0,0,1,4.72-4.57,26.84,26.84,0,0,0-10.75,8c-5,6.11-7.49,13.83-9.27,21.49-2.83,12.18-3.66,26.15,4,36,12.56,16.19,33.79,10.2,50,18.22,6.51,3.24,9.25,10.52,13.58,16,6,7.46,14.36,13.82,24.24,14.24,12.17.52,23.61-8.12,35.68-6.51,14.08,1.88,22.45,16.39,27.94,29.5,3.6,8.58,7,17.72,5.87,27-1.65,13.9-12.9,24.59-24.32,32.69-6.57,4.66-14.23,10.25-14.29,18.31,0,5.61,4,10.67,9,13.27s10.76,3.14,16.37,3.17c11.52.07,23-1.81,34.31-3.69,38-6.27,76.07-12.55,113.49-21.74a56.49,56.49,0,0,1-6.62-.46C760.52,563.46,726.73,569,693,574.61Z" transform="translate(0.01 -0.04)"/></g><ellipse class="cls-25" cx="410.73" cy="755.44" rx="16.4" ry="8.96"/><path class="cls-27" d="M681.7,89.12c-18.25-4.87-36.68-9.76-55.56-10.54s-38.49,2.88-53.9,13.8c-7.71,5.46-14.11,12.53-20.6,19.41A668.15,668.15,0,0,1,437,208.73c-16.81,11.23-34.78,21.94-54.81,24.73s-42.66-4.15-53-21.51l6.16-3.16" transform="translate(0.01 -0.04)"/><path class="cls-22" d="M842.81,62.84H713.58a9.23,9.23,0,0,1-9.23-9.23V35.15a9.23,9.23,0,0,1,9.21-9.25H842.81A9.23,9.23,0,0,1,852,35.13V53.61A9.23,9.23,0,0,1,842.81,62.84ZM829,37.46a6.92,6.92,0,1,0,6.93,6.92A6.92,6.92,0,0,0,829,37.46Zm-18.46,0a6.92,6.92,0,1,0,6.92,6.92h0a6.92,6.92,0,0,0-6.9-6.92ZM842.81,109H713.58a9.24,9.24,0,0,1-9.23-9.24V81.3a9.23,9.23,0,0,1,9.23-9.23H842.81A9.23,9.23,0,0,1,852,81.3V99.76A9.24,9.24,0,0,1,842.81,109ZM829,83.61a6.93,6.93,0,1,0,6.93,6.93h0A6.92,6.92,0,0,0,829,83.61Zm-18.46,0a6.93,6.93,0,1,0,6.92,6.94v0a6.92,6.92,0,0,0-6.9-6.92Zm32.31,71.54H713.58a9.23,9.23,0,0,1-9.23-9.23V127.46a9.23,9.23,0,0,1,9.23-9.23H842.81a9.23,9.23,0,0,1,9.23,9.23V145.9a9.23,9.23,0,0,1-9.21,9.25ZM829,129.76a6.93,6.93,0,1,0,6.93,6.93h0a6.92,6.92,0,0,0-6.91-6.93Zm-18.46,0a6.93,6.93,0,1,0,6.92,6.94h0a6.91,6.91,0,0,0-6.9-6.93Z" transform="translate(0.01 -0.04)"/><path class="cls-27" d="M863.73,87.55c8.29-.89,17.16-.64,24.27,3.73,7.53,4.63,11.88,13.27,13.34,22s.44,17.65-.6,26.43l-5.6,47.36c-.79,6.63-1.55,13.53.6,19.86s8.1,11.89,14.75,11.3" transform="translate(0.01 -0.04)"/><path class="cls-27" d="M322.09,489.6c21.35.53,45.42,0,60.17-15.44,11.2-11.72,13.83-28.89,17.6-44.66,6.81-28.47,19.19-55.87,38-78.32s44.2-39.75,72.62-46.73c22.84-5.62,46.86-4.56,69.82-9.61s46.54-18.66,52.89-41.3" transform="translate(0.01 -0.04)"/><path class="cls-28" d="M680,204l-57.61,21a1.12,1.12,0,0,0-.65,1.46,1.09,1.09,0,0,0,.43.54l8.6,4.77a2.18,2.18,0,0,1,1,1.3l4.93,15.6c0,.66,1.2,1,1.31.36l.69-12.2a4.41,4.41,0,0,1,1.33-2.29l31.66-23a.74.74,0,0,1,.63-.08.63.63,0,0,1,.2,1.06l-28.15,25.67a5.39,5.39,0,0,0-1.29,2.26l-3,10.19c0,.92.64,1.37,1.34.64l6-5.27a1.09,1.09,0,0,1,1.54,0h0l11.82,11.6a1.08,1.08,0,0,0,1.53,0,1,1,0,0,0,.25-.4l18.71-51.72a1.1,1.1,0,0,0-.61-1.42,1.13,1.13,0,0,0-.77,0Z" transform="translate(0.01 -0.04)"/></svg>
