<svg id="_813c2686-e70f-4fb0-bf6b-a2eb7b1db384" data-name="813c2686-e70f-4fb0-bf6b-a2eb7b1db384" xmlns="http://www.w3.org/2000/svg" xmlns:xlink="http://www.w3.org/1999/xlink" width="1121.04" height="851.8" viewBox="0 0 1121.04 851.8"><defs><style>.cls-1{opacity:0.9;}.cls-2,.cls-28,.cls-31,.cls-32,.cls-7{fill:#1bb1dc;}.cls-10,.cls-15,.cls-2,.cls-4{opacity:0.1;}.cls-10,.cls-2,.cls-23,.cls-27,.cls-28,.cls-29,.cls-30,.cls-31,.cls-32,.cls-4,.cls-9{isolation:isolate;}.cls-3{fill:#3f3d56;}.cls-5{fill:#fbbebe;}.cls-6{fill:#65617d;}.cls-8{fill:#b2b1bb;}.cls-14,.cls-29,.cls-9{opacity:0.2;}.cls-10{fill:#ccc;}.cls-11{fill:#464353;}.cls-12{fill:#333f4f;}.cls-13{fill:#2d394a;stroke:#40868e;}.cls-13,.cls-27{stroke-miterlimit:10;}.cls-16{fill:url(#linear-gradient);}.cls-17{fill:#a1616a;}.cls-18{fill:#ff748e;}.cls-19,.cls-30{fill:#5e5a6b;}.cls-20{fill:#9f9eff;}.cls-21{fill:url(#linear-gradient-2);}.cls-22{fill:#514e7f;}.cls-23{opacity:0.15;}.cls-24{fill:#945b79;}.cls-25{fill:#ffc1c7;}.cls-26{fill:#ff6584;}.cls-27{fill:none;stroke:#000;stroke-width:0.75px;stroke-dasharray:12;opacity:0.3;}.cls-28{opacity:0.5;}.cls-29{font-size:63.09px;}.cls-29,.cls-30,.cls-31,.cls-32{font-family:MyriadPro-Bold, Myriad Pro;font-weight:700;}.cls-30{font-size:63.09px;}.cls-31{font-size:63.09px;}.cls-32{font-size:44.64px;}</style><linearGradient id="linear-gradient" x1="1642.23" y1="436.1" x2="1642.23" y2="16.19" gradientTransform="matrix(-1, 0, 0, 1, 1864.72, -16.1)" gradientUnits="userSpaceOnUse"><stop offset="0" stop-color="gray" stop-opacity="0.25"/><stop offset="0.54" stop-color="gray" stop-opacity="0.12"/><stop offset="1" stop-color="gray" stop-opacity="0.1"/></linearGradient><linearGradient id="linear-gradient-2" x1="493.19" y1="867.9" x2="493.19" y2="311.2" gradientTransform="translate(-39.48 -16.1)" xlink:href="#linear-gradient"/></defs><g class="cls-1"><path class="cls-2" d="M1119.8,402.7v.2c0,.3-.1.6-.1.9-.4,2.4-.8,4.7-1.3,7.1-3.6,16.2-11,32.2-20.9,46.7-.4.6-.8,1.1-1.2,1.7-.8,1.1-1.5,2.2-2.3,3.2-.6.7-1.1,1.5-1.7,2.2a189.56,189.56,0,0,1-12.5,14.4c-2.4,2.5-5,4.8-7.5,7.1l-1.1,1c-1.4,1.2-2.8,2.4-4.2,3.5l-1.8,1.5-1.1.8-.8.6-2.1,1.5-.5.3c-1.7,1.2-3.3,2.3-5.1,3.5a114.23,114.23,0,0,1-11.3,6.5c-1.8.9-3.6,1.8-5.4,2.6-2.2,1-4.4,1.9-6.7,2.7a13.36,13.36,0,0,0-1.8.7c-1.7.6-3.4,1.1-5.2,1.6l-.9.3-.4.1h0l-1.1.3a139.57,139.57,0,0,1-15.6,3.3l-.9.1-.4.1a195.43,195.43,0,0,1-20,1.8,252.27,252.27,0,0,1-27.5,0l-2.5-.2h-.5c-1.7-.1-3.5-.3-5.2-.5l-3-.3-4.5-.6h-.1l-1.5-.2c-1.3-.2-2.6-.4-3.9-.7l-1.3-.2-2-.4-.4-.1a123.46,123.46,0,0,1-12.3-3.3l-.9-.3c-2.9-1-5.8-2.1-8.6-3.2-2.1-.9-4.1-1.9-6.2-2.9-2.9-1.5-5.7-3-8.4-4.7-3.8-2.3-7.5-4.9-11.1-7.6-4.7-3.5-9.2-7.3-13.6-11.2l-.9-.8-1.7-1.5a268.17,268.17,0,0,1-56.1-71.4c-1.5-2.8-3-5.7-4.4-8.7-.4-.9-.9-1.8-1.3-2.7,0-.1-.1-.1-.1-.2l-.7-1.4c-1.8-3.9-3.5-7.9-5.1-11.9l-.7-1.8-1.1-2.9-.5-1.2q-2.1-5.55-3.9-11.4c-.2-.7-.4-1.3-.6-2l-1.8-6.3c-.5-1.9-1-3.9-1.5-5.9a2.92,2.92,0,0,1-.2-.9c-4-16.9-5.7-35.1-1.7-53.6.3-1.3.6-2.5.9-3.8.5-1.9,1-3.7,1.7-5.6.1-.4.3-.9.4-1.3l.2-.5c0-.1.1-.2.1-.3s.1-.1.1-.2c.3-.9.7-1.8,1.1-2.8s.8-1.9,1.2-2.8h0l.1-.1c0-.1.1-.2.2-.4.3-.7.7-1.4,1-2.1l.4-.7.1-.4a10.91,10.91,0,0,1,.6-1.1,89,89,0,0,1,9.7-14.7,90.88,90.88,0,0,1,6.6-7.2,69.58,69.58,0,0,1,11.6-9.3c.7-.4,1.3-.8,1.9-1.2a48.51,48.51,0,0,1,17.4-6.3c7.9-1.1,15.4.2,22.6,1.9l.7.2c1.2.3,2.4.6,3.7.9,4.2,1.1,8.5,2.2,12.8,3.1,4,.9,8,1.6,12.1,2.2a88.14,88.14,0,0,0,12.5.7,12.1,12.1,0,0,0,1.9-.1,69.82,69.82,0,0,0,22.5-4.9,42.42,42.42,0,0,0,14.6-9.7,28.48,28.48,0,0,0,2.3-2.6h0a32.65,32.65,0,0,0,3.2-5c.3-.5.5-1.1.8-1.6h0l.3-.6h0l1.5-3h0c.1-.1.1-.2.2-.3.7-1.4,1.5-2.8,2.2-4.2a82.47,82.47,0,0,1,10.8-15.9h0a44.07,44.07,0,0,1,16.1-11.5c1-.4,2-.8,3.1-1.2a47.58,47.58,0,0,1,14.5-2.6h1.7a47,47,0,0,1,14.4,2.6h0a73.19,73.19,0,0,1,19.8,10.3,134.12,134.12,0,0,1,24.8,22.8c.6.7,1.2,1.4,1.7,2.1a175.77,175.77,0,0,1,16.6,24.5c14.5,25.6,23.9,55.6,30.8,86.2l.3,1.5c.2.7.3,1.4.5,2.1.3,1.5.6,3,.9,4.4.2,1.1.5,2.2.7,3.3h0c.2.8.3,1.6.5,2.4l.3,1.5a227.86,227.86,0,0,1,3.6,24.8,2.77,2.77,0,0,0,.1.9A133.86,133.86,0,0,1,1119.8,402.7Z" transform="translate(0.02 -0.78)"/><path class="cls-3" d="M1046.9,484c-1.1-.3-3,1-5.4,3.1q-1.8,1.5-3.9,3.6l-.7.7-.3.3c-1.9,1.8-3.9,3.8-6.1,5.8-1.4,1.3-2.8,2.5-4.2,3.8-1.9,1.7-3,6.2-3.5,12.4a139.57,139.57,0,0,1-15.6,3.3l-.9.1-.4.1c-.3-1.9-.5-3.1-.5-3.1s-9-7.5-6.4-16.9c1.5-5.4,16.3-15.5,28.6-23.1,1.5-.9,3-1.8,4.4-2.7l.9-.5c.6-.3,1.1-.7,1.7-1l4.1-2.4,5.6-3.2.3-.2C1044.4,464.1,1049.7,484.7,1046.9,484Z" transform="translate(0.02 -0.78)"/><path class="cls-4" d="M1046.9,484c-1.1-.3-3,1-5.4,3.1q-1.8,1.5-3.9,3.6l-.7.7-.3.3c-1.9,1.8-3.9,3.8-6.1,5.8-1.4,1.3-2.8,2.5-4.2,3.8-1.9,1.7-3,6.2-3.5,12.4a139.57,139.57,0,0,1-15.6,3.3l-.9.1-.4.1c-.3-1.9-.5-3.1-.5-3.1s-9-7.5-6.4-16.9c1.5-5.4,16.3-15.5,28.6-23.1,1.5-.9,3-1.8,4.4-2.7l.9-.5c.6-.3,1.1-.7,1.7-1l4.1-2.4,5.6-3.2.3-.2C1044.4,464.1,1049.7,484.7,1046.9,484Z" transform="translate(0.02 -0.78)"/><path class="cls-3" d="M1044.7,472.7s-1.8,1.9-4.7,4.9c-1.2,1.2-2.6,2.7-4.1,4.3l-.1.1-.8.8-5.7,6c-10.2,10.9-21.8,23.7-21.8,25.8a5.45,5.45,0,0,1-.5,2.2l-.9.1-.4.1a195.43,195.43,0,0,1-20,1.8,252.27,252.27,0,0,1-27.5,0l-2.5-.2h-.5c-1.7-.1-3.5-.3-5.2-.5l-3-.3c1.2-1.6,2.4-3.4,3.6-5.1,2.5-3.5,4.9-7.2,6.9-10.5l.3-.6c1.2-2,2.3-3.9,3.1-5.5a14.8,14.8,0,0,0,1.6-4.6,27,27,0,0,1,1.8-5.7c4.4-11.2,15.9-34,22.4-46.6l.6-1.1.6-1.1c2.1-4,3.4-6.6,3.4-6.6l15.8-4.2,1-.3,3.5-.9,1.3-.4,7.4-2h.1l.3-.1,7.9-2.1,2.6-.7,3-.8,7.6,13,2.2,32.3Z" transform="translate(0.02 -0.78)"/><path class="cls-4" d="M937.3,516.3c-3.1-4-4.9-6.4-4.9-6.4s4.4-1.1,10.1-2.7c2.9-.8,6.2-1.8,9.4-2.8,2-.7,4-1.4,5.9-2.1,1-.4,1.9-.7,2.8-1.1,4.1-1.7,7.2-3.5,7.9-5.1a3.13,3.13,0,0,0-.2-1.9,47.66,47.66,0,0,0-3.7-8.3c-.5-1-1.1-2.1-1.7-3.2-2-3.6-4.4-7.8-7-12.2q-3.3-5.55-6.9-11.4c-2.1-3.4-4.2-6.8-6.3-10.1-.1-.1-.1-.2-.2-.3-9.5-15.1-18.1-28-18.4-28.5h0l-5.6,13.5-.2.2-9.2,8.2-.2.2c-2.9,2.5-6.2,5.5-9.5,8.5-2.5,2.2-5,4.5-7.3,6.6-3.4,3.1-6.6,6-9.2,8.3a70.49,70.49,0,0,0-6.2,6,61,61,0,0,0-4,10.8c4.4,3.9,8.9,7.7,13.6,11.2q5.4,4.05,11.1,7.5c2.7,1.7,5.5,3.2,8.4,4.7,2,1,4.1,2,6.2,2.9a88.87,88.87,0,0,0,8.6,3.2l.9.3a123.46,123.46,0,0,0,12.3,3.3l.4.1,2,.4Z" transform="translate(0.02 -0.78)"/><path class="cls-3" d="M1014,421.5l-.9,1.4c-.4.6-.8,1.3-1.4,2.2s-1.4,2.1-2.2,3.5l-.6,1c-1.5,2.3-3.2,4.9-5,7.8-.2.4-.5.7-.7,1.1s-.5.7-.7,1.1c-12,18.8-29.7,46.7-34.2,54.7a11.4,11.4,0,0,0-1,1.9c-.6,1.4-3.1,3-6.7,4.6-.8.4-1.6.7-2.5,1.1-1.9.8-4.1,1.5-6.2,2.2-3.2,1.1-6.4,2-9.4,2.9-6.3,1.8-11.2,3-11.2,3s1.7,2.3,4.7,6.2l-2-.4-.4-.1a123.46,123.46,0,0,1-12.3-3.3l-.9-.3c-2.9-1-5.8-2.1-8.6-3.2-2.1-.9-4.1-1.9-6.2-2.9-2.9-1.5-5.7-3-8.4-4.7-3.8-2.3-7.5-4.9-11.1-7.6-4.7-3.5-9.2-7.3-13.6-11.2l-.9-.8a71,71,0,0,1,3.8-10,89.39,89.39,0,0,1,7.2-6.9c2.7-2.4,5.8-5.3,9.2-8.3l7.3-6.6,8.7-7.8.2-.2,9-8,.2-.2,5.6-13.5h1.1l20.5.3h3.2l6.4.1,7.6.1,8.9.1,34.9.5h1.1l6.6.1Z" transform="translate(0.02 -0.78)"/><path class="cls-5" d="M1014.6,282.2l-3.4,30.7s-34.6,13.8-35.5,13.5-23.1-20.3-19.4-33.5c1.8-6.6,2.7-15.8,3.1-23.3s.3-13.2.3-13.2,50.4-18,45.9-5.6c-1.6,4.5-.9,9.9.7,14.9A70.94,70.94,0,0,0,1014.6,282.2Z" transform="translate(0.02 -0.78)"/><path class="cls-4" d="M1006.3,265.6a9,9,0,0,1-.9,1,33.75,33.75,0,0,1-46,2.9c.4-7.5.3-13.2.3-13.2s50.4-18,45.9-5.6C1004,255.1,1004.7,260.5,1006.3,265.6Z" transform="translate(0.02 -0.78)"/><path class="cls-5" d="M1014.6,242.3a33.55,33.55,0,1,1,0-.5Z" transform="translate(0.02 -0.78)"/><path class="cls-4" d="M972.9,314s-13.2-29.3-17.7-29.3-11.5,151.6-11.5,151.6l69,1.1,2.8-79.6-14.1-70.6S988.7,315.1,972.9,314Z" transform="translate(0.02 -0.78)"/><path class="cls-4" d="M972.9,316.3S959.7,287,955.2,287s-11.5,151.7-11.5,151.7l78.2,1.2-6.5-79.7-14.1-70.6C1001.4,289.5,988.7,317.4,972.9,316.3Z" transform="translate(0.02 -0.78)"/><path class="cls-6" d="M972.9,315.1s-13.2-29.3-17.7-29.3-11.5,151.6-11.5,151.6l78.2,1.2-6.5-79.8-14.1-70.6C1001.4,288.3,988.7,316.2,972.9,315.1Z" transform="translate(0.02 -0.78)"/><path class="cls-4" d="M960.1,276.6s-2.4-3.5-5.7-2.3-5.9-2-9.3,1.1-16.9,7.3-19.4,5.9-11.5,4.8-13.5,8.5-8.5,13.5-8.5,13.5-5.6,6.8-4.8,10.4-2,7.9-5.3,9.6-10.1,18.6-10.1,18.6,1.8,22.6-5.8,26.5-2,21.1-2,21.1l35.9-8.5,10.2-23.1s-3.9,67.5-8.7,73.7-5.3,10.1-5.3,10.1,18.6,3.9,22.5,7.3,14.4-.8,14.4-.8l10.1-89.8s3.7-16.9,3.7-25.6S960.1,276.6,960.1,276.6Z" transform="translate(0.02 -0.78)"/><path class="cls-7" d="M959,276.6s-2.4-3.5-5.8-2.3-5.9-2-9.3,1.1-16.9,7.3-19.4,5.9-11.5,4.8-13.5,8.5-8.4,13.5-8.4,13.5-5.6,6.8-4.8,10.4-2,7.9-5.3,9.6-10.1,18.6-10.1,18.6,1.8,22.6-5.8,26.5c-1.9,1-3,3.2-3.5,5.9-2.2,11,6.9,21.1,18.1,20.8l19.3-8,10.1-29.2s-3.9,67.5-8.7,73.7-5.3,10.1-5.3,10.1,18.6,3.9,22.5,7.3,14.3-.8,14.3-.8l10.1-89.8s3.7-16.9,3.7-25.6S959,276.6,959,276.6Z" transform="translate(0.02 -0.78)"/><path class="cls-4" d="M896.9,325.5s3.4,9.3,12.7,8.5S896.9,325.5,896.9,325.5Z" transform="translate(0.02 -0.78)"/><path class="cls-4" d="M906,311.4s6.2,1.1,8.4,6.5S906,311.4,906,311.4Z" transform="translate(0.02 -0.78)"/><path class="cls-4" d="M923.4,301.9c0,1.1,3.9,20.8,0,29s-3.4,17.7-3.4,17.7Z" transform="translate(0.02 -0.78)"/><path class="cls-4" d="M1006.5,269.8s2.2-2.6,4.5-2.3,3.7,1.7,6.5,2.8,9.6,1.4,9.6,2.2,5.9,4.2,9.9,5.1,16.3,9.3,19.4,25.6,8.4,21.1,8.4,21.1L1035,338.9s23.1,98,25.9,105,3.1,48.7,3.1,48.7-18.3,8.2-23.1,10.7-2.8-24.2-12.7-39.7-21.1-38-21.1-38l-17.2-48.1s-11-64.2-1.7-76S1007.3,274.1,1006.5,269.8Z" transform="translate(0.02 -0.78)"/><path class="cls-7" d="M1065,492.1v.6l-1.1.5-.8.3-7.6,3.5c-4.2,1.9-8.8,4-11.7,5.5-.7.3-1.3.7-1.8.9a1.08,1.08,0,0,1-1.1,0c-1.5-1-2.2-6.1-3.2-12.7-.4-2.7-.9-5.7-1.6-8.8-.1-.5-.2-1-.3-1.4a62.59,62.59,0,0,0-2.9-9.6,36.05,36.05,0,0,0-3.5-7.1c-1.3-2-2.6-4.2-3.9-6.4-3.5-5.9-7-12.2-9.9-17.6a10.91,10.91,0,0,0-.6-1.1q-1.05-2.1-2.1-3.9c-1.3-2.5-2.4-4.6-3.2-6.2l-1.3-2.5c0-.1-.1-.2-.1-.3l-1.6-4.3-3-8.4-3.5-9.8-1.7-4.6-1.2-3.4-.4-1.1L991,377.6s-.4-2.4-1-6.4c-1.6-10.4-4.4-31.7-4.4-48.3a97.07,97.07,0,0,1,.7-12.1c.1-.4.1-.9.2-1.3a5.9,5.9,0,0,0,.2-1.4,15.37,15.37,0,0,1,2.6-6.5c9.3-11.8,19.2-27.5,18.3-31.7l.2-.2a17.41,17.41,0,0,1,1.4-1.2,7.22,7.22,0,0,1,2-.9h.9c2.2.3,3.7,1.7,6.5,2.8s9.6,1.4,9.6,2.2,5.9,4.2,9.8,5.1,16.3,9.3,19.4,25.6c3,15.7,8.1,20.7,8.4,21.1h0l-1.1.5-16.9,8.3-3.6,1.8-8.2,4s2.1,9.1,5.2,21.9a4.33,4.33,0,0,0,.1.5l.3,1.2c2.2,9.4,4.9,20.6,7.6,31.6h0l.2,1,.8,3.2c.2,1,.5,2,.7,3l.4,1.6c.7,3.1,1.5,6.1,2.2,9,1.1,4.3,2.1,8.4,3,12.2,2.6,10.4,4.6,18,5.3,19.7,1,2.6,1.7,9.8,2.2,18C1064.8,474.5,1064.9,489.1,1065,492.1Z" transform="translate(0.02 -0.78)"/><path class="cls-4" d="M1068.6,393.1c-.8.1-1.9.3-3.1.4-9,.8-26.7,1-26.7,1s-13.2-26.2-24.5-25.3c0,0,10.4-11.8,14.6-10.4.7.2,1.1-.3,1.4-1.3,1.1-5-2.8-22.4-2.8-22.4l-5.3-23.4,31,7.6c2.8.6,11.5,5.1,11.5,5.1s.3,12.1,2.5,14.9,4.8,16.3,4.5,19.7,3.1,19.1-.3,23.4S1075.7,391.9,1068.6,393.1Z" transform="translate(0.02 -0.78)"/><path class="cls-7" d="M1069.8,393.1c-.8.1-1.9.3-3.1.4-9,.8-26.7,1-26.7,1s-13.2-26.2-24.5-25.3c0,0,10.4-11.8,14.6-10.4.7.2,1.2-.3,1.4-1.3,1.1-5-2.8-22.4-2.8-22.4l-5.3-23.4,31,7.6c2.8.6,11.5,5.1,11.5,5.1s.3,12.1,2.5,14.9,4.8,16.3,4.5,19.7,3.1,19.1-.3,23.4S1076.8,391.9,1069.8,393.1Z" transform="translate(0.02 -0.78)"/><path class="cls-4" d="M1038,331.7s25.9,2.8,27,9.3S1038,331.7,1038,331.7Z" transform="translate(0.02 -0.78)"/><path class="cls-4" d="M1014.6,242.3a34,34,0,0,1-9.2,23.2.35.35,0,0,1-.1-.2c-1-2.1-2-4.4-1.9-6.7.1-2.8,1.7-5.4,2.2-8.2.7-3.5-.5-7.1-1.6-10.5-.8-2.5-2.4-5.5-5.1-5.2a7.77,7.77,0,0,1-1.6.2c-1.4-.2-1.7-2-1.8-3.4a15.6,15.6,0,0,0-12.7-13.4,4.12,4.12,0,0,0-2.2.1c-1,.4-1.5,1.5-2.4,2.1-2.9,2-6.5-1.8-10-1.5-3,.2-4.8,3.3-6,6s-2.7,5.8-5.6,6.4a2.2,2.2,0,0,1-1.4-.1c-.9-.7-.3-2,.2-3.1,1.2-2.7.4-4.8-1.1-6.7a33.92,33.92,0,0,1,60.3,21Z" transform="translate(0.02 -0.78)"/><path class="cls-8" d="M905.6,505.9c-2.9-1.5-5.7-3-8.4-4.7-3.8-2.3-7.5-4.9-11.1-7.6l-3.5-28-.1-.9L876,411.4l-.4-3.1,10.9-.3,7.7-.2.5,4.5,4.4,37.5.1.9Z" transform="translate(0.02 -0.78)"/><path class="cls-4" d="M897.2,501.2c-3.8-2.3-7.5-4.9-11.1-7.6l-3.5-28-.1-.9L876,411.4l-.4-3.1,10.9-.3-.5,1.7.3,2.2,5.5,44.5.1.9Z" transform="translate(0.02 -0.78)"/><path class="cls-8" d="M972.1,408.8l-.6,4.8-.9,7.2-2,15.9-.1,1.1-.1,1.1-5.5,43.6-1.7,13.6-.6,4.5-.1.5-2.2,17.7-2.5-.2h-.5c-1.7-.1-3.5-.3-5.2-.5l-3-.3-4.5-.6h-.1L941,517l1.4-9.9v-.3l6.4-47.9,2.7-20.3.2-1.1.2-1.1,2.1-15.9.9-6.7.5-3.9h.7Z" transform="translate(0.02 -0.78)"/><path class="cls-9" d="M962.8,411.4l-.3,2.4-.8,6.9-1.9,15.9-.1,1.1-.2,1.2-3.7,31.5-4,33.6v.4l-1,8.4-.6,5.5-3-.3-4.5-.6h-.1l-1.5-.2,1.4-9.9V507l6.4-47.9,2.7-20.3.2-1.1.2-1.1,2.1-15.9.9-6.7.5-3.9h.7Z" transform="translate(0.02 -0.78)"/><path class="cls-6" d="M1043.7,502.5l.4,2.9c-1.8.9-3.6,1.8-5.4,2.6-2.2,1-4.4,1.9-6.7,2.7l-1.7-13.2-1.1-8.6-1.9-14.8-1.8-14.3-.3-2.4-4.4-34.8-.8-6.1-.2-2-.2-1.8-.5-4.2h.4l7.6-.8,2.4-.2.8,5.1,1.1,7.2,7.1,47.7,1.5,10.1,1.4,9.5,2.2,14.9Z" transform="translate(0.02 -0.78)"/><path class="cls-10" d="M1043.7,502.5l.4,2.9c-1.8.9-3.6,1.8-5.4,2.6-2.2,1-4.4,1.9-6.7,2.7l-1.7-13.2-1.1-8.6-1.9-14.8-1.8-14.3-.3-2.4-4.4-34.8-.8-6.1-.2-2-.2-1.8-.5-4.2h.4l7.6-.8,2.4-.2.8,5.1,1.1,7.2,7.1,47.7,1.5,10.1,1.4,9.5,2.2,14.9Z" transform="translate(0.02 -0.78)"/><path class="cls-8" d="M1044.2,505.4c-1.8.9-3.6,1.8-5.4,2.6l-1.1-9.9-.8-6.7-1.1-9.3-.2-1.6-1.2-10.6-5.7-49.4-.9-7.9-.3-2.6-.5-2.3,2.4-.2.8,5.1,1.1,7.2,7.1,47.7,1.5,10.1,1.4,9.5,2.2,14.9.1.5Z" transform="translate(0.02 -0.78)"/><path class="cls-6" d="M1068.1,408l-.1,3.8-1.2,78.9-1.8,1.5v.6l-1.1.5-.8.3-2.1,1.5-.5.3c-1.7,1.2-3.3,2.3-5.1,3.5v-2.4l1-68,.1-4.2.2-12.3.1-5.5,7.6,1Z" transform="translate(0.02 -0.78)"/><path class="cls-10" d="M1068.1,408l-.1,3.8-1.2,78.9-1.8,1.5v.6l-1.1.5-.8.3-2.1,1.5-.5.3c-1.7,1.2-3.3,2.3-5.1,3.5v-2.4l1-68,.1-4.2.2-12.3.1-5.5,7.6,1Z" transform="translate(0.02 -0.78)"/><path class="cls-8" d="M1068.1,408l-.1,3.8-1.2,78.9-1.8,1.5v.6l-1.1.5V493l.2-31,.3-50.1v-4.4Z" transform="translate(0.02 -0.78)"/><path class="cls-6" d="M1119.7,402.9h0c0,.4-.1.6-.1.9-.4,2.4-.8,4.7-1.3,7.1l-50.2.9-3.7.1-7.6.1-3.2.1h-1.1l-22.1.4H1028l-8,.1h-.2l-6.1.1-9.9.2h-1.1l-31,.6-9,.2-7.6.1-6.6.1h-3.6l-5,.1-22.8-1H916l-21.2-.9-8.4-.4-10.3-.5-62.2-2.7c-1.5-2.8-3-5.7-4.4-8.7-.4-.9-.9-1.8-1.3-2.7l63.3-1h0l39-.6h0l7.4-.1H919l20-.3,6.8.4h.1l3.4.2,1.1.1,13.7.8h0l33.2,1.8,1.2.1,15.5.9,4.7.3h.1l31,1.7,1.1.1h.2Z" transform="translate(0.02 -0.78)"/><path class="cls-8" d="M1119.7,402.9h0c0,.4-.1.6-.1.9-.4,2.4-.8,4.7-1.3,7.1l-50.2.9-3.6.1-7.6.1-3.2.1h-1.1l-22.1.4h-2.4l-8,.1h-.2l-6.1.1-9.9.2h-1.1l-31,.6-9,.2-7.6.1-6.6.1H945l-5,.1-22.8-1h-1.1l-21.2-.9-8.4-.4-10.3-.4L814,408.6c-1.5-2.8-3-5.7-4.4-8.7-.4-.9-.9-1.8-1.3-2.7l63.3-1h0l39-.6h0l7.4-.1h1.1l20-.3,6.8.4h.1l3.4.2,1.1.1,13.7.8h0l33.2,1.8,1.1.1,15.5.9,4.7.3h.1l31,1.7,1.1.1h.2Z" transform="translate(0.02 -0.78)"/><path class="cls-4" d="M1119.7,402.9h0l-68.4.2h-1.1l-31.2.1H999l-49.4.1h-4.3l-27.2.1H917l-28.5.1-79.2-3.4c-.4-.9-.9-1.8-1.3-2.7l63.3-1h0l39-.6h0l7.4-.1h1.1l20-.3,6.8.4h.1l3.4.2,1.1.1,13.7.8h0l33.2,1.8,1.1.1,15.5.9,4.7.3h.1l31,1.7,1.1.1h.2Z" transform="translate(0.02 -0.78)"/><path class="cls-4" d="M1053.4,357c1.7.6,11.5,3.1,13.5,9S1053.4,357,1053.4,357Z" transform="translate(0.02 -0.78)"/><path class="cls-5" d="M1024.4,366.9s-14.3,4.4-20.8,4.4-31.8-.1-31.8-.1-66.2-22.1-46.3,8.2,51.2,13.4,51.2,13.4,2.5.6,5.6,1.3,62.9.1,64.9-2.2S1024.4,366.9,1024.4,366.9Z" transform="translate(0.02 -0.78)"/><path class="cls-4" d="M1065.5,393.4c-9,.8-26.7,1-26.7,1s-13.2-26.2-24.5-25.3c0,0,10.4-11.8,14.6-10.4.7.2,1.1-.3,1.4-1.3,11,3.4,32,11.6,34.1,26.1C1065,387.4,1065.3,390.6,1065.5,393.4Z" transform="translate(0.02 -0.78)"/><path class="cls-11" d="M1066.6,393.4c-9,.8-26.7,1-26.7,1s-13.2-26.2-24.5-25.3c0,0,10.4-11.8,14.6-10.4.7.2,1.2-.3,1.4-1.3,11,3.4,32,11.6,34.1,26.1C1066.1,387.4,1066.4,390.6,1066.6,393.4Z" transform="translate(0.02 -0.78)"/><path class="cls-4" d="M1065.5,393.4c-9,.8-26.7,1-26.7,1s-13.2-26.2-24.5-25.3c0,0,10.4-11.8,14.6-10.4.7.2,1.1-.3,1.4-1.3,11,3.4,32,11.6,34.1,26.1C1065,387.4,1065.3,390.7,1065.5,393.4Z" transform="translate(0.02 -0.78)"/><path class="cls-4" d="M987.6,468.8s25.3-6.2,29.3-2.8S987.6,468.8,987.6,468.8Z" transform="translate(0.02 -0.78)"/><path class="cls-4" d="M915,493s10.7,6.2,11.8,11.3S915,493,915,493Z" transform="translate(0.02 -0.78)"/><path class="cls-12" d="M869.7,282.9V393.8c0,1.9,1,2.2,2.7,3.1,5.6,3.1,19.5,8.7,36.1-.1,1.7-.9,2.8-1.2,2.8-3.1V283.6S890.1,292.1,869.7,282.9Z" transform="translate(0.02 -0.78)"/><ellipse class="cls-13" cx="890.52" cy="282.02" rx="20.8" ry="4.4"/><g class="cls-14"><circle cx="871.62" cy="328.22" r="0.5"/><circle cx="873.92" cy="328.82" r="0.5"/><circle cx="876.92" cy="329.72" r="0.5"/><circle cx="882.12" cy="330.92" r="0.5"/><circle cx="887.62" cy="331.52" r="0.5"/><circle cx="893.42" cy="331.82" r="0.5"/><circle cx="901.62" cy="330.72" r="0.5"/><circle cx="898.92" cy="331.32" r="0.5"/><circle cx="906.72" cy="329.72" r="0.5"/><circle cx="904.22" cy="330.22" r="0.5"/><circle cx="909.42" cy="328.82" r="0.5"/><circle cx="879.52" cy="330.42" r="0.5"/><circle cx="885.02" cy="331.32" r="0.5"/><circle cx="890.82" cy="331.82" r="0.5"/><circle cx="896.22" cy="331.82" r="0.5"/></g><g class="cls-14"><circle cx="871.62" cy="330.42" r="0.5"/><circle cx="873.92" cy="331.12" r="0.5"/><circle cx="876.92" cy="332.02" r="0.5"/><circle cx="882.12" cy="333.22" r="0.5"/><circle cx="887.62" cy="333.82" r="0.5"/><circle cx="893.42" cy="334.12" r="0.5"/><circle cx="901.62" cy="333.02" r="0.5"/><circle cx="898.92" cy="333.62" r="0.5"/><circle cx="906.72" cy="332.02" r="0.5"/><circle cx="904.22" cy="332.52" r="0.5"/><circle cx="909.42" cy="331.12" r="0.5"/><circle cx="879.52" cy="332.72" r="0.5"/><circle cx="885.02" cy="333.62" r="0.5"/><circle cx="890.82" cy="334.12" r="0.5"/><circle cx="896.22" cy="334.12" r="0.5"/></g><g class="cls-14"><circle cx="871.62" cy="332.72" r="0.5"/><circle cx="873.92" cy="333.42" r="0.5"/><circle cx="876.92" cy="334.32" r="0.5"/><circle cx="882.12" cy="335.52" r="0.5"/><circle cx="887.62" cy="336.12" r="0.5"/><circle cx="893.42" cy="336.42" r="0.5"/><circle cx="901.62" cy="335.32" r="0.5"/><circle cx="898.92" cy="335.92" r="0.5"/><circle cx="906.72" cy="334.32" r="0.5"/><circle cx="904.22" cy="334.82" r="0.5"/><circle cx="909.42" cy="333.42" r="0.5"/><circle cx="879.52" cy="335.02" r="0.5"/><circle cx="885.02" cy="335.92" r="0.5"/><circle cx="890.82" cy="336.42" r="0.5"/><circle cx="896.22" cy="336.42" r="0.5"/></g><g class="cls-14"><circle cx="871.62" cy="335.02" r="0.5"/><circle cx="873.92" cy="335.72" r="0.5"/><circle cx="876.92" cy="336.62" r="0.5"/><circle cx="882.12" cy="337.82" r="0.5"/><circle cx="887.62" cy="338.42" r="0.5"/><circle cx="893.42" cy="338.72" r="0.5"/><circle cx="901.62" cy="337.62" r="0.5"/><circle cx="898.92" cy="338.22" r="0.5"/><circle cx="906.72" cy="336.62" r="0.5"/><circle cx="904.22" cy="337.12" r="0.5"/><circle cx="909.42" cy="335.72" r="0.5"/><circle cx="879.52" cy="337.32" r="0.5"/><circle cx="885.02" cy="338.22" r="0.5"/><circle cx="890.82" cy="338.72" r="0.5"/><circle cx="896.22" cy="338.72" r="0.5"/></g><g class="cls-14"><circle cx="871.62" cy="337.32" r="0.5"/><circle cx="873.92" cy="338.02" r="0.5"/><circle cx="876.92" cy="338.92" r="0.5"/><circle cx="882.12" cy="340.12" r="0.5"/><circle cx="887.62" cy="340.72" r="0.5"/><circle cx="893.42" cy="341.02" r="0.5"/><circle cx="901.62" cy="339.92" r="0.5"/><circle cx="898.92" cy="340.52" r="0.5"/><circle cx="906.72" cy="338.92" r="0.5"/><circle cx="904.22" cy="339.42" r="0.5"/><circle cx="909.42" cy="338.02" r="0.5"/><circle cx="879.52" cy="339.62" r="0.5"/><circle cx="885.02" cy="340.52" r="0.5"/><circle cx="890.82" cy="341.02" r="0.5"/><circle cx="896.22" cy="341.02" r="0.5"/></g><g class="cls-14"><circle cx="871.62" cy="339.62" r="0.5"/><circle cx="873.92" cy="340.32" r="0.5"/><circle cx="876.92" cy="341.22" r="0.5"/><circle cx="882.12" cy="342.32" r="0.5"/><circle cx="887.62" cy="343.02" r="0.5"/><circle cx="893.42" cy="343.32" r="0.5"/><circle cx="901.62" cy="342.22" r="0.5"/><circle cx="898.92" cy="342.82" r="0.5"/><circle cx="906.72" cy="341.22" r="0.5"/><circle cx="904.22" cy="341.72" r="0.5"/><circle cx="909.42" cy="340.32" r="0.5"/><circle cx="879.52" cy="341.92" r="0.5"/><circle cx="885.02" cy="342.82" r="0.5"/><circle cx="890.82" cy="343.32" r="0.5"/><circle cx="896.22" cy="343.32" r="0.5"/></g><g class="cls-14"><circle cx="871.62" cy="341.92" r="0.5"/><circle cx="873.92" cy="342.62" r="0.5"/><circle cx="876.92" cy="343.52" r="0.5"/><circle cx="882.12" cy="344.72" r="0.5"/><circle cx="887.62" cy="345.32" r="0.5"/><circle cx="893.42" cy="345.62" r="0.5"/><circle cx="901.62" cy="344.42" r="0.5"/><circle cx="898.92" cy="345.12" r="0.5"/><circle cx="906.72" cy="343.52" r="0.5"/><circle cx="904.22" cy="344.02" r="0.5"/><circle cx="909.42" cy="342.62" r="0.5"/><circle cx="879.52" cy="344.22" r="0.5"/><circle cx="885.02" cy="345.12" r="0.5"/><circle cx="890.82" cy="345.62" r="0.5"/><circle cx="896.22" cy="345.62" r="0.5"/></g><g class="cls-14"><circle cx="871.62" cy="344.22" r="0.5"/><circle cx="873.92" cy="344.92" r="0.5"/><circle cx="876.92" cy="345.82" r="0.5"/><circle cx="882.12" cy="346.92" r="0.5"/><circle cx="887.62" cy="347.62" r="0.5"/><circle cx="893.42" cy="347.92" r="0.5"/><circle cx="901.62" cy="346.72" r="0.5"/><circle cx="898.92" cy="347.42" r="0.5"/><circle cx="906.72" cy="345.82" r="0.5"/><circle cx="904.22" cy="346.32" r="0.5"/><circle cx="909.42" cy="344.92" r="0.5"/><circle cx="879.52" cy="346.52" r="0.5"/><circle cx="885.02" cy="347.42" r="0.5"/><circle cx="890.82" cy="347.92" r="0.5"/><circle cx="896.22" cy="347.92" r="0.5"/></g><g class="cls-14"><circle cx="871.62" cy="346.52" r="0.5"/><circle cx="873.92" cy="347.22" r="0.5"/><circle cx="876.92" cy="348.12" r="0.5"/><circle cx="882.12" cy="349.22" r="0.5"/><circle cx="887.62" cy="349.92" r="0.5"/><circle cx="893.42" cy="350.22" r="0.5"/><circle cx="901.62" cy="349.02" r="0.5"/><circle cx="898.92" cy="349.72" r="0.5"/><circle cx="906.72" cy="348.12" r="0.5"/><circle cx="904.22" cy="348.62" r="0.5"/><circle cx="909.42" cy="347.22" r="0.5"/><circle cx="879.52" cy="348.82" r="0.5"/><circle cx="885.02" cy="349.72" r="0.5"/><circle cx="890.82" cy="350.22" r="0.5"/><circle cx="896.22" cy="350.22" r="0.5"/></g><g class="cls-14"><circle cx="871.62" cy="348.82" r="0.5"/><circle cx="873.92" cy="349.52" r="0.5"/><circle cx="876.92" cy="350.42" r="0.5"/><circle cx="882.12" cy="351.52" r="0.5"/><circle cx="887.62" cy="352.22" r="0.5"/><circle cx="893.42" cy="352.52" r="0.5"/><circle cx="901.62" cy="351.32" r="0.5"/><circle cx="898.92" cy="352.02" r="0.5"/><circle cx="906.72" cy="350.42" r="0.5"/><circle cx="904.22" cy="350.92" r="0.5"/><circle cx="909.42" cy="349.52" r="0.5"/><circle cx="879.52" cy="351.12" r="0.5"/><circle cx="885.02" cy="352.02" r="0.5"/><circle cx="890.82" cy="352.52" r="0.5"/><circle cx="896.22" cy="352.52" r="0.5"/></g><g class="cls-14"><circle cx="871.62" cy="351.12" r="0.5"/><circle cx="873.92" cy="351.82" r="0.5"/><circle cx="876.92" cy="352.72" r="0.5"/><circle cx="882.12" cy="353.82" r="0.5"/><circle cx="887.62" cy="354.52" r="0.5"/><circle cx="893.42" cy="354.82" r="0.5"/><circle cx="901.62" cy="353.62" r="0.5"/><circle cx="898.92" cy="354.32" r="0.5"/><circle cx="906.72" cy="352.72" r="0.5"/><circle cx="904.22" cy="353.22" r="0.5"/><circle cx="909.42" cy="351.82" r="0.5"/><circle cx="879.52" cy="353.42" r="0.5"/><circle cx="885.02" cy="354.32" r="0.5"/><circle cx="890.82" cy="354.82" r="0.5"/><circle cx="896.22" cy="354.82" r="0.5"/></g><g class="cls-14"><circle cx="871.62" cy="353.42" r="0.5"/><circle cx="873.92" cy="354.12" r="0.5"/><circle cx="876.92" cy="355.02" r="0.5"/><circle cx="882.12" cy="356.12" r="0.5"/><circle cx="887.62" cy="356.82" r="0.5"/><circle cx="893.42" cy="357.12" r="0.5"/><circle cx="901.62" cy="355.92" r="0.5"/><circle cx="898.92" cy="356.62" r="0.5"/><circle cx="906.72" cy="355.02" r="0.5"/><circle cx="904.22" cy="355.52" r="0.5"/><circle cx="909.42" cy="354.12" r="0.5"/><circle cx="879.52" cy="355.72" r="0.5"/><circle cx="885.02" cy="356.62" r="0.5"/><circle cx="890.82" cy="357.12" r="0.5"/><circle cx="896.22" cy="357.12" r="0.5"/></g><g class="cls-14"><circle cx="871.62" cy="355.72" r="0.5"/><circle cx="873.92" cy="356.42" r="0.5"/><circle cx="876.92" cy="357.32" r="0.5"/><circle cx="882.12" cy="358.42" r="0.5"/><circle cx="887.62" cy="359.12" r="0.5"/><circle cx="893.42" cy="359.32" r="0.5"/><circle cx="901.62" cy="358.22" r="0.5"/><circle cx="898.92" cy="358.92" r="0.5"/><circle cx="906.72" cy="357.32" r="0.5"/><circle cx="904.22" cy="357.82" r="0.5"/><circle cx="909.42" cy="356.42" r="0.5"/><circle cx="879.52" cy="358.02" r="0.5"/><circle cx="885.02" cy="358.92" r="0.5"/><circle cx="890.82" cy="359.32" r="0.5"/><circle cx="896.22" cy="359.32" r="0.5"/></g><g class="cls-14"><circle cx="871.62" cy="358.02" r="0.5"/><circle cx="873.92" cy="358.72" r="0.5"/><circle cx="876.92" cy="359.62" r="0.5"/><circle cx="882.12" cy="360.72" r="0.5"/><circle cx="887.62" cy="361.42" r="0.5"/><circle cx="893.42" cy="361.72" r="0.5"/><circle cx="901.62" cy="360.52" r="0.5"/><circle cx="898.92" cy="361.22" r="0.5"/><circle cx="906.72" cy="359.62" r="0.5"/><circle cx="904.22" cy="360.12" r="0.5"/><circle cx="909.42" cy="358.72" r="0.5"/><circle cx="879.52" cy="360.22" r="0.5"/><circle cx="885.02" cy="361.22" r="0.5"/><circle cx="890.82" cy="361.72" r="0.5"/><circle cx="896.22" cy="361.72" r="0.5"/></g><g class="cls-14"><circle cx="871.62" cy="360.32" r="0.5"/><circle cx="873.92" cy="361.02" r="0.5"/><circle cx="876.92" cy="361.92" r="0.5"/><circle cx="882.12" cy="363.02" r="0.5"/><circle cx="887.62" cy="363.72" r="0.5"/><circle cx="893.42" cy="364.02" r="0.5"/><circle cx="901.62" cy="362.82" r="0.5"/><circle cx="898.92" cy="363.52" r="0.5"/><circle cx="906.72" cy="361.92" r="0.5"/><circle cx="904.22" cy="362.32" r="0.5"/><circle cx="909.42" cy="361.02" r="0.5"/><circle cx="879.52" cy="362.62" r="0.5"/><circle cx="885.02" cy="363.52" r="0.5"/><circle cx="890.82" cy="364.02" r="0.5"/><circle cx="896.22" cy="364.02" r="0.5"/></g><g class="cls-14"><circle cx="871.62" cy="362.62" r="0.5"/><circle cx="873.92" cy="363.22" r="0.5"/><circle cx="876.92" cy="364.22" r="0.5"/><circle cx="882.12" cy="365.32" r="0.5"/><circle cx="887.62" cy="366.02" r="0.5"/><circle cx="893.42" cy="366.22" r="0.5"/><circle cx="901.62" cy="365.12" r="0.5"/><circle cx="898.92" cy="365.82" r="0.5"/><circle cx="906.72" cy="364.22" r="0.5"/><circle cx="904.22" cy="364.62" r="0.5"/><circle cx="909.42" cy="363.22" r="0.5"/><circle cx="879.52" cy="364.82" r="0.5"/><circle cx="885.02" cy="365.82" r="0.5"/><circle cx="890.82" cy="366.22" r="0.5"/><circle cx="896.22" cy="366.22" r="0.5"/></g><g class="cls-14"><circle cx="871.62" cy="364.92" r="0.5"/><circle cx="873.92" cy="365.52" r="0.5"/><circle cx="876.92" cy="366.52" r="0.5"/><circle cx="882.12" cy="367.62" r="0.5"/><circle cx="887.62" cy="368.32" r="0.5"/><circle cx="893.42" cy="368.52" r="0.5"/><circle cx="901.62" cy="367.42" r="0.5"/><circle cx="898.92" cy="368.12" r="0.5"/><circle cx="906.72" cy="366.52" r="0.5"/><circle cx="904.22" cy="366.92" r="0.5"/><circle cx="909.42" cy="365.52" r="0.5"/><circle cx="879.52" cy="367.12" r="0.5"/><circle cx="885.02" cy="368.12" r="0.5"/><circle cx="890.82" cy="368.52" r="0.5"/><circle cx="896.22" cy="368.52" r="0.5"/></g><g class="cls-14"><circle cx="871.62" cy="367.22" r="0.5"/><circle cx="873.92" cy="367.82" r="0.5"/><circle cx="876.92" cy="368.82" r="0.5"/><circle cx="882.12" cy="369.92" r="0.5"/><circle cx="887.62" cy="370.62" r="0.5"/><circle cx="893.42" cy="370.82" r="0.5"/><circle cx="901.62" cy="369.72" r="0.5"/><circle cx="898.92" cy="370.42" r="0.5"/><circle cx="906.72" cy="368.82" r="0.5"/><circle cx="904.22" cy="369.22" r="0.5"/><circle cx="909.42" cy="367.82" r="0.5"/><circle cx="879.52" cy="369.42" r="0.5"/><circle cx="885.02" cy="370.42" r="0.5"/><circle cx="890.82" cy="370.82" r="0.5"/><circle cx="896.22" cy="370.82" r="0.5"/></g><g class="cls-14"><circle cx="871.62" cy="369.52" r="0.5"/><circle cx="873.92" cy="370.12" r="0.5"/><circle cx="876.92" cy="371.12" r="0.5"/><circle cx="882.12" cy="372.22" r="0.5"/><circle cx="887.62" cy="372.92" r="0.5"/><circle cx="893.42" cy="373.12" r="0.5"/><circle cx="901.62" cy="372.02" r="0.5"/><circle cx="898.92" cy="372.72" r="0.5"/><circle cx="906.72" cy="371.12" r="0.5"/><circle cx="904.22" cy="371.52" r="0.5"/><circle cx="909.42" cy="370.12" r="0.5"/><circle cx="879.52" cy="371.72" r="0.5"/><circle cx="885.02" cy="372.72" r="0.5"/><circle cx="890.82" cy="373.12" r="0.5"/><circle cx="896.22" cy="373.12" r="0.5"/></g><g class="cls-14"><circle cx="871.62" cy="371.82" r="0.5"/><circle cx="873.92" cy="372.42" r="0.5"/><circle cx="876.92" cy="373.42" r="0.5"/><circle cx="882.12" cy="374.52" r="0.5"/><circle cx="887.62" cy="375.22" r="0.5"/><circle cx="893.42" cy="375.42" r="0.5"/><circle cx="901.62" cy="374.32" r="0.5"/><circle cx="898.92" cy="375.02" r="0.5"/><circle cx="906.72" cy="373.42" r="0.5"/><circle cx="904.22" cy="373.82" r="0.5"/><circle cx="909.42" cy="372.42" r="0.5"/><circle cx="879.52" cy="374.02" r="0.5"/><circle cx="885.02" cy="375.02" r="0.5"/><circle cx="890.82" cy="375.42" r="0.5"/><circle cx="896.22" cy="375.42" r="0.5"/></g><g class="cls-14"><circle cx="871.62" cy="374.12" r="0.5"/><circle cx="873.92" cy="374.72" r="0.5"/><circle cx="876.92" cy="375.72" r="0.5"/><circle cx="882.12" cy="376.82" r="0.5"/><circle cx="887.62" cy="377.52" r="0.5"/><circle cx="893.42" cy="377.72" r="0.5"/><circle cx="901.62" cy="376.62" r="0.5"/><circle cx="898.92" cy="377.22" r="0.5"/><circle cx="906.72" cy="375.72" r="0.5"/><circle cx="904.22" cy="376.12" r="0.5"/><circle cx="909.42" cy="374.72" r="0.5"/><circle cx="879.52" cy="376.32" r="0.5"/><circle cx="885.02" cy="377.22" r="0.5"/><circle cx="890.82" cy="377.72" r="0.5"/><circle cx="896.22" cy="377.72" r="0.5"/></g><g class="cls-14"><circle cx="871.62" cy="376.42" r="0.5"/><circle cx="873.92" cy="377.02" r="0.5"/><circle cx="876.92" cy="378.02" r="0.5"/><circle cx="882.12" cy="379.12" r="0.5"/><circle cx="887.62" cy="379.72" r="0.5"/><circle cx="893.42" cy="380.02" r="0.5"/><circle cx="901.62" cy="378.92" r="0.5"/><circle cx="898.92" cy="379.62" r="0.5"/><circle cx="906.72" cy="378.02" r="0.5"/><circle cx="904.22" cy="378.42" r="0.5"/><circle cx="909.42" cy="377.02" r="0.5"/><circle cx="879.52" cy="378.62" r="0.5"/><circle cx="885.02" cy="379.62" r="0.5"/><circle cx="890.82" cy="380.02" r="0.5"/><circle cx="896.22" cy="380.02" r="0.5"/></g><g class="cls-14"><circle cx="871.62" cy="378.72" r="0.5"/><circle cx="873.92" cy="379.32" r="0.5"/><circle cx="876.92" cy="380.22" r="0.5"/><circle cx="882.12" cy="381.42" r="0.5"/><circle cx="887.62" cy="382.12" r="0.5"/><circle cx="893.42" cy="382.32" r="0.5"/><circle cx="901.62" cy="381.22" r="0.5"/><circle cx="898.92" cy="381.82" r="0.5"/><circle cx="906.72" cy="380.22" r="0.5"/><circle cx="904.22" cy="380.72" r="0.5"/><circle cx="909.42" cy="379.32" r="0.5"/><circle cx="879.52" cy="380.92" r="0.5"/><circle cx="885.02" cy="381.82" r="0.5"/><circle cx="890.82" cy="382.32" r="0.5"/><circle cx="896.22" cy="382.32" r="0.5"/></g><g class="cls-14"><circle cx="871.62" cy="381.02" r="0.5"/><circle cx="873.92" cy="381.62" r="0.5"/><circle cx="876.92" cy="382.52" r="0.5"/><circle cx="882.12" cy="383.72" r="0.5"/><circle cx="887.62" cy="384.32" r="0.5"/><circle cx="893.42" cy="384.62" r="0.5"/><circle cx="901.62" cy="383.52" r="0.5"/><circle cx="898.92" cy="384.12" r="0.5"/><circle cx="906.72" cy="382.52" r="0.5"/><circle cx="904.22" cy="383.02" r="0.5"/><circle cx="909.42" cy="381.62" r="0.5"/><circle cx="879.52" cy="383.22" r="0.5"/><circle cx="885.02" cy="384.12" r="0.5"/><circle cx="890.82" cy="384.62" r="0.5"/><circle cx="896.22" cy="384.62" r="0.5"/></g><path class="cls-3" d="M945.8,226.7s13.7-5.1,18.2,5.4l1.3.3,2.9.7c7.2-10.8,26.3,0,26.3,0l26.8,11.9-1,1.7-26.9-9.4s-3.6,11-8.2,13.6-12.2-1.5-12.2-1.5c-4.7-1.9-5.1-10.2-5-14.2l-4.1-.8c-.3,4-1.8,11.7-9,12.6-9.8,1.2-10.5-7.5-10.5-7.5S944.1,228.5,945.8,226.7Z" transform="translate(0.02 -0.78)"/><path class="cls-11" d="M955.5,226.8c-.5,1-1.1,2.4-.2,3.1a2.2,2.2,0,0,0,1.4.2c2.9-.6,4.4-3.7,5.6-6.4s3-5.7,6-6c3.5-.3,7.1,3.5,10,1.5.9-.6,1.4-1.7,2.4-2.1a3.33,3.33,0,0,1,2.2-.1,15.49,15.49,0,0,1,12.7,13.3c.2,1.4.4,3.2,1.8,3.4a10,10,0,0,0,1.6-.2c2.6-.3,4.2,2.7,5.1,5.2,1.1,3.4,2.3,7,1.6,10.5-.5,2.8-2.2,5.4-2.2,8.2-.1,2.3.9,4.6,1.9,6.7s2.6,4.6,4.9,4.3c1.9-.2,2.9-2.3,3.9-4s2.6-3.5,4.4-3c.8.2,1.7.9,2.4.5a1.52,1.52,0,0,0,.7-1.2c.9-3.9-.4-8.4,1.5-11.9,1.5-2.7,4.5-4.2,6.9-6.1a19.71,19.71,0,0,0,3.1-27.7,2.18,2.18,0,0,0-.4-.5c-2.6-3-6.3-5.7-6.5-9.7-.2-3,1.9-5.8,1.9-8.9s-1.9-5.6-4-7.6a26.44,26.44,0,0,0-23.6-6.2c-2.2.5-4.4,1.3-6.6,1.1-2.6-.3-4.7-2-7.1-3.2-7.6-3.9-17.9-1.1-22.5,6.1-2.7,4.1-3.7,9.6-7.7,12.5-2.6,1.9-6.4,2.6-7.8,5.5-.9,1.7-.6,3.8-.4,5.7a13,13,0,0,0,4.3,8.2C955,220.5,957.1,223.1,955.5,226.8Z" transform="translate(0.02 -0.78)"/><g class="cls-15"><path d="M1027.3,199.4a9.77,9.77,0,0,0,.6-2.3C1027.7,197.8,1027.5,198.6,1027.3,199.4Z" transform="translate(0.02 -0.78)"/><path d="M956.1,224.4a4.71,4.71,0,0,1,.6-1.5c1.6-3.7-.5-6.3-2.9-8.8a13,13,0,0,1-4.3-8.2,22.75,22.75,0,0,1-.2-2.6,3.51,3.51,0,0,0-.5.8c-.9,1.7-.6,3.8-.4,5.7a13,13,0,0,0,4.3,8.2C954.5,219.9,956.1,221.9,956.1,224.4Z" transform="translate(0.02 -0.78)"/><path d="M1019.5,257.6c-1.8-.5-3.5,1.3-4.4,3s-2,3.7-3.9,4c-2.3.3-3.9-2.2-4.9-4.3s-2-4.4-1.9-6.7a2,2,0,0,1,.1-.8,13.06,13.06,0,0,0-1.2,4.8c-.1,2.3.9,4.6,1.9,6.7s2.6,4.6,4.9,4.3c1.9-.2,2.9-2.3,3.9-4s2.6-3.5,4.4-3c.8.2,1.7.9,2.4.5a1.52,1.52,0,0,0,.7-1.2,12.41,12.41,0,0,0,.3-2.7C1021.2,258.5,1020.3,257.9,1019.5,257.6Z" transform="translate(0.02 -0.78)"/><path d="M1031.1,238.9c-2.4,1.9-5.4,3.4-6.9,6.1a10.21,10.21,0,0,0-1,3.8c1.5-2.6,4.4-4.1,6.8-6a20.4,20.4,0,0,0,7.1-12A19.36,19.36,0,0,1,1031.1,238.9Z" transform="translate(0.02 -0.78)"/><path d="M1005.7,248.8a35.8,35.8,0,0,0,1.1-3.5c.7-3.5-.5-7.1-1.6-10.5-.8-2.5-2.4-5.5-5-5.2a7.77,7.77,0,0,1-1.6.2c-1.4-.2-1.7-2-1.8-3.4a15.6,15.6,0,0,0-12.7-13.3,4.12,4.12,0,0,0-2.2.1c-1,.4-1.5,1.5-2.4,2.1-2.9,2-6.5-1.8-10-1.5-2.9.2-4.8,3.3-6,6s-2.7,5.8-5.6,6.4a1.76,1.76,0,0,1-1.4-.2,1.37,1.37,0,0,1-.5-.8,8.45,8.45,0,0,1-.5,1.7c-.5,1-1.1,2.4-.2,3.1a2.2,2.2,0,0,0,1.4.2c2.9-.6,4.4-3.7,5.6-6.4s3-5.7,6-6c3.5-.3,7.1,3.5,10,1.5.9-.6,1.4-1.7,2.4-2.1a3.33,3.33,0,0,1,2.2-.1,15.49,15.49,0,0,1,12.7,13.3c.2,1.4.4,3.2,1.8,3.4a10,10,0,0,0,1.6-.2c2.6-.3,4.2,2.7,5.1,5.2C1005.1,242,1006.2,245.4,1005.7,248.8Z" transform="translate(0.02 -0.78)"/></g></g><g class="cls-1"><path class="cls-2" d="M0,206.8a26.2,26.2,0,0,0,.1,2.8A206.58,206.58,0,0,0,3.6,240c5.7,29.8,17.7,59.6,31.9,88,.2.5.5.9.7,1.4.3.7.7,1.3,1,2,.7,1.4,1.4,2.7,2.1,4.1l1.6,3h0a15.05,15.05,0,0,1,1.1,2.2c.2.4.5.9.7,1.3,3.9,7.5,8.2,14.7,12.8,21.8l.5.8a133.61,133.61,0,0,0,20.4,24c13.5,12.5,30.7,21.5,49.1,26.6.6.2,1.2.3,1.9.5l3.6.9,2.5.6a134,134,0,0,0,17.8,2.6c3.2.2,6.5.4,9.7.4h1.4a117,117,0,0,0,11.9-.7l.6-.1a105.32,105.32,0,0,0,31.2-8.4c1.6-.7,3.1-1.5,4.6-2.2l.8-.4.4-.2h0a124.59,124.59,0,0,0,14.7-9.2,189.65,189.65,0,0,0,15.6-12.5,256.39,256.39,0,0,0,21-20.7l.3-.3c2.8-3.2,5.5-6.4,8.1-9.8v-.1c1.8-2.3,3.5-4.7,5.1-7.1.1-.1.1-.2.2-.3a123.1,123.1,0,0,0,6.6-11l.5-.9c1.5-2.8,2.8-5.6,4-8.4,6.9-16.1,10-33.5,11.7-50.9,3.5-35.3,1.4-71.6-7.9-106.9-1.3-4.8-2.7-9.5-4.2-14.2-.2-.6-.4-1.3-.6-1.9-.3-1-.7-2-1-3.1-.1-.4-.3-.9-.4-1.3-1.3-3.8-2.8-7.7-4.3-11.4l-.8-2c-.9-2-1.7-4.1-2.6-6.1s-1.7-3.8-2.6-5.6c-.1-.3-.3-.6-.4-.9-7.7-15.8-17.8-31.2-32.2-42.8-1-.8-2-1.6-3-2.3-1.5-1.1-3-2.2-4.6-3.2l-1.1-.7-.4-.3-.3-.2-.2-.1a20.13,20.13,0,0,0-2.5-1.4c-.9-.4-1.7-.9-2.6-1.3h-.1l-.3-.2c-.7-.3-1.4-.7-2-1l-.7-.3-.3-.1-1.1-.5a88.27,88.27,0,0,0-15.9-4.8,70,70,0,0,0-9.2-1.1,58.74,58.74,0,0,0-13.9.8,15.52,15.52,0,0,0-2.1.4,43,43,0,0,0-16.1,7c-6.3,4.6-10.7,10.7-14.8,17l-.4.6c-.7,1.1-1.3,2.1-2,3.2-2.3,3.7-4.6,7.5-7.1,11.2-2.3,3.4-4.6,6.8-7.2,10a90.55,90.55,0,0,1-8.4,9.1,17.41,17.41,0,0,1-1.4,1.2,62.58,62.58,0,0,1-18.9,11.6,35.34,35.34,0,0,1-19.5,2.1h0a30.92,30.92,0,0,1-5.4-1.7c-3.3-1.4-6.4-2.9-9.6-4.1a71.43,71.43,0,0,0-17.5-5h0a40.13,40.13,0,0,0-18.5,2c-1,.4-1.9.8-2.9,1.2a39.41,39.41,0,0,0-11.8,7.9L19.7,139c-8.8,8.9-13.6,21.3-16.2,33.4A141,141,0,0,0,0,206.8Z" transform="translate(0.02 -0.78)"/><path class="cls-16" d="M127.5,412.7l-2,2.3c.6.2,1.2.3,1.9.5l3.6.9,2.5.6a134,134,0,0,0,17.8,2.6c3.2.2,6.5.4,9.7.4a16.41,16.41,0,0,0,1.6-2.9c1.3-3.1,6.5-8.6,12-13.8-.1.9-.2,1.4-.2,1.4v.4l-.1,14.3.6-.1a105.32,105.32,0,0,0,31.2-8.4c1.6-.7,3.1-1.5,4.6-2.2l.8-.4.4-.2c.7-3.4,1.3-6.7,1.8-9.4l.1-.4c.1-.4.1-.7.2-1s.1-.6.2-.9a1.49,1.49,0,0,0,.1-.6c.3-1.8.5-2.9.5-2.9a8.75,8.75,0,0,1,.2-1.6h0a14.69,14.69,0,0,1,3.9-8.1,8,8,0,0,0,1.9-3.2h0c1.1-3.4.9-7.8.8-9.9a5,5,0,0,0-.1-1.1s3.8-2,6.1-8.2a26.19,26.19,0,0,0,1.1-4c1.6-8.8,6.7-27.3,7.3-29.6h0l.1-.2a7.86,7.86,0,0,1,.4-.9c0-.1,0-.1.1-.2l.1-.2h0c2.3-6.2,11-31.3,10.3-47.9-.8-19.1,1.2-29.1,1.2-29.1l2.3-41.6v-.4l.1-2.4v-.7c.3.2.6.5.9.7l.5.5.2.2v-.5a1.73,1.73,0,0,1,.5.5s1-16.1.9-25.3a25.32,25.32,0,0,0-.1-2.9c6.8-2.3,17-6.1,17.6-8,.5-1.6,4.3-5.1,7.6-7.9l1.8-1.5.9-.8c1.3-1.1,2.2-1.8,2.2-1.8a.91.91,0,0,1-.7-.3,10.91,10.91,0,0,0,1.1-.6c1-.5,2-1.2,3.2-1.9,4.8-3.2,10.7-8.2,14-13,1.8-2.7,2.8-5.4,2.4-7.6a1.42,1.42,0,0,0-.2-.6l13.8-19.9,1.6-2.3a3.76,3.76,0,0,0-.3-4.7l.1-.1-.1-.1-.6-.4.1.1a1.93,1.93,0,0,0-2.6.6l-.2.4-13.3,19.1-2.4,3.4c-5.2-1.6-12.8,2.9-18.7,7.4-2.2,1.6-4.1,3.3-5.7,4.6l-1,.9a11,11,0,0,1-.7-1.7c-.3,3.2-11.5,7.9-14,9.6a9,9,0,0,1-3.9,1.3c.4-12-8.9-24.6-8.9-24.6l-18-22.9h0l-1.1-1.4-3.6-4.5a15.33,15.33,0,0,1-.3-4.3,26.76,26.76,0,0,1,1-6.9,4.87,4.87,0,0,1,.4-1.1c.3-1,.8-2,1.2-3a10.91,10.91,0,0,1,.6-1.1h.1c-.4,1.4-.8,2.8-1.1,4.2-.1.4-.1.8-.2,1.1l-.1.5a10.87,10.87,0,0,0-.1,1.8v.3c.2,2.4,2,11.2,4.4,10.8a1.61,1.61,0,0,0,1.3-.6,3.59,3.59,0,0,0,.7-1,5.9,5.9,0,0,0,.4-.8,5.64,5.64,0,0,0,.4-1.2,27.63,27.63,0,0,0,.6-7,18.59,18.59,0,0,1-.4,3.3c.1-2.5-.1-5.2-.2-7.3V82.6h0V81.2h.3v0h.3A30.23,30.23,0,0,0,247,74.8a5.9,5.9,0,0,0,1.4-.2,7.16,7.16,0,0,0,3.6-2l.2-.2a4.8,4.8,0,0,1-.9,4.6.1.1,0,0,1-.1.1h.1c2.9-.2,5.3-2.4,6.5-5,0-.1.1-.2.1-.3a19.14,19.14,0,0,0,.9-8.9,54.45,54.45,0,0,1-.6-9,16.35,16.35,0,0,1,.2-2.2v-.3a9.64,9.64,0,0,0,0-2.4v-.2a5.85,5.85,0,0,0-.2-1.3h.1a1.7,1.7,0,0,0,1.6-.9l.2-.2a4.35,4.35,0,0,0,.6-.7,3.13,3.13,0,0,0,.5-1,21.72,21.72,0,0,0,.7-2.4A35.86,35.86,0,0,0,263.1,32c-.1,1-.2,2.1-.4,3.2.3-4-.3-7.8-2.9-10.7a19.22,19.22,0,0,0-6.8-4.3,5,5,0,0,1-2.2-1.6,6.77,6.77,0,0,1-.7-2.7c-.9-5.8-6.3-9.9-11.8-12.2-7-3-15.4-4.4-22.2-.7-3.3,1.8-5.9,4.5-8.8,6.8-3.7,2.8-8,4.8-12,7.3s-7.8,5.6-9.7,9.8-1.6,9.2-1.1,14c.3,2.4.6,4.9.7,7.3v.6a37.21,37.21,0,0,1-3,16.1,32.54,32.54,0,0,1-10.3,13.2,11.63,11.63,0,0,0-2.9,2.5,3.16,3.16,0,0,0-.2,3.6,6,6,0,0,0,.8.8,6.47,6.47,0,0,1,.9.8,4.05,4.05,0,0,1,.5.9,5.71,5.71,0,0,1,.1,2.9.37.37,0,0,1-.1.3l-.1.5a28.22,28.22,0,0,1-7.7,13.1c.2,1.2,1.6,1.6,2.8,1.8h0a59.49,59.49,0,0,0,9.4.7h1.4c-.1.4-.3.7-.4,1.1h0c-.3.9-.7,1.8-1,2.8h0c-1.4,4.2-2.8,9.4-2.2,12.9,1.2,6.7,4.6,37.3,2.9,42.7s2.7,44.6,2.7,44.6.1.6.4,1.7c.3,1.3.7,3.3,1.3,5.8,0,.1-.1.2-.1.3-2.7,6.4-5.7,13.3-7.3,16.1-2.1,3.8-2.1,17.8,1.2,30.7,1.7,6.6,4.3,12.9,8,17.3,0,0,3.8,5.3,3.5,8a1.42,1.42,0,0,1-.2.6c-.8,1.6-.4,4-.1,5.4a2.48,2.48,0,0,0,.3.9v1l1.7,36.9a90.44,90.44,0,0,1-.8,11.6c-4.6,5.7-11.7,14-15.1,15.4-5.2,2.1-43.8,49-43.8,49a15.59,15.59,0,0,0,.9,1.5Z" transform="translate(0.02 -0.78)"/><path class="cls-17" d="M282.3,159a9.79,9.79,0,0,1-3.7,1.4c-4.8.1-8.8-12.9-8.8-12.9s1.4-1.4,3.6-3.3c6.5-5.8,20-16.4,26.4-10.4C306.9,140.4,290.6,154.5,282.3,159Z" transform="translate(0.02 -0.78)"/><path class="cls-17" d="M133.5,417a134,134,0,0,0,17.8,2.6c-2.5-4.5-19-9.8-19-9.8l-2.2,2.6-1.1,1.2-1.6,1.9,3.6.9Z" transform="translate(0.02 -0.78)"/><path class="cls-4" d="M282.3,159a9.79,9.79,0,0,1-3.7,1.4c-4.8.1-8.8-12.9-8.8-12.9s1.4-1.4,3.6-3.3C274.9,147.7,279.2,157.2,282.3,159Z" transform="translate(0.02 -0.78)"/><path class="cls-18" d="M251.3,154.3s4,.3,6.5-1.4,13.5-6.4,13.8-9.5c0,0,6.5,15.9,10.2,16.5,0,0-11.4,8.9-12.2,11.8s-23,9.8-23,9.8Z" transform="translate(0.02 -0.78)"/><path class="cls-19" d="M251.3,154.3s4,.3,6.5-1.4,13.5-6.4,13.8-9.5c0,0,6.5,15.9,10.2,16.5,0,0-11.4,8.9-12.2,11.8s-23,9.8-23,9.8Z" transform="translate(0.02 -0.78)"/><path class="cls-4" d="M129,413.6c.5.8,1.2,1.7,2,2.8l2.5.6a134,134,0,0,0,17.8,2.6c-2.5-4.5-19-9.8-19-9.8l-2.2,2.6Z" transform="translate(0.02 -0.78)"/><path class="cls-19" d="M129.2,410.9a15.59,15.59,0,0,0,.9,1.5,39.79,39.79,0,0,0,3.5,4.6,134,134,0,0,0,17.8,2.6c3.2.2,6.5.4,9.7.4h1.4a12.44,12.44,0,0,0,1-2c1.2-2.9,5.9-8,11-13l.7-.7c7.3-7.1,15.2-13.8,15.2-13.8l.8-48.7s-1.7,2.3-4.2,5.4c-4.5,5.6-11.5,13.9-14.8,15.2C167,364.5,129.2,410.9,129.2,410.9Z" transform="translate(0.02 -0.78)"/><path class="cls-4" d="M129.2,410.9a15.59,15.59,0,0,0,.9,1.5,39.79,39.79,0,0,0,3.5,4.6,134,134,0,0,0,17.8,2.6c3.2.2,6.5.4,9.7.4h1.4a12.44,12.44,0,0,0,1-2c1.2-2.9,5.9-8,11-13l.7-.7c7.3-7.1,15.2-13.8,15.2-13.8l.8-48.7s-1.7,2.3-4.2,5.4c-4.5,5.6-11.5,13.9-14.8,15.2C167,364.5,129.2,410.9,129.2,410.9Z" transform="translate(0.02 -0.78)"/><path class="cls-4" d="M149,404a66.3,66.3,0,0,0,12.6,0C169.2,403.3,163.5,407.8,149,404Z" transform="translate(0.02 -0.78)"/><path class="cls-4" d="M145.6,408.8s9.9,5.7,13.8,2.8S155.7,414.4,145.6,408.8Z" transform="translate(0.02 -0.78)"/><path class="cls-19" d="M185.7,289.2a3.89,3.89,0,0,1,.2,2.8,5.82,5.82,0,0,0-.4,3.2c.1.6.2,1.3.3,1.9s.3,1.1.3,1.1l1.7,37.5a88.9,88.9,0,0,1-.8,11.5c-.5,4-1.5,8.1-3,10.5-3.4,5.2-7.8,39.2-8.7,46.5l-.2,1.4-.1,13.5a105.32,105.32,0,0,0,31.2-8.4c1.6-.7,3.1-1.5,4.6-2.2l.8-.4.4-.2h0c.7-3.5,1.3-6.8,1.8-9.4l.1-.4c.1-.4.1-.7.2-1s.1-.6.2-.9a1.49,1.49,0,0,0,.1-.6c.2-1.1.3-1.8.3-1.8a27,27,0,0,1,.4-2.8h0a13.19,13.19,0,0,1,3.6-6.9,9.19,9.19,0,0,0,2.2-4.4h0a31,31,0,0,0,.3-9.6,1,1,0,0,0,.5-.4c1.2-.8,4.3-3.5,6-9.3.2-.8.4-1.7.6-2.5,1.7-9.3,7.2-29.6,7.2-29.6l.6-1.5h0c.1-.3.3-.7.4-1.1,0-.1,0-.1.1-.2l.1-.2h0c2.9-8.2,10.1-30.5,9.5-45.7-.8-18.9,1.1-28.8,1.1-28.8l2.4-44v-1.1l.2-4.1-21.8-.6h-1.3l-5.2-.2h-.8l-7-.2-3.1-.1-5.6-.2h-2.2l-4.4-.1-12.7,7.4s-.5,1.2-1.3,3.2c-.2.4-.4.9-.6,1.4s-.4,1.1-.7,1.7l-1.8,4.3-.6,1.5c-2.7,6.4-5.7,13.4-7.3,16.3-1.9,3.5-2,16,.6,28,1.6,7.4,4.4,14.7,8.4,19.6A28,28,0,0,1,185.7,289.2Z" transform="translate(0.02 -0.78)"/><path class="cls-4" d="M199.9,390.3s7.8,6.1,11,6.1S199.9,390.3,199.9,390.3Z" transform="translate(0.02 -0.78)"/><path class="cls-17" d="M246.6,133.9v12.5l-8.3-3.6-8.2-3.6-17.9-17.6S198,112.4,190.4,104c-4.3-4.8-6.5-9.3-2.7-11.7a25.2,25.2,0,0,0,4.9-4.3,85.21,85.21,0,0,0,9.9-14.6,2.09,2.09,0,0,1,.4-.6c3.7-6.8,6.1-12.6,6.1-12.6s10.4,3.3,17.1,8l1.5,1.2c3.7,3.1,5.6,6.6,2.1,10.1a34.67,34.67,0,0,0-2.5,2.9h0a15.76,15.76,0,0,0-1.5,2.4c-.2.4-.4.7-.6,1.1a25.68,25.68,0,0,0-2.3,15.2Z" transform="translate(0.02 -0.78)"/><path class="cls-11" d="M245.1,44.6c.4.7,1,1.4,1.4,2.2a10.51,10.51,0,0,1,.6,5.3,34.71,34.71,0,0,0,.5,8.5c.6,2.5,1.7,4.9,1.8,7.5.1,3.6-1.8,7-3.6,10.1a7.28,7.28,0,0,0,5.2-2.4,5,5,0,0,1-1,4.7c3-.1,5.5-2.5,6.6-5.2a18.72,18.72,0,0,0,.9-8.8,52.55,52.55,0,0,1-.6-8.9,38.66,38.66,0,0,0,.3-4.8c-.3-3.2-2.3-6-4.2-8.6l-3.9-5.3a2.66,2.66,0,0,0-1.1-1C244.5,36.1,244.1,42.8,245.1,44.6Z" transform="translate(0.02 -0.78)"/><path class="cls-4" d="M229.8,79.6a34.67,34.67,0,0,0-2.5,2.9h0a15.76,15.76,0,0,0-1.5,2.4c-.2.4-.4.7-.6,1.1A30.06,30.06,0,0,1,211,81.5a29.36,29.36,0,0,1-8.1-7.6,1.76,1.76,0,0,0-.4-.5,2.09,2.09,0,0,1,.4-.6c3.7-6.8,6.1-12.6,6.1-12.6s10.4,3.3,17.1,8l1.5,1.2C231.4,72.5,233.3,76,229.8,79.6Z" transform="translate(0.02 -0.78)"/><path class="cls-17" d="M256.8,55.1a30,30,0,0,1-24.4,29.4,32.87,32.87,0,0,1-5.4.5h-1.1a30.14,30.14,0,0,1-14.8-4.5,27.94,27.94,0,0,1-8.1-7.6,29.83,29.83,0,1,1,53.8-17.8Z" transform="translate(0.02 -0.78)"/><path class="cls-4" d="M230.9,128.8s15,8.5,11.2,1.3l-19.6-29h0l22.3,28.6s14.2,19.5,6.4,33c0,0-1.1,11.2.2,13.8s-.4,30.9-.4,30.9-5.3-4.9-8.1-4S220,206,220,206Z" transform="translate(0.02 -0.78)"/><path class="cls-4" d="M249.6,201.6l-.3,5.2c-1.8-1.3-4.3-2.8-6-2.2-2.8.9-22.9,2.7-22.9,2.7l.9-6.5Z" transform="translate(0.02 -0.78)"/><path class="cls-11" d="M231.5,128.8s15,8.5,11.2,1.3l-19.6-29h0l22.3,28.6s14.2,19.5,6.4,33c0,0-1.1,11.2.2,13.8s-.4,30.9-.4,30.9-5.3-4.9-8.1-4-22.9,2.6-22.9,2.6Z" transform="translate(0.02 -0.78)"/><path class="cls-4" d="M239.5,143.4c-.9,9.1-4.6,19.9-4.6,19.9s-2.6,26.9-6,34.9-1.9,18.9-3.8,39.2c-.7,7.3-3,12.3-6.2,15.7-5.2,5.6-12.7,6.7-18.6,6.4-.5,0-.9-.1-1.4-.1-9.5-1-18.6-46.6-18.6-46.6s-4.4-38.8-2.6-44.1-1.7-35.6-2.8-42.2c-.7-4.2,1.4-11.1,3.1-15.5,1-2.6,1.8-4.4,1.8-4.4s3.2-10.2,8.5-15.5a8,8,0,0,1,5.6-2.4,14.43,14.43,0,0,1,7,2.2l.2.2s34.5,35.2,37.7,43.4C239.7,136.6,239.8,139.9,239.5,143.4Z" transform="translate(0.02 -0.78)"/><path class="cls-19" d="M238.3,142.8c-.9,9.1-4.6,19.9-4.6,19.9s-2.6,26.9-6.1,34.9-1.9,18.9-3.8,39.2c-.7,7.3-3,12.3-6.2,15.7-5.2,5.6-12.7,6.7-18.6,6.4l-1.4-.1c-9.5-.9-18.6-46.6-18.6-46.6s-4.4-38.8-2.6-44.1-1.7-35.6-2.8-42.2c-.7-4.2,1.4-11.1,3.1-15.5,1-2.6,1.8-4.4,1.8-4.4s3.2-10.2,8.5-15.5a8,8,0,0,1,5.6-2.4,14.43,14.43,0,0,1,7,2.2l.2.2s34.5,35.2,37.7,43.4C238.6,136,238.7,139.3,238.3,142.8Z" transform="translate(0.02 -0.78)"/><path class="cls-4" d="M199.7,281.5s-7.8,7-10.5,6.7S199.7,281.5,199.7,281.5Z" transform="translate(0.02 -0.78)"/><path class="cls-4" d="M201.8,288.2s-8.2,3.8-10.7,4.4S198.6,287.2,201.8,288.2Z" transform="translate(0.02 -0.78)"/><path class="cls-4" d="M233.7,183.6s12.2.1,14.1,4S237.7,182,233.7,183.6Z" transform="translate(0.02 -0.78)"/><path class="cls-4" d="M232,190.3s9.4,2,12.2,4.3S232,190.3,232,190.3Z" transform="translate(0.02 -0.78)"/><path class="cls-4" d="M216.2,167.1s-1.1,38.5-5.3,43.5S216.2,167.1,216.2,167.1Z" transform="translate(0.02 -0.78)"/><path class="cls-4" d="M205.7,275.9s-7.8,34,7.9,36.1,10.9-38.6,10.9-38.6Z" transform="translate(0.02 -0.78)"/><path class="cls-17" d="M205.1,275.4s-7.8,34,7.9,36.1,10.9-38.6,10.9-38.6Z" transform="translate(0.02 -0.78)"/><path class="cls-4" d="M256.6,51.8a10.34,10.34,0,0,1-1.1-2.1c-2.1-4.3-7.5-2.2-11.4-.1L242,52.3a14.67,14.67,0,0,0-2.4,3.7c-.4,1.1-.7,2.2-1,3.3a37.79,37.79,0,0,1-2.1,5.6,64.76,64.76,0,0,0-4.2,19.5,32.87,32.87,0,0,1-5.4.5h-.1v-.1a18.92,18.92,0,0,0,.5-2.3h0a40.53,40.53,0,0,0,.3-13v-.3c-.1-1-.3-1.9-.4-2.9-.4.7-.7,1.3-1.1,2-2.4,4.5-4.9,8.8-9.4,10.8a21.52,21.52,0,0,1-5.7,1.3,28.53,28.53,0,0,0-7.1,1.2,5.49,5.49,0,0,0-2.1,1.2,5.71,5.71,0,0,0-1,3.1,20.88,20.88,0,0,1-1.1,4.3,38.89,38.89,0,0,1-9.2,13.8l-1,1a18.49,18.49,0,0,1-6.1,4.2,18,18,0,0,1-6.5,1c1-2.6,1.8-4.4,1.8-4.4s3.2-10.2,8.5-15.5a8,8,0,0,1,5.6-2.4A91.75,91.75,0,0,0,203,72.7a29.82,29.82,0,1,1,53.6-20.9Z" transform="translate(0.02 -0.78)"/><path class="cls-11" d="M258.5,28.5c-1.8-2-4.2-3.1-6.6-4.2a4.74,4.74,0,0,1-2.1-1.6,8.28,8.28,0,0,1-.7-2.7c-.8-5.8-6.2-9.8-11.5-12.1-6.9-3-15.1-4.3-21.7-.7-3.2,1.7-5.7,4.5-8.6,6.7-3.7,2.8-7.9,4.8-11.8,7.2s-7.6,5.5-9.5,9.8c-2.9,6.5-.7,14-.4,21.1.6,11.2-4,22.9-13.1,29.6a11.63,11.63,0,0,0-2.9,2.5,3.15,3.15,0,0,0-.2,3.6c.4.6,1.2,1,1.7,1.6,1,1.2.8,3,.4,4.5a28.22,28.22,0,0,1-7.6,13c.1,1.2,1.6,1.6,2.7,1.8a58.24,58.24,0,0,0,9.3.7,15.67,15.67,0,0,0,13-5.2c5.5-5.2,10.2-11.7,11.4-19.1a6.68,6.68,0,0,1,1-3.1,4.45,4.45,0,0,1,2.1-1.2c4.1-1.4,8.8-.7,12.8-2.5,5.2-2.2,7.7-7.7,10.4-12.8.1,1,.3,1.9.4,2.9a39.08,39.08,0,0,1-.8,15.6c-.7,2.9-1.8,5.8-1.7,8.7.1,2.2,2.3,13.8,5.2,10.3s1.9-11.1,1.9-15.4A67.42,67.42,0,0,1,235.9,64c.7-1.9,1.5-3.7,2.1-5.6.3-1.1.6-2.2,1-3.3a14.67,14.67,0,0,1,2.4-3.7l2.1-2.7c3.9-2.1,9.3-4.2,11.4.1.8,1.7,1.2,3.5,3.3,1.9,1.2-1,1.6-2.8,2-4.3C261.6,40.2,262.7,33.1,258.5,28.5Z" transform="translate(0.02 -0.78)"/><path class="cls-4" d="M218.5,132.8c-.8-20.4-29.4-24.6-36-5.3a.6.6,0,0,0-.1.4c-4.4,13.1-2.5,46.2-2.5,46.2s.6,22.2,2.7,29.6,7.9,28.6,7.9,32,5.4,16.5,7.7,17.4,3.5,8.3,4,9.7,2.2,18.6,2.2,18.6,21.4-1.3,21.8-4.7-4.7-20.1-4.7-20.1-3.8-6.8-4.2-12.3-3.5-8-2.9-11.7-1.7-5.7-1.7-8.1-1.7-9.1-1.7-9.1-3.6-2.8-3-6.2-5.1-10.2-3.6-12.7,1.9-8.5,1.9-8.5,1.9-27.3,3.2-34.7,9.1-19.3,9.1-19.3A8.33,8.33,0,0,0,218.5,132.8Z" transform="translate(0.02 -0.78)"/><path class="cls-4" d="M217.7,252.5c-5.2,5.6-12.7,6.7-18.6,6.4-.7-2.6-1.7-5.8-3.1-6.4-2.3-1-7.7-14-7.7-17.4s-5.9-24.6-8-32-2.6-29.6-2.6-29.6-1.9-33.1,2.5-46.2c0-.1.1-.3.1-.4,6.7-19.3,35.2-15.1,36,5.3v.9s-7.8,11.9-9.1,19.3-3.2,34.7-3.2,34.7-.4,6.1-1.9,8.5,4.2,9.3,3.6,12.7,3,6.2,3,6.2,1.7,6.6,1.7,9.1,2.3,4.4,1.7,8.1,2.5,6.2,2.9,11.8A27.63,27.63,0,0,0,217.7,252.5Z" transform="translate(0.02 -0.78)"/><path class="cls-19" d="M217.4,132.2c-.8-20.4-29.4-24.6-36-5.3,0,.1-.1.3-.1.4-4.4,13.1-2.5,46.2-2.5,46.2s.6,22.2,2.6,29.6,8,28.6,8,32,5.4,16.5,7.7,17.4,3.4,8.3,4,9.7,2.3,18.6,2.3,18.6,21.4-1.3,21.8-4.7-4.7-20.1-4.7-20.1-3.8-6.8-4.3-12.3-3.5-8-2.9-11.7-1.7-5.7-1.7-8.1-1.7-9.1-1.7-9.1-3.6-2.9-3-6.3-5.1-10.2-3.6-12.7,1.9-8.5,1.9-8.5,1.9-27.3,3.2-34.7,9.1-19.3,9.1-19.3A5,5,0,0,1,217.4,132.2Z" transform="translate(0.02 -0.78)"/><path class="cls-4" d="M182.2,184.7c.6-.6,11.4-12.5,14.8-8.2S182.2,184.7,182.2,184.7Z" transform="translate(0.02 -0.78)"/><path class="cls-4" d="M183.2,194c.4-.4,10.8-.9,13.4-6.7S183.2,194,183.2,194Z" transform="translate(0.02 -0.78)"/><g class="cls-15"><path d="M171.4,89.2a2.07,2.07,0,0,1,.6,1,4.54,4.54,0,0,0-.6-3.9c-.5-.6-1.2-.9-1.7-1.5l-.1-.2a2.94,2.94,0,0,0,.1,3C170.2,88.3,170.9,88.6,171.4,89.2Z" transform="translate(0.02 -0.78)"/><path d="M185.9,52.4V49.2c-.2-3.9-.9-7.8-1.1-11.7-.2,4.7.8,9.7,1.1,14.6Z" transform="translate(0.02 -0.78)"/><path d="M230.2,99.8c-2.6,3.1-4.7-5.8-5.1-9.3a10.87,10.87,0,0,0-.1,1.8c.1,2.2,2.3,13.8,5.2,10.3,2-2.3,2.2-6.3,2.1-10C232.1,95.4,231.7,98.1,230.2,99.8Z" transform="translate(0.02 -0.78)"/><path d="M227.4,68a34.19,34.19,0,0,1,.4,4.5,35.39,35.39,0,0,0-.4-7.3c-.1-1-.3-1.9-.4-2.9-2.7,5.1-5.3,10.6-10.4,12.8-4,1.7-8.7,1-12.8,2.5a5.49,5.49,0,0,0-2.1,1.2,5.71,5.71,0,0,0-1,3.1c-1.2,7.5-5.9,14-11.4,19.1a15.67,15.67,0,0,1-13,5.2,58.24,58.24,0,0,1-9.3-.7,7.37,7.37,0,0,1-1.4-.4,9.27,9.27,0,0,1-1.4,1.4c.2,1.2,1.6,1.6,2.7,1.8a58.24,58.24,0,0,0,9.3.7,15.67,15.67,0,0,0,13-5.2c5.5-5.2,10.2-11.7,11.4-19.1a5.71,5.71,0,0,1,1-3.1,4.45,4.45,0,0,1,2.1-1.2c4.1-1.4,8.8-.7,12.8-2.5,5.2-2.2,7.7-7.7,10.4-12.8C227.1,66.1,227.3,67.1,227.4,68Z" transform="translate(0.02 -0.78)"/><path d="M260.6,43.3c-.3,1.4-.7,3.3-2,4.3-2.1,1.6-2.5-.2-3.3-1.9-2.1-4.3-7.5-2.2-11.4-.1l-2.1,2.7a14.67,14.67,0,0,0-2.4,3.7c-.4,1.1-.7,2.2-1,3.3a37.79,37.79,0,0,1-2.1,5.6A65.2,65.2,0,0,0,232,84.4v1.2a67.6,67.6,0,0,1,4.3-21.8c.7-1.9,1.5-3.7,2.1-5.6.3-1.1.6-2.2,1-3.3a14.67,14.67,0,0,1,2.4-3.7l2.1-2.7c3.9-2.1,9.3-4.2,11.4.1.8,1.7,1.2,3.5,3.3,1.9,1.2-1,1.6-2.8,2-4.3A35.1,35.1,0,0,0,261.7,36,58.37,58.37,0,0,1,260.6,43.3Z" transform="translate(0.02 -0.78)"/></g><path class="cls-11" d="M286.4,150.9l.6.4a2.38,2.38,0,0,1-.6-3.3h0l26.3-38.2a2.38,2.38,0,0,1,3.3-.6l-.6-.4a3.73,3.73,0,0,1,1,5.2h0l-24.8,35.8a3.65,3.65,0,0,1-5.2,1.1Z" transform="translate(0.02 -0.78)"/><path class="cls-20" d="M315.5,108.9l.6.4h0l-29,42.1h0l-.6-.4a1.65,1.65,0,0,1-.4-2.4l27-39.2A1.6,1.6,0,0,1,315.5,108.9Z" transform="translate(0.02 -0.78)"/><path class="cls-11" d="M312.3,114.7l.1.1c.1.1.1.2,0,.2l-2.2,3.2c-.1.1-.2.1-.2,0l-.1-.1c-.1-.1-.1-.2,0-.2l2.2-3.2C312.1,114.6,312.3,114.6,312.3,114.7Z" transform="translate(0.02 -0.78)"/></g><path class="cls-21" d="M814.2,759.6l-8-25.5s-6.7-18.1-5.6-27.8-2.2-20.3-2.2-20.3l6.6-34.2a75.68,75.68,0,0,0,.3-8.7c0-8.2-1.2-19.7-6.8-22.7-9.1-4.8-27.7-45.3-31.6-45.3s-16.4-2.6-16.4-7v-.7c0-.1-.1-.2-.1-.3l-.1-.2-.2-.4-.1-.1a10.77,10.77,0,0,0-1.8-2.4c16.9-3.2,33.8-6.8,50.5-10.9h-.6l.6-.2a51.62,51.62,0,0,1-6.7-.5l-.5.1c-24.6-3.4-46.8-22.6-52.8-47-6.7-27,5-55.2,4.5-83a95.9,95.9,0,0,0-15.1-49.6c-1.3-2-2.6-3.9-4.1-5.8a38.07,38.07,0,0,0,17.6-50.8,40.79,40.79,0,0,0-2.9-5c-.4-.6-.9-1.2-1.3-1.8a38.06,38.06,0,0,1-6.2,47.1A37.77,37.77,0,0,0,665,320.2a5.74,5.74,0,0,1-.4.7,24.43,24.43,0,0,0-2.4-1,37.78,37.78,0,0,1,33.1-24.7c-.8,0-1.5-.1-2.2-.1a37.78,37.78,0,0,0-34.8,23.3c-11.3-4.1-23.1-5.9-34.8-2.9a33.54,33.54,0,0,0-6.3,2.2l.5-.4a28.54,28.54,0,0,0-7.9,5c-3.5,3.2-5.9,7.4-8.9,11.1a48.53,48.53,0,0,1-10.6,9.6,4.67,4.67,0,0,1,1-.5c-13.4,9.5-31.6,12.2-46.9,6.1-4.3-1.7-8.5-4.1-13-4.7a20.14,20.14,0,0,0-10.3,1.5c.1-.1.3-.2.4-.3a26.84,26.84,0,0,0-10.8,8.1c-5,6.2-7.5,14-9.3,21.7a72.63,72.63,0,0,0-2,16.7c.1,7.2,1.7,14.2,6,19.8,6.7,8.7,15.8,11,25.3,12.6-.3,1-.5,1.9-.8,2.9a86,86,0,0,0,59.4,103.7l1.8,3.1.6.1c4.4,7.5,9.3,15.9,13.8,24,.2.4.5.9.7,1.3l-8.5,4.4h0c-2.2,1.2-7.8,4.2-10.8,7.1a6.9,6.9,0,0,0-2,2.8c-1.3,4.4-8.2,15.7-13,18.7s-8.7,17.8-8.2,25.7-2.6,7-10.4,7.4,0,11.8,0,11.8l.2.8c-.4.6-.8,1.3-1.2,2-2,3.1-4.6,6.5-6.5,6.3-3.5-.3-5.6,8.2-5.4,9.5s-6.1,11.8-8.4,12.8-12.5,3.2-9.7,12.9L510,693.9l-10,9.6s-14.3-8.1-37.4,17a22.18,22.18,0,0,1,7.7.7l-.7.3c-6.1,2.9-16.7,7.8-24.5,11l-41.6,1.3v-31s-3.7-8.7-8,0l-1.1,31.3L304,737l16.9-18h0l.2-.2a14.66,14.66,0,0,0,3.3-14.7L253.8,482h0l-.5-1.6a12.24,12.24,0,0,0-10-8.4l-98.2-13.2-.7-.1-9,2.5a8.85,8.85,0,0,0-6.2,10.9v.1c2.3,8,6.1,21.1,11,37.5H126.6L137,599.4l6.3,34.5c1.6,8.8,3.5,17.5,5.7,26.2,5.2,21,15.5,65.8,15.8,91.8l-76,82.9v16.8H574.3c0,.1,0,.1.1.2H811s-2.6-4.6,3-11.1,2.8-32.4,2.8-32.4-3.1-4.1.7-13.3S814.2,759.6,814.2,759.6ZM211,740l-12.9.4-12-78.1C195,690.9,203.7,718,211,740Zm332.2,47.5-8.4-17.1a8.7,8.7,0,0,0,5.4-1.5c5.4-3.9,8.7-13.1,8.7-13.1l14.5-17.2,1.2-1.4c2.9,8.2,6.4,14.7,9.2,17.8,6.9,7.8,7.8,30.5,9.9,38.7s.5,4.8,0,9.6a10.4,10.4,0,0,0,.3,3.5C574.5,796.5,560.9,787.2,543.2,787.5Z" transform="translate(0.02 -0.78)"/><polygon class="cls-22" points="93.82 834.22 179.22 741.72 518.22 730.82 577.42 850.82 93.82 850.82 93.82 834.22"/><polygon class="cls-9" points="93.82 834.22 179.22 741.72 518.22 730.82 577.42 850.82 93.82 850.82 93.82 834.22"/><path class="cls-22" d="M535.4,827.3v3.2a6.23,6.23,0,0,1-6.2,6.2H347c-3.5,0,0-6.9,0-6.9l-2.1-45.1a7.52,7.52,0,0,1,5.6-7.6c10.1-2.6,17.1,1.5,17.1,1.5l112.9-2.9a41,41,0,0,1,7,.3,30.36,30.36,0,0,1,20.7,12.3l25.9,35.2A5.85,5.85,0,0,1,535.4,827.3Z" transform="translate(0.02 -0.78)"/><path class="cls-4" d="M535.4,830.5h0a6.23,6.23,0,0,1-6.2,6.2H347c-3.5,0,0-6.9,0-6.9s10.1-4.9,25-4l133-2.9s15.7.4,24.9,1.4A6.19,6.19,0,0,1,535.4,830.5Z" transform="translate(0.02 -0.78)"/><polygon class="cls-7" points="483.72 782.72 369.42 782.72 372.52 817.52 505.02 815.22 483.72 782.72"/><path class="cls-22" d="M289.8,808v12L170,824.9s-27.4-1.9-30.8-18.7a15.68,15.68,0,0,1,.1-5.3c1.2-7.1,7.3-19.5,34.1-25.2l33-3.4H280S289.5,781.8,289.8,808Z" transform="translate(0.02 -0.78)"/><path class="cls-4" d="M289.8,808.3V820L170,824.9s-27.4-1.9-30.8-18.7a15.68,15.68,0,0,1,.1-5.3s16.6,15.7,39,13.4l105.4-4.6A60.12,60.12,0,0,0,289.8,808.3Z" transform="translate(0.02 -0.78)"/><ellipse class="cls-4" cx="197.81" cy="789.92" rx="36.8" ry="6.3" transform="translate(-40.37 10.45) rotate(-2.95)"/><path class="cls-22" d="M209.5,786.9l-19.4,9.6-20.6-4.9-.1-33.6c1.3-24.5-10-73.6-15.6-95.9-2.2-8.6-4-17.3-5.6-26l-6.3-34.2-10.3-88.7h24.6l14.4,20.7Z" transform="translate(0.02 -0.78)"/><path class="cls-22" d="M209.5,786.9l-19.4,9.6-12.4-71.8c.2-12.2-15.1-70.3-16.1-72.7C149.5,622.9,139,513.3,139,513.3h17.1l14.4,20.6Z" transform="translate(0.02 -0.78)"/><path class="cls-23" d="M209.5,786.9l-19.4,9.6-12.4-71.8c.2-12.2-15.1-70.3-16.1-72.7C149.5,622.9,139,513.3,139,513.3h17.1l14.4,20.6Z" transform="translate(0.02 -0.78)"/><path class="cls-22" d="M325,720.3l-66,69.5-7.7.5-9.4.7a10.65,10.65,0,0,1-10.5-6.3c-20-45-83.9-262.6-97.4-308.7a8.66,8.66,0,0,1,5.9-10.8c.1,0,.1,0,.2-.1l9-2.4.7.1L246,475.7a14.73,14.73,0,0,1,12,10.1l70.4,219.9A14.75,14.75,0,0,1,325,720.3Z" transform="translate(0.02 -0.78)"/><path class="cls-4" d="M325,720.3l-66,69.5-7.7.5-9.4.7a10.65,10.65,0,0,1-10.5-6.3c-20-45-83.9-262.6-97.4-308.7a8.66,8.66,0,0,1,5.9-10.8c.1,0,.1,0,.2-.1l9-2.4.7.1L246,475.7a14.73,14.73,0,0,1,12,10.1l70.4,219.9A14.75,14.75,0,0,1,325,720.3Z" transform="translate(0.02 -0.78)"/><path class="cls-22" d="M324.8,720.6,259,789.9l-7.7.5-98.7-316a30.84,30.84,0,0,1-2.8-11.5L247.6,476a12.13,12.13,0,0,1,9.9,8.3l70.8,221.1A15.41,15.41,0,0,1,324.8,720.6Z" transform="translate(0.02 -0.78)"/><path class="cls-7" d="M320,708.9a14,14,0,0,1-2.7,3.3l-64.7,60.2L164.3,479.6l84.8,8.4a15,15,0,0,1,12.8,10.5L321.5,697A15,15,0,0,1,320,708.9Z" transform="translate(0.02 -0.78)"/><path class="cls-4" d="M320,708.9,249.1,488a15,15,0,0,1,12.8,10.5L321.5,697A15,15,0,0,1,320,708.9Z" transform="translate(0.02 -0.78)"/><circle class="cls-24" cx="700.32" cy="343.32" r="37.5"/><path class="cls-24" d="M662.3,338.6a37.57,37.57,0,0,1,35.3-37.5c-.7,0-1.5-.1-2.2-.1a37.56,37.56,0,1,0-1.3,75.1h1.2a15.48,15.48,0,0,0,2.2-.1A37.46,37.46,0,0,1,662.3,338.6Z" transform="translate(0.02 -0.78)"/><path class="cls-4" d="M667.2,344.1a37.57,37.57,0,0,1,35.3-37.5c-.7,0-1.5-.1-2.2-.1a37.56,37.56,0,0,0,0,75.1,15.48,15.48,0,0,0,2.2-.1A37.34,37.34,0,0,1,667.2,344.1Z" transform="translate(0.02 -0.78)"/><path class="cls-25" d="M507,765.2a87.25,87.25,0,0,1-10.8,4.9c-9.7,3.8-24.4,8.2-38.1,6.5-23-2.8-36.8,4.7-36.8,4.7L416.1,743s17-5,23.9-6.2c5.2-1,23.9-9.6,32.8-13.8l4.9-2.3h17.2Z" transform="translate(0.02 -0.78)"/><path class="cls-4" d="M507,765.2a87.25,87.25,0,0,1-10.8,4.9c-1.2-34.2-14.3-44.3-23.3-47.2l4.9-2.3H495Z" transform="translate(0.02 -0.78)"/><path class="cls-26" d="M570.8,650.6v84l-4.5,5.3L551.8,757s-3.2,9-8.6,12.9-17.7-1.3-17.7-1.3l-3.5,5.6s-7.8,1.5-11.4,0-12.7,4.3-12.7,4.3c1.3-61.6-32.1-56.7-32.1-56.7C488.9,697,503.1,705,503.1,705l9.9-9.5,12.3-12.4c-2.8-9.6,7.3-11.7,9.7-12.8s8.6-11.4,8.4-12.7,1.9-9.7,5.4-9.4c1.9.2,4.5-3.2,6.5-6.2a43,43,0,0,0,2.7-4.7Z" transform="translate(0.02 -0.78)"/><path class="cls-26" d="M600.6,566.6l25.4-13-1.4,15.2,5,15.3s-4.6,11.8-5.2,13.1-11.5,28.3-11.5,28.3l-8.8-11.1Z" transform="translate(0.02 -0.78)"/><polyline class="cls-4" points="604.22 613.72 600.62 565.82 626.02 552.82"/><path class="cls-25" d="M709.8,552.3s-8.4,12.1-20,27.6c-26.9,36-70.7,90-64,50.8.2-1.3.4-2.6.5-3.8-1.6,1.1-5.4.1-9.5-1.8l-.3-.1a41.92,41.92,0,0,1-5.8-3.4c-.2-.1-.4-.3-.6-.4-4.5-3.2-8.2-6.9-8-9.4,3.2-56.2,16.3-29.4,20-23.2a8.34,8.34,0,0,0,.8,1.2c-.2-.4-.3-.9-.5-1.4-2.6-6.3-7.5-15.8-13.1-25.9v-.1l-.8-1.3c-4.7-8.3-9.8-17.1-14.3-24.7l-1.2-2.1c-7.2-12.1-12.8-21.1-12.8-21.1s32.7-29.9,60.3-48.1c23-15.2,42.5-22.2,36.2,3.3-4,16.4-2.8,30.4.9,42,.1.4.3.9.4,1.3a51.81,51.81,0,0,0,2.6,6.5,69,69,0,0,0,4.5,8.5A81.53,81.53,0,0,0,709.8,552.3Z" transform="translate(0.02 -0.78)"/><path class="cls-23" d="M658.9,506.9c-15.5,16.8-18.8,33-43.5,33a85.19,85.19,0,0,1-21.3-2.7c-7.8-13.1-14-23.2-14-23.2s110.2-100.8,96.5-44.8C672.4,486.1,654.9,495,658.9,506.9Z" transform="translate(0.02 -0.78)"/><path class="cls-25" d="M700.3,452.3a84.9,84.9,0,1,1-84.9-84.9h0a84.52,84.52,0,0,1,84.9,84.1Z" transform="translate(0.02 -0.78)"/><path class="cls-4" d="M613.4,599.3s1.5,24.1,16.8,22.2,3.7,51.3,3.7,51.3l-17,15.5-18.3,5.6s-16.2-4.7-15.9-5.6,6.5-51.3,6.5-51.3l9.5-26.9Z" transform="translate(0.02 -0.78)"/><path class="cls-22" d="M613.4,601s1.5,24.1,16.8,22.2,3.7,51.3,3.7,51.3l-17,15.5-18.3,5.6s-16.2-4.7-15.9-5.6,6.5-51.3,6.5-51.3l9.5-26.9Z" transform="translate(0.02 -0.78)"/><path class="cls-4" d="M570.8,650.6v84l-4.5,5.3c-4.7-12.3-8.2-29.1-6-44.1,2.8-19.9-2.8-45.5-4.9-53.7a43,43,0,0,0,2.7-4.7Z" transform="translate(0.02 -0.78)"/><path class="cls-4" d="M615.4,603.6a46.38,46.38,0,0,1-3.7,13.7c-.6,1.3-1.1,2.6-1.7,3.8-4.5-3.2-8.2-6.9-8-9.4,3.2-56.2,16.3-29.4,20-23.2C620.2,589.9,616.2,593.9,615.4,603.6Z" transform="translate(0.02 -0.78)"/><path class="cls-4" d="M622.3,588.3c-2.7-6.6-8-16.7-13.9-27.3l.8-.4L622.9,588Z" transform="translate(0.02 -0.78)"/><path class="cls-4" d="M709.8,552.3s-93.5,134.5-84,78.4c.2-1.3.4-2.6.5-3.8-1.7,1.1-5.6.1-9.8-1.9.6-3.7,1-6.3,1-6.3l10.3-29.3s6-23.3,5.2-28l.3-.2,51.5-34.5h0A82.52,82.52,0,0,0,709.8,552.3Z" transform="translate(0.02 -0.78)"/><path class="cls-26" d="M806.7,654l-7.3,37.9-22,159.9H586.5s3.4-28,3.4-32.3-3.9-10.8-3.4-15.5,2.1-1.3,0-9.5-3-30.6-9.9-38.3-18.1-36.2-14.7-60.3-5.6-56.5-5.6-56.5-7.8-11.2,0-11.6,10.8.4,10.3-7.3,3.4-22.4,8.2-25.4,11.6-14.2,12.9-18.5a6.9,6.9,0,0,1,2-2.8c3.9-3.7,11.8-7.5,11.8-7.5l7.5-3.8v.1l13.7,27.3s-6.4,3.1-7.5,15.6a46.38,46.38,0,0,1-3.7,13.7c-.4.9-.7,1.7-1.1,2.5-1.1,2.4-2.2,4.6-3.2,6.3h0c-1.4,2.5-2.4,4.1-2.4,4.1s-.4,2.9-.9,7h0c-1.2,8.4-3.1,21.7-4.2,24.8-1,2.8-3,7.7-4.1,12-.7,2.7-1.1,5.2-.7,6.9,0,.1.1.3.1.4,1.3,4,7.8-13.2,7.8-13.2s4.7-14.7,6.9-14.7c1.7,0,5.4-20.7,7-30.2.5-2.8.8-4.7.8-4.7l10.3-29.3s1.4-5.5,2.8-11.8c1.4-6.5,2.8-13.8,2.4-16.3l.3-.2,51.5-34.5h0l.8-.5h-.1c-.4,0-1.4-.6-3.4-5.3-.5-1.2-1.1-2.6-1.7-4.4,0,0,16.5-6.6,22.3-1.8a5.24,5.24,0,0,1,1,1.1,2.51,2.51,0,0,1,.4.7c3.9,8,5.6,14,9.5,19.2a10.7,10.7,0,0,0,1.4,1.6c4.7,4.9,14,10.7,12.4,12.2-1.7,1.7,12.9,9,12.9,9s8.6,4.9,11.3,9a4.19,4.19,0,0,1,.8,2.2c0,4.3,12.5,6.9,16.4,6.9s22.4,40.1,31.5,44.8S806.7,654,806.7,654Z" transform="translate(0.02 -0.78)"/><g class="cls-15"><path d="M613.4,589.7s-6.4,3.1-7.5,15.6a46.38,46.38,0,0,1-3.7,13.7c-1.3,3-2.7,6-4.2,8.8h0c-1.4,2.5-2.4,4.1-2.4,4.1s-.4,2.9-.9,7h0c-1.1,8.5-3.1,21.7-4.3,24.9-1,2.8-3,7.7-4.1,12-.7,2.7-1.1,5.2-.7,6.9,0,.1.1.3.1.4,1.3,4,7.8-13.2,7.8-13.2s4.7-14.7,6.9-14.7c.6,0,1.5-2.9,2.5-6.9.5-3.3,1-6.5,1.3-9.3h0c.6-4.1.9-7,.9-7s.6-.9,1.5-2.4c.9-5.3,1.6-9.2,1.6-9.2l10.3-29.3s.8-2.9,1.7-6.9l-11-21.9-7.5,3.8h0Z" transform="translate(0.02 -0.78)"/><path d="M800.2,623c-9-4.7-27.6-44.8-31.5-44.8s-16.4-2.6-16.4-6.9-12.1-11.2-12.1-11.2-14.7-7.3-12.9-9c1.5-1.6-7.7-7.3-12.4-12.2-.5-.5-.9-1-1.4-1.6-3.9-5.2-5.6-11.2-9.5-19.2a4.35,4.35,0,0,0-.4-.7,10,10,0,0,0-1-1.1c-2.6-2.2-7.4-2-11.9-1.2a9,9,0,0,1,2.4,1.2,5.24,5.24,0,0,1,1,1.1,2.51,2.51,0,0,1,.4.7c3.9,8,5.6,14,9.5,19.2a19.2,19.2,0,0,0,1.4,1.5c4.7,4.9,14,10.7,12.4,12.2-1.7,1.7,12.9,9,12.9,9s12.1,6.9,12.1,11.2,12.5,6.9,16.4,6.9,22.4,40.1,31.5,44.8,6.5,31,6.5,31l-7.3,38-22,159.9h9.5l22-159.9,7.3-37.9S809.3,627.7,800.2,623Z" transform="translate(0.02 -0.78)"/></g><path class="cls-25" d="M423.9,743.8s-54.8-15.9-58.7,8.5,22.4,38.3,39.2,37.9,24.1-16.4,24.1-16.4Z" transform="translate(0.02 -0.78)"/><path class="cls-25" d="M698.8,818.6s-12.3,8.8-38.3,8.8S604,833,604,833s-38.8-91.3-116.6-13.1c0,0-14,18.1,58.6,20,0,0,25.6-.9,31.2,11.8h145L742,836.9Z" transform="translate(0.02 -0.78)"/><path class="cls-22" d="M407,704.4s-3.7-8.6-8,0l-2.4,66.8,5.2,15.7,5.2-14Z" transform="translate(0.02 -0.78)"/><path class="cls-4" d="M703.7,517.3c-7.5,2.6-15.8,8.6-18.2,10.4-.5,0-2-1-5.1-9.7C680.4,518,699,510.6,703.7,517.3Z" transform="translate(0.02 -0.78)"/><path class="cls-26" d="M622.9,589.7s-6.4,3.1-7.5,15.6a46.38,46.38,0,0,1-3.7,13.7l-4.2,8.9h0L604.2,639h0l.3,22.7-8.8,14.2-.7,6.9L592.7,704l-11.6-5.6s4.8-34.2,8.4-41.2,8.4-43.6,8.4-43.6-.2-13.5,1.5-15.8-3-1.9-3.5-6.9c-.3-2.9-3.5-11.1-6.2-17.2,3.9-3.7,11.8-7.5,11.8-7.5l7.5-3.8Z" transform="translate(0.02 -0.78)"/><path class="cls-4" d="M622.9,589.7s-6.4,3.1-7.5,15.6a46.38,46.38,0,0,1-3.7,13.7l-4.2,8.9h0L604.2,639h0l.3,22.7-8.8,14.2-.7,6.9L592.7,704l-11.6-5.6s4.8-34.2,8.4-41.2,8.4-43.6,8.4-43.6-.2-13.5,1.5-15.8-3-1.9-3.5-6.9c-.3-2.9-3.5-11.1-6.2-17.2,3.9-3.7,11.8-7.5,11.8-7.5l7.5-3.8Z" transform="translate(0.02 -0.78)"/><path class="cls-4" d="M715,540.5c-9.6,7.9-35.5,30.2-38.4,45.3-3.7,18.7-14.7,16.9-14.7,16.9-13.7-29.8-23.2-37.1-28.6-38.1L684.8,530h0l.8-.5h-.1c-.4,0-1.4-.6-3.4-5.3l20.6-6.2a5.24,5.24,0,0,1,1,1.1,2.51,2.51,0,0,1,.4.7c3.9,8,5.6,14,9.5,19.2C714.1,539.5,714.5,540,715,540.5Z" transform="translate(0.02 -0.78)"/><path class="cls-26" d="M715,538.8c-9.6,7.9-35.5,30.2-38.4,45.3-3.7,18.7-14.7,16.9-14.7,16.9-13.7-29.8-23.2-37.1-28.6-38.1l51.5-34.5h0l.8-.5h-.1c-.4,0-1.4-.6-3.4-5.3l20.6-6.2a5.24,5.24,0,0,1,1,1.1,2.51,2.51,0,0,1,.4.7c3.9,8,5.6,14,9.5,19.2A18.48,18.48,0,0,1,715,538.8Z" transform="translate(0.02 -0.78)"/><path class="cls-4" d="M656.8,689.8c.6-.2,34.2-19.2,30.4-4.8S656.8,689.8,656.8,689.8Z" transform="translate(0.02 -0.78)"/><path class="cls-4" d="M511.5,708s17.7,27.5,23.9,26.6S511.5,708,511.5,708Z" transform="translate(0.02 -0.78)"/><path class="cls-4" d="M533.5,697.7s1.1,21.3,10.3,22.8S533.5,697.7,533.5,697.7Z" transform="translate(0.02 -0.78)"/><path class="cls-4" d="M631.5,766.3s21.9,36.5,17.7,49.1Z" transform="translate(0.02 -0.78)"/><path class="cls-4" d="M657,770.6s29.7,39,24.5,42.2S657,770.6,657,770.6Z" transform="translate(0.02 -0.78)"/><path class="cls-4" d="M590.2,708s-3,27.7,8.4,35.8Z" transform="translate(0.02 -0.78)"/><path class="cls-4" d="M723.3,584.6S672.5,624,680.6,665s16,44,16,44,3,16.4,8.6,23.3,4.7,11.4,4.7,11.4,5.2-2.4,6.9,9.5,10.8,20.2,10.8,20.2,3,9.5-4.7,14.7-6,10.8-6,10.8l-31.5,18.3,35,34.7H811s-2.6-4.5,3-11,2.8-32.1,2.8-32.1-3.1-4.1.7-13.2-3.3-34.9-3.3-34.9l-8-25.2s-6.7-17.9-5.6-27.5-2.2-20.1-2.2-20.1L781,633.1C781.1,633.1,781.9,578.4,723.3,584.6Z" transform="translate(0.02 -0.78)"/><path class="cls-26" d="M725.1,584.6S674.3,624,682.4,665s15.9,44,15.9,44,3,16.4,8.6,23.3,4.7,11.4,4.7,11.4,5.2-2.4,6.9,9.5,10.8,20.2,10.8,20.2,3,9.5-4.7,14.7-6,10.8-6,10.8l-31.5,18.3,35.1,34.7h90.5s-2.6-4.5,3-11,2.8-32.1,2.8-32.1-3.1-4.1.7-13.2-3.3-34.9-3.3-34.9l-8-25.2s-6.7-17.9-5.6-27.5-2.2-20.1-2.2-20.1l-17.4-54.8C782.8,633.1,783.7,578.4,725.1,584.6Z" transform="translate(0.02 -0.78)"/><path class="cls-4" d="M742.1,612.4s36.2,12.3,45.9,18.3S773.7,606.8,742.1,612.4Z" transform="translate(0.02 -0.78)"/><path class="cls-4" d="M761,798.8s51.5,6.5,48.5,16.6S761,798.8,761,798.8Z" transform="translate(0.02 -0.78)"/><path class="cls-4" d="M750.9,809.8s37.7,12.1,31,22S750.9,809.8,750.9,809.8Z" transform="translate(0.02 -0.78)"/><path class="cls-4" d="M751.6,569.1c-20.5,4-41.2,7.4-61.9,10.8l-5.4.9c-11.4,1.9-22.8,3.8-34.3,3.7-5.6,0-11.4-.6-16.4-3.2a15.67,15.67,0,0,1-3-2c-3.5-2.8-6-6.9-5.9-11.3.1-8.1,7.7-13.7,14.3-18.3,9.6-6.8,19.1-15.5,22.9-26.4a34,34,0,0,0,1.5-6.3c1.1-9.2-2.3-18.4-5.9-27-3.9-9.4-9.3-19.4-17.2-25.1a25,25,0,0,0-10.8-4.4c-12.1-1.6-23.5,7-35.7,6.5-9.9-.4-18.3-6.8-24.2-14.2-4.3-5.4-7.1-12.7-13.6-16-7.1-3.5-15.1-4.3-22.9-5.5a84.88,84.88,0,1,1,144.3,78.9c.1.4.3.9.4,1.3a51.81,51.81,0,0,0,2.6,6.5s16.5-6.6,22.3-1.8a5.24,5.24,0,0,1,1,1.1,2.51,2.51,0,0,1,.4.7c3.9,8,5.6,14,9.5,19.2a10.7,10.7,0,0,0,1.4,1.6c4.7,4.9,14,10.7,12.4,12.2-1.7,1.7,12.9,9,12.9,9S748.9,565,751.6,569.1Z" transform="translate(0.02 -0.78)"/><path class="cls-24" d="M508.7,416.1c-7.7-9.9-6.8-23.8-4-36,1.8-7.7,4.3-15.4,9.3-21.5s12.8-10.4,20.6-9.3c4.6.6,8.7,3,13,4.6,19.3,7.6,43.2,1.3,56.2-14.9,2.9-3.7,5.4-7.8,8.8-11a32,32,0,0,1,13.6-6.9c21.7-5.5,44.1,5.3,62.7,17.8,15.9,10.7,30.9,23.1,41.3,39.2a92.89,92.89,0,0,1,15,49.1c.5,27.6-11.1,55.4-4.5,82.2,6.6,26.4,32.4,46.8,59.7,47-37.4,9.2-75.5,15.5-113.5,21.7-11.4,1.9-22.8,3.8-34.3,3.7-5.6,0-11.4-.6-16.4-3.2s-9-7.7-9-13.3c.1-8.1,7.7-13.7,14.3-18.3,11.4-8.1,22.7-18.8,24.3-32.7,1.1-9.2-2.3-18.4-5.9-27-5.5-13.1-13.9-27.6-27.9-29.5-12.1-1.6-23.5,7-35.7,6.5-9.9-.4-18.3-6.8-24.2-14.2-4.3-5.4-7.1-12.7-13.6-16C542.5,426.3,521.2,432.3,508.7,416.1Z" transform="translate(0.02 -0.78)"/><path class="cls-24" d="M728.8,365.8a37.63,37.63,0,0,0,10.7-50.4,20.28,20.28,0,0,1,1.3,1.8,37.55,37.55,0,0,1-61,43.8,5.5,5.5,0,0,0-.7-.9c-.4-.6-.8-1.2-1.2-1.9A37.63,37.63,0,0,0,728.8,365.8Z" transform="translate(0.02 -0.78)"/><g class="cls-15"><path d="M609.8,335.4c2.9-3.7,5.4-7.8,8.8-11l1.8-1.5a26.36,26.36,0,0,0-7.8,4.9c-3.5,3.2-5.9,7.3-8.8,11a45.24,45.24,0,0,1-10.5,9.5A48.08,48.08,0,0,0,609.8,335.4Z" transform="translate(0.02 -0.78)"/><path d="M693,574.6c-11.4,1.9-22.8,3.8-34.3,3.7-5.6,0-11.4-.6-16.4-3.2s-9-7.7-9-13.3c.1-8.1,7.7-13.6,14.3-18.3,11.4-8.1,22.7-18.8,24.3-32.7,1.1-9.2-2.3-18.4-5.9-27-5.5-13.1-13.8-27.6-27.9-29.5-12.1-1.6-23.5,7-35.7,6.5-9.9-.4-18.3-6.8-24.2-14.2-4.3-5.4-7.1-12.7-13.6-16-16.2-8-37.4-2-50-18.2-7.7-9.9-6.8-23.9-4-36,1.8-7.7,4.3-15.4,9.3-21.5a34.06,34.06,0,0,1,4.7-4.6,27.54,27.54,0,0,0-10.8,8c-5,6.1-7.5,13.8-9.3,21.5-2.8,12.2-3.7,26.1,4,36,12.6,16.2,33.8,10.2,50,18.2,6.5,3.2,9.2,10.5,13.6,16,6,7.5,14.4,13.8,24.2,14.2,12.2.5,23.6-8.1,35.7-6.5,14.1,1.9,22.5,16.4,27.9,29.5,3.6,8.6,7,17.7,5.9,27-1.7,13.9-12.9,24.6-24.3,32.7-6.6,4.7-14.2,10.2-14.3,18.3,0,5.6,4,10.7,9,13.3s10.8,3.1,16.4,3.2c11.5.1,23-1.8,34.3-3.7,38-6.3,76.1-12.5,113.5-21.7a48.87,48.87,0,0,1-6.6-.5C760.5,563.5,726.7,569,693,574.6Z" transform="translate(0.02 -0.78)"/></g><ellipse class="cls-25" cx="410.72" cy="754.72" rx="16.4" ry="9"/><path class="cls-27" d="M681.7,89.1c-18.2-4.9-36.7-9.8-55.6-10.5s-38.5,2.9-53.9,13.8c-7.7,5.5-14.1,12.5-20.6,19.4a668.33,668.33,0,0,1-114.7,96.9c-16.8,11.2-34.8,21.9-54.8,24.7s-42.7-4.1-53-21.5l6.2-3.2" transform="translate(0.02 -0.78)"/><path class="cls-22" d="M842.8,62.8H713.6a9.18,9.18,0,0,1-9.2-9.2V35.1a9.18,9.18,0,0,1,9.2-9.2H842.8a9.18,9.18,0,0,1,9.2,9.2V53.6A9.18,9.18,0,0,1,842.8,62.8ZM829,37.5a6.9,6.9,0,1,0,6.9,6.9,6.91,6.91,0,0,0-6.9-6.9Zm-18.5,0a6.9,6.9,0,1,0,6.9,6.9h0a6.91,6.91,0,0,0-6.9-6.9ZM842.8,109H713.6a9.18,9.18,0,0,1-9.2-9.2V81.3a9.18,9.18,0,0,1,9.2-9.2H842.8a9.18,9.18,0,0,1,9.2,9.2V99.8A9.18,9.18,0,0,1,842.8,109ZM829,83.6a6.9,6.9,0,1,0,6.9,6.9h0a6.91,6.91,0,0,0-6.9-6.9Zm-18.5,0a6.9,6.9,0,1,0,6.9,6.9h0a6.91,6.91,0,0,0-6.9-6.9Zm32.3,71.5H713.6a9.18,9.18,0,0,1-9.2-9.2V127.4a9.18,9.18,0,0,1,9.2-9.2H842.8a9.18,9.18,0,0,1,9.2,9.2v18.4a9.14,9.14,0,0,1-9.2,9.3ZM829,129.8a6.9,6.9,0,1,0,6.9,6.9h0a6.91,6.91,0,0,0-6.9-6.9Zm-18.5,0a6.9,6.9,0,1,0,6.9,6.9h0a6.91,6.91,0,0,0-6.9-6.9Z" transform="translate(0.02 -0.78)"/><path class="cls-27" d="M863.7,87.5c8.3-.9,17.2-.6,24.3,3.7,7.5,4.6,11.9,13.3,13.3,22s.4,17.6-.6,26.4L895.1,187c-.8,6.6-1.5,13.5.6,19.9s8.1,11.9,14.8,11.3" transform="translate(0.02 -0.78)"/><path class="cls-27" d="M322.1,489.6c21.4.5,45.4,0,60.2-15.4,11.2-11.7,13.8-28.9,17.6-44.7,6.8-28.5,19.2-55.9,38-78.3s44.2-39.8,72.6-46.7c22.8-5.6,46.9-4.6,69.8-9.6s46.5-18.7,52.9-41.3" transform="translate(0.02 -0.78)"/><path class="cls-28" d="M680,203.9l-57.6,21a1.19,1.19,0,0,0-.7,1.5,1,1,0,0,0,.4.5l8.6,4.8a2.56,2.56,0,0,1,1,1.3l4.9,15.6c0,.7,1.2,1,1.3.4l.7-12.2a4.78,4.78,0,0,1,1.3-2.3l31.7-23a.66.66,0,0,1,.6-.1.68.68,0,0,1,.4.8.22.22,0,0,1-.2.2l-28.2,25.7a4.78,4.78,0,0,0-1.3,2.3l-3,10.2c0,.9.6,1.4,1.3.6l6-5.3a1.09,1.09,0,0,1,1.5,0h0l11.8,11.6a1.09,1.09,0,0,0,1.5,0c.1-.1.2-.3.3-.4L681,205.4a1,1,0,0,0-.6-1.4c0-.1-.2-.1-.4-.1Z" transform="translate(0.02 -0.78)"/><text class="cls-29" transform="translate(242 637.4) rotate(-18.73)">R</text><text class="cls-30" transform="translate(316.13 182.06) rotate(-3.63)">R</text><text class="cls-31" transform="translate(815.92 332.65) rotate(0.99)">R</text><text class="cls-32" transform="matrix(1, -0.02, 0.02, 1, 715.38, 59.02)">R</text><text class="cls-32" transform="matrix(1, -0.02, 0.02, 1, 715.38, 104.75)">R</text><text class="cls-32" transform="matrix(1, -0.02, 0.02, 1, 715.38, 150.59)">R</text></svg>
