<svg xmlns="http://www.w3.org/2000/svg" xmlns:xlink="http://www.w3.org/1999/xlink" viewBox="0 0 291.672 154.301">
  <defs>
    <linearGradient id="a1e5031f-3b25-40a8-b0b0-4a7d9f49e3ab" data-name="Fading Sky" x1="308.838" y1="35.109" x2="415.264" y2="35.109" gradientUnits="userSpaceOnUse">
      <stop offset="0" stop-color="#2581c4"/>
      <stop offset="1" stop-color="#2581c4" stop-opacity="0"/>
    </linearGradient>
  </defs>
  <g style="isolation: isolate">
    <g id="bad9f11e-4a9e-4cc3-a6b0-5d40a8af8d43" data-name="Layer 1">
      <g style="opacity: 0.25">
        <g>
          <path d="M331.778,110.08c2.06,8.3-.965,13-2.188,13.514-1.415.579-5.534-.965-5.534-.965-3.282-4.762.386-11.455,2.9-12.549S331.6,109.292,331.778,110.08Z" transform="translate(-132.518 -1.276)" style="fill: #f4a093"/>
          <path d="M322.756,117.094c3.021-4.448,6.81-6.789,9.022-7.014a6.762,6.762,0,0,0-3-4.579c-2.9.965-4.765,4.35-5.512,7.153C322.423,115.831,322.756,117.094,322.756,117.094Z" transform="translate(-132.518 -1.276)" style="fill: #fff"/>
          <path d="M318.586,125.46s-1.448-.1-3.668-2.091-5.566-6.275-5.534-9.138,1.594-6.6,7.175-9.46c5.406-2.767,10.715-.258,13.224.032,0,0,.6.41.128,1.632-.71,1.155-1.723,1.563-3.635,4.739-2.057,3.418-2.572,5.759-.981,10.377a4.828,4.828,0,0,0,3.957,2.135c.039.677-.322,1.006-.1,1.679l0,.014.007.02v0c.811,4.049,4.866,8.811,5.767,12.8s.669,5.084.669,5.084c.36,3.8.6,5.277.027,6.371-.1,1.7.02,3.089-.119,3.267a.636.636,0,0,1-.32.24s-1.834,1.062-4.633-6.854c-1.789-5.057-2.607-12.645-6.178-12.741s-5.792,3.764-6.371,8.108-2.413,8.591-3.668,13.9c-2.317-3.089-2.365-14.528-1.786-20.03C312.7,134.437,313.277,132.265,318.586,125.46Z" transform="translate(-132.518 -1.276)" style="fill: #77a2d0"/>
          <path d="M325.3,121.551a4.828,4.828,0,0,0,3.957,2.135,1.633,1.633,0,0,1,0,.171v0a4.351,4.351,0,0,1-4.248-2.519,12,12,0,0,1-.609-3.654A16.067,16.067,0,0,0,325.3,121.551Z" transform="translate(-132.518 -1.276)" style="fill: #b4d1ef;mix-blend-mode: multiply"/>
          <g style="mix-blend-mode: multiply">
            <path d="M324.4,117.9c-1.211-2.373-1.31-4.416-1.017-4.408C323.652,113.5,323.835,116.771,324.4,117.9Z" transform="translate(-132.518 -1.276)" style="fill: #b4d1ef"/>
            <path d="M310.38,117.563c3.244,4.507,6.358,6.706,8.418,7.179a.187.187,0,0,0,.091,0c1.674-.437,4.232-.372,4.009-.213-.933.676-2.06.676-3.765,2s-4.655,5.946-5.587,7.3c-.464.675-.923,3.468-1.268,6.1h0c.049-1.648.147-3.16.275-4.381.145-1.11.724-3.282,6.033-10.087,0,0-1.448-.1-3.668-2.091A22.772,22.772,0,0,1,310.38,117.563Z" transform="translate(-132.518 -1.276)" style="fill: #b4d1ef"/>
            <path d="M318.345,130.721c.482-.845,1.5-.29-.1,1.4s-2.413,3.185-2.992,7.77a48.929,48.929,0,0,0-.386,8.012,33.225,33.225,0,0,1,.917-12.645A28.074,28.074,0,0,1,318.345,130.721Z" transform="translate(-132.518 -1.276)" style="fill: #b4d1ef"/>
            <path d="M321.208,128.227c.017,1.965-2.67,3.99-3.675,7.594.989-1.255,1.25-2.536,2.115-3.8,1.007-1.469,2.027-2.5,1.9-3.471A.771.771,0,0,0,321.208,128.227Z" transform="translate(-132.518 -1.276)" style="fill: #b4d1ef"/>
          </g>
        </g>
      </g>
      <text transform="translate(179.601 138.652)" style="font-size: 17.05590057373047px;fill: #1d71b8;font-family: STHeitiTC-Medium, Heiti TC;font-weight: 500">Saudi Arabia</text>
      <g style="opacity: 0.25">
        <g>
          <path d="M359.483,109.228c2.059,8.3-.965,13-2.188,13.514-1.416.579-5.534-.966-5.534-.966-3.282-4.762.386-11.454,2.9-12.548S359.3,108.44,359.483,109.228Z" transform="translate(-132.518 -1.276)" style="fill: #f4a093"/>
          <path d="M350.46,116.242c3.022-4.448,6.811-6.789,9.023-7.014a6.762,6.762,0,0,0-3-4.579c-2.9.965-4.765,4.35-5.513,7.153C350.128,114.979,350.46,116.242,350.46,116.242Z" transform="translate(-132.518 -1.276)" style="fill: #fff"/>
          <path d="M346.291,124.608s-1.448-.1-3.668-2.091-5.567-6.275-5.535-9.139,1.595-6.6,7.176-9.459c5.4-2.767,10.714-.258,13.224.032,0,0,.6.41.128,1.632-.71,1.155-1.724,1.563-3.635,4.739-2.057,3.418-2.572,5.759-.981,10.377a4.827,4.827,0,0,0,3.957,2.135c.039.677-.323,1.006-.1,1.678l0,.014.007.021v0c.811,4.049,4.865,8.811,5.766,12.8s.67,5.084.67,5.084c.36,3.8.594,5.276.027,6.37-.1,1.706.019,3.089-.119,3.268a.636.636,0,0,1-.32.24s-1.834,1.061-4.634-6.854c-1.788-5.057-2.606-12.645-6.177-12.742s-5.792,3.765-6.371,8.109-2.414,8.591-3.668,13.9c-2.317-3.089-2.365-14.528-1.786-20.03C340.4,133.585,340.982,131.413,346.291,124.608Z" transform="translate(-132.518 -1.276)" style="fill: #77a2d0"/>
          <path d="M353,120.7a4.827,4.827,0,0,0,3.957,2.135,1.633,1.633,0,0,1,0,.171v0a4.347,4.347,0,0,1-4.248-2.519,12.018,12.018,0,0,1-.61-3.653A16.074,16.074,0,0,0,353,120.7Z" transform="translate(-132.518 -1.276)" style="fill: #b4d1ef;mix-blend-mode: multiply"/>
          <g style="mix-blend-mode: multiply">
            <path d="M352.1,117.045c-1.211-2.373-1.31-4.416-1.016-4.408C351.357,112.644,351.54,115.919,352.1,117.045Z" transform="translate(-132.518 -1.276)" style="fill: #b4d1ef"/>
            <path d="M338.085,116.711c3.244,4.507,6.358,6.706,8.418,7.179a.187.187,0,0,0,.091,0c1.674-.437,4.232-.373,4.008-.213-.933.676-2.059.676-3.764,2s-4.656,5.945-5.587,7.3c-.464.675-.924,3.468-1.268,6.1h0c.049-1.648.146-3.161.275-4.381.145-1.11.724-3.282,6.033-10.087,0,0-1.448-.1-3.668-2.091A22.75,22.75,0,0,1,338.085,116.711Z" transform="translate(-132.518 -1.276)" style="fill: #b4d1ef"/>
            <path d="M346.05,129.869c.482-.845,1.5-.29-.1,1.4s-2.413,3.186-2.992,7.771a48.871,48.871,0,0,0-.387,8.012,33.219,33.219,0,0,1,.918-12.645A27.987,27.987,0,0,1,346.05,129.869Z" transform="translate(-132.518 -1.276)" style="fill: #b4d1ef"/>
            <path d="M348.913,127.375c.016,1.964-2.67,3.99-3.676,7.594.989-1.255,1.251-2.536,2.116-3.8,1.007-1.469,2.027-2.5,1.9-3.471A.763.763,0,0,0,348.913,127.375Z" transform="translate(-132.518 -1.276)" style="fill: #b4d1ef"/>
          </g>
        </g>
      </g>
      <g style="opacity: 0.25">
        <g>
          <path d="M370.129,109.228c-2.059,8.3.966,13,2.188,13.514,1.416.579,5.535-.966,5.535-.966,3.282-4.762-.386-11.454-2.9-12.548S370.312,108.44,370.129,109.228Z" transform="translate(-132.518 -1.276)" style="fill: #f4a093"/>
          <path d="M379.152,116.242c-3.022-4.448-6.81-6.789-9.023-7.014a6.768,6.768,0,0,1,3-4.579c2.9.965,4.765,4.35,5.512,7.153C379.485,114.979,379.152,116.242,379.152,116.242Z" transform="translate(-132.518 -1.276)" style="fill: #fff"/>
          <path d="M383.322,124.608s1.448-.1,3.668-2.091,5.566-6.275,5.534-9.139-1.594-6.6-7.175-9.459c-5.406-2.767-10.715-.258-13.225.032,0,0-.6.41-.127,1.632.71,1.155,1.723,1.563,3.635,4.739,2.057,3.418,2.572,5.759.981,10.377a4.83,4.83,0,0,1-3.958,2.135c-.038.677.323,1.006.1,1.678l0,.014-.007.021v0c-.811,4.049-4.865,8.811-5.766,12.8s-.67,5.084-.67,5.084c-.359,3.8-.594,5.276-.026,6.37.1,1.706-.02,3.089.119,3.268a.631.631,0,0,0,.32.24s1.834,1.061,4.633-6.854c1.789-5.057,2.606-12.645,6.178-12.742s5.792,3.765,6.371,8.109,2.413,8.591,3.668,13.9c2.317-3.089,2.365-14.528,1.786-20.03C389.21,133.585,388.631,131.413,383.322,124.608Z" transform="translate(-132.518 -1.276)" style="fill: #77a2d0"/>
          <path d="M376.613,120.7a4.83,4.83,0,0,1-3.958,2.135c0,.06,0,.116,0,.171v0a4.345,4.345,0,0,0,4.247-2.519,11.957,11.957,0,0,0,.61-3.653A16.067,16.067,0,0,1,376.613,120.7Z" transform="translate(-132.518 -1.276)" style="fill: #b4d1ef;mix-blend-mode: multiply"/>
          <g style="mix-blend-mode: multiply">
            <path d="M377.512,117.045c1.211-2.373,1.31-4.416,1.017-4.408C378.256,112.644,378.072,115.919,377.512,117.045Z" transform="translate(-132.518 -1.276)" style="fill: #b4d1ef"/>
            <path d="M391.528,116.711c-3.244,4.507-6.358,6.706-8.418,7.179a.187.187,0,0,1-.091,0c-1.675-.437-4.232-.373-4.009-.213.933.676,2.059.676,3.765,2s4.655,5.945,5.587,7.3c.464.675.923,3.468,1.267,6.1h0c-.048-1.648-.146-3.161-.274-4.381-.145-1.11-.724-3.282-6.033-10.087,0,0,1.448-.1,3.668-2.091A22.772,22.772,0,0,0,391.528,116.711Z" transform="translate(-132.518 -1.276)" style="fill: #b4d1ef"/>
            <path d="M383.563,129.869c-.483-.845-1.5-.29.1,1.4s2.414,3.186,2.993,7.771a48.929,48.929,0,0,1,.386,8.012,33.225,33.225,0,0,0-.917-12.645A28.063,28.063,0,0,0,383.563,129.869Z" transform="translate(-132.518 -1.276)" style="fill: #b4d1ef"/>
            <path d="M380.7,127.375c-.016,1.964,2.671,3.99,3.676,7.594-.989-1.255-1.251-2.536-2.115-3.8-1.007-1.469-2.027-2.5-1.9-3.471A.763.763,0,0,1,380.7,127.375Z" transform="translate(-132.518 -1.276)" style="fill: #b4d1ef"/>
          </g>
        </g>
      </g>
      <g style="opacity: 0.25">
        <g>
          <path d="M420,108.443c2.06,8.3-.965,13-2.188,13.514-1.415.58-5.534-.965-5.534-.965-3.282-4.762.386-11.455,2.9-12.549S419.817,107.655,420,108.443Z" transform="translate(-132.518 -1.276)" style="fill: #f4a093"/>
          <path d="M410.977,115.458c3.022-4.449,6.81-6.789,9.022-7.015a6.764,6.764,0,0,0-3-4.579c-2.9.966-4.765,4.351-5.512,7.153C410.644,114.2,410.977,115.458,410.977,115.458Z" transform="translate(-132.518 -1.276)" style="fill: #fff"/>
          <path d="M406.807,123.824s-1.448-.1-3.668-2.092-5.566-6.274-5.534-9.138,1.594-6.6,7.175-9.46c5.406-2.767,10.715-.257,13.224.032,0,0,.6.411.128,1.633-.71,1.154-1.723,1.563-3.635,4.738-2.057,3.418-2.572,5.76-.981,10.377a4.829,4.829,0,0,0,3.957,2.136c.039.676-.322,1.005-.1,1.678l0,.014.007.021v0c.811,4.048,4.865,8.81,5.766,12.8s.669,5.084.669,5.084c.36,3.8.595,5.277.027,6.371-.1,1.706.02,3.089-.119,3.267a.625.625,0,0,1-.32.24s-1.834,1.062-4.633-6.853c-1.789-5.057-2.607-12.646-6.178-12.742s-5.792,3.765-6.371,8.108-2.413,8.591-3.668,13.9c-2.317-3.088-2.365-14.527-1.786-20.029C400.919,132.8,401.5,130.629,406.807,123.824Z" transform="translate(-132.518 -1.276)" style="fill: #77a2d0"/>
          <path d="M413.516,119.914a4.829,4.829,0,0,0,3.957,2.136,1.632,1.632,0,0,1,0,.171v0a4.351,4.351,0,0,1-4.248-2.519,11.987,11.987,0,0,1-.609-3.654A16.046,16.046,0,0,0,413.516,119.914Z" transform="translate(-132.518 -1.276)" style="fill: #b4d1ef;mix-blend-mode: multiply"/>
          <g style="mix-blend-mode: multiply">
            <path d="M412.617,116.261c-1.211-2.373-1.31-4.416-1.017-4.408C411.873,111.86,412.056,115.134,412.617,116.261Z" transform="translate(-132.518 -1.276)" style="fill: #b4d1ef"/>
            <path d="M398.6,115.927c3.244,4.506,6.358,6.706,8.418,7.178a.187.187,0,0,0,.091,0c1.674-.438,4.232-.373,4.009-.214-.933.676-2.06.676-3.765,2s-4.655,5.946-5.587,7.3c-.464.675-.923,3.469-1.268,6.1h0c.049-1.649.147-3.161.275-4.381.145-1.11.724-3.282,6.033-10.087,0,0-1.448-.1-3.668-2.092A22.766,22.766,0,0,1,398.6,115.927Z" transform="translate(-132.518 -1.276)" style="fill: #b4d1ef"/>
            <path d="M406.566,129.084c.482-.844,1.5-.289-.1,1.4s-2.413,3.185-2.992,7.771a48.918,48.918,0,0,0-.386,8.011,33.225,33.225,0,0,1,.917-12.645A28.074,28.074,0,0,1,406.566,129.084Z" transform="translate(-132.518 -1.276)" style="fill: #b4d1ef"/>
            <path d="M409.43,126.591c.016,1.964-2.671,3.99-3.676,7.593.989-1.255,1.25-2.536,2.115-3.8,1.007-1.468,2.027-2.5,1.9-3.471A.765.765,0,0,0,409.43,126.591Z" transform="translate(-132.518 -1.276)" style="fill: #b4d1ef"/>
          </g>
        </g>
      </g>
      <path d="M365.494,1.728c-29.326-3.025-54.641,9.468-56.542,27.9s20.33,35.833,49.656,38.858,54.641-9.469,56.543-27.906S394.82,4.752,365.494,1.728Zm38.764,42.737c-1.349,13.078-19.219,21.949-39.913,19.815s-36.378-14.466-35.029-27.544,19.219-21.949,39.913-19.815S405.606,31.387,404.258,44.465Z" transform="translate(-132.518 -1.276)" style="fill: url(#a1e5031f-3b25-40a8-b0b0-4a7d9f49e3ab)"/>
      <text transform="translate(207.138 77.241)" style="font-size: 72px;fill: #636;font-family: Arial-BoldMT, Arial;font-weight: 700">R</text>
      <text transform="translate(194.307 98.733)" style="opacity: 0.36;font-size: 26.907154083251953px;fill: #951b81;font-family: Phosphate-Inline, Phosphate">Ladies</text>
      <text transform="translate(204.57 148.742)" style="font-size: 11px;fill: #009fe3;font-family: STHeitiTC-Medium, Heiti TC;font-weight: 500">Dammam</text>
      <g style="opacity: 0.25">
        <g>
          <path d="M176.926,59.232c4.083,15.606-1.914,24.437-4.339,25.405-2.807,1.089-10.974-1.815-10.974-1.815-6.508-8.952.766-21.533,5.742-23.59S176.564,57.751,176.926,59.232Z" transform="translate(-132.518 -1.276)" style="fill: #f4a093"/>
          <path d="M159.035,72.419c5.992-8.363,13.5-12.763,17.891-13.187,0-1.754-1.914-6.109-5.94-8.607-5.742,1.814-9.448,8.177-10.93,13.446C158.375,70.044,159.035,72.419,159.035,72.419Z" transform="translate(-132.518 -1.276)" style="fill: #fff"/>
          <path d="M150.767,88.145s-2.872-.181-7.274-3.932-11.038-11.794-10.974-17.178,3.161-12.412,14.228-17.783c10.719-5.2,21.246-.484,26.223.061,0,0,1.2.771.253,3.068-1.408,2.171-3.417,2.938-7.208,8.908-4.079,6.425-5.1,10.827-1.945,19.507,1.244,2.178,4.689,4.014,7.847,4.014.077,1.273-.64,1.891-.195,3.155l.008.027.013.039,0,0c1.608,7.611,9.647,16.564,11.433,24.064s1.329,9.557,1.329,9.557c.713,7.137,1.178,9.92.052,11.976-.2,3.206.039,5.807-.236,6.143a1.242,1.242,0,0,1-.634.45s-3.637,2-9.188-12.883c-3.546-9.507-5.168-23.772-12.25-23.953s-11.484,7.077-12.633,15.242-4.785,16.15-7.273,26.131c-4.594-5.807-4.69-27.31-3.541-37.653C139.091,105.021,140.239,100.938,150.767,88.145Z" transform="translate(-132.518 -1.276)" style="fill: #77a2d0"/>
          <path d="M164.07,80.8c1.244,2.178,4.689,4.014,7.847,4.014a2.888,2.888,0,0,1,0,.322v.006c-3.245.194-7.185-1.577-8.423-4.735a21.517,21.517,0,0,1-1.209-6.869A28.906,28.906,0,0,0,164.07,80.8Z" transform="translate(-132.518 -1.276)" style="fill: #b4d1ef;mix-blend-mode: multiply"/>
          <g style="mix-blend-mode: multiply">
            <path d="M162.286,73.928c-2.4-4.461-2.6-8.3-2.015-8.287C160.812,65.655,161.175,71.811,162.286,73.928Z" transform="translate(-132.518 -1.276)" style="fill: #b4d1ef"/>
            <path d="M134.494,73.3c6.433,8.472,12.608,12.607,16.693,13.5a.391.391,0,0,0,.18,0c3.32-.822,8.392-.7,7.949-.4-1.85,1.27-4.083,1.27-7.465,3.75s-9.231,11.177-11.079,13.727c-.92,1.269-1.83,6.52-2.513,11.475h0c.1-3.1.29-5.942.545-8.235.287-2.087,1.435-6.17,11.963-18.963,0,0-2.872-.181-7.274-3.932A43.188,43.188,0,0,1,134.494,73.3Z" transform="translate(-132.518 -1.276)" style="fill: #b4d1ef"/>
            <path d="M150.288,98.035c.957-1.588,2.967-.545-.191,2.631s-4.786,5.988-5.934,14.607a87.3,87.3,0,0,0-.766,15.062,59.362,59.362,0,0,1,1.819-23.772C146.173,103.751,149.445,99.433,150.288,98.035Z" transform="translate(-132.518 -1.276)" style="fill: #b4d1ef"/>
            <path d="M155.967,93.347c.031,3.693-5.3,7.5-7.289,14.275,1.961-2.359,2.48-4.768,4.194-7.138,2-2.76,4.02-4.7,3.764-6.525A1.5,1.5,0,0,0,155.967,93.347Z" transform="translate(-132.518 -1.276)" style="fill: #b4d1ef"/>
          </g>
        </g>
      </g>
      <g style="opacity: 0.25">
        <g>
          <path d="M205.306,47.121c-4.083,15.606,1.914,24.437,4.339,25.4,2.807,1.089,10.974-1.815,10.974-1.815,6.508-8.952-.766-21.533-5.742-23.59S205.668,45.64,205.306,47.121Z" transform="translate(-132.518 -1.276)" style="fill: #f4a093"/>
          <path d="M223.2,60.308c-5.992-8.363-13.5-12.763-17.891-13.187,0-1.754,1.914-6.109,5.939-8.607,5.743,1.814,9.449,8.177,10.931,13.446C223.857,57.933,223.2,60.308,223.2,60.308Z" transform="translate(-132.518 -1.276)" style="fill: #fff"/>
          <path d="M231.465,76.034s2.871-.181,7.274-3.932,11.038-11.794,10.974-17.178-3.161-12.412-14.228-17.783c-10.719-5.2-21.247-.484-26.223.061,0,0-1.2.771-.253,3.068,1.408,2.171,3.417,2.938,7.207,8.908,4.079,6.425,5.1,10.827,1.946,19.507-1.244,2.178-4.689,4.014-7.847,4.014-.077,1.273.64,1.891.195,3.155l-.008.027-.014.039v0c-1.608,7.611-9.647,16.563-11.434,24.064s-1.328,9.557-1.328,9.557c-.713,7.137-1.178,9.92-.053,11.976.2,3.206-.038,5.807.237,6.143a1.242,1.242,0,0,0,.634.45s3.637,2,9.188-12.883c3.546-9.507,5.168-23.772,12.25-23.953s11.484,7.077,12.633,15.242,4.785,16.15,7.273,26.131c4.594-5.807,4.69-27.31,3.541-37.653C243.141,92.91,241.993,88.827,231.465,76.034Z" transform="translate(-132.518 -1.276)" style="fill: #77a2d0"/>
          <path d="M218.162,68.685c-1.244,2.178-4.689,4.014-7.847,4.014a3.16,3.16,0,0,0,0,.322v.006c3.244.194,7.185-1.577,8.423-4.735a21.517,21.517,0,0,0,1.209-6.869A28.906,28.906,0,0,1,218.162,68.685Z" transform="translate(-132.518 -1.276)" style="fill: #b4d1ef;mix-blend-mode: multiply"/>
          <g style="mix-blend-mode: multiply">
            <path d="M219.946,61.817c2.4-4.461,2.6-8.3,2.015-8.287C221.42,53.544,221.057,59.7,219.946,61.817Z" transform="translate(-132.518 -1.276)" style="fill: #b4d1ef"/>
            <path d="M247.737,61.189c-6.432,8.472-12.607,12.607-16.692,13.495a.391.391,0,0,1-.18,0c-3.32-.822-8.392-.7-7.949-.4,1.85,1.27,4.083,1.27,7.465,3.75s9.231,11.177,11.079,13.727c.92,1.269,1.83,6.52,2.513,11.475h0c-.1-3.1-.29-5.942-.545-8.235-.287-2.087-1.435-6.17-11.963-18.963,0,0,2.871-.181,7.274-3.932A43.165,43.165,0,0,0,247.737,61.189Z" transform="translate(-132.518 -1.276)" style="fill: #b4d1ef"/>
            <path d="M231.944,85.924c-.957-1.588-2.967-.545.191,2.631s4.785,5.988,5.934,14.607a87.3,87.3,0,0,1,.766,15.062,59.362,59.362,0,0,0-1.819-23.772C236.059,91.64,232.786,87.322,231.944,85.924Z" transform="translate(-132.518 -1.276)" style="fill: #b4d1ef"/>
            <path d="M226.265,81.236c-.032,3.693,5.3,7.5,7.289,14.275-1.961-2.359-2.48-4.768-4.194-7.138-2-2.76-4.02-4.7-3.765-6.525A1.5,1.5,0,0,1,226.265,81.236Z" transform="translate(-132.518 -1.276)" style="fill: #b4d1ef"/>
          </g>
        </g>
      </g>
    </g>
  </g>
</svg>
