<svg xmlns="http://www.w3.org/2000/svg" xmlns:xlink="http://www.w3.org/1999/xlink" viewBox="0 0 135.56 163.59">
  <defs>
    <style>
      .cls-1 {
        isolation: isolate;
      }

      .cls-2 {
        opacity: 0.25;
      }

      .cls-3 {
        fill: #f4a093;
      }

      .cls-4 {
        fill: #fff;
      }

      .cls-5 {
        fill: #77a2d0;
      }

      .cls-6, .cls-8 {
        fill: #b4d1ef;
      }

      .cls-6, .cls-7 {
        mix-blend-mode: multiply;
      }

      .cls-9 {
        font-size: 17.06px;
        fill: #1d71b8;
      }

      .cls-13, .cls-9 {
        font-family: STHeitiTC-Medium, Heiti TC;
        font-weight: 500;
      }

      .cls-10 {
        fill: url(#Fading_Sky);
      }

      .cls-11 {
        font-size: 72px;
        fill: #636;
        font-family: Arial-BoldMT, Arial;
        font-weight: 700;
      }

      .cls-12 {
        opacity: 0.36;
        font-size: 26.91px;
        fill: #951b81;
        font-family: Phosphate-Inline, Phosphate;
      }

      .cls-13 {
        font-size: 11px;
        fill: #009fe3;
      }
    </style>
    <linearGradient id="Fading_Sky" data-name="Fading Sky" x1="9.5" y1="41.33" x2="115.93" y2="41.33" gradientUnits="userSpaceOnUse">
      <stop offset="0" stop-color="#2581c4"/>
      <stop offset="1" stop-color="#2581c4" stop-opacity="0"/>
    </linearGradient>
  </defs>
  <g class="cls-1">
    <g id="Layer_1" data-name="Layer 1">
      <g class="cls-2">
        <g>
          <path class="cls-3" d="M32.44,116.3c2.06,8.3-1,13-2.18,13.52-1.42.58-5.54-1-5.54-1-3.28-4.76.39-11.45,2.9-12.55S32.26,115.52,32.44,116.3Z"/>
          <path class="cls-4" d="M23.42,123.32c3-4.45,6.81-6.79,9-7a6.73,6.73,0,0,0-3-4.58c-2.9,1-4.77,4.35-5.51,7.16C23.09,122.05,23.42,123.32,23.42,123.32Z"/>
          <path class="cls-5" d="M19.25,131.68s-1.45-.09-3.67-2.09-5.56-6.27-5.53-9.14,1.59-6.6,7.17-9.46c5.41-2.76,10.72-.25,13.23,0,0,0,.6.41.13,1.63-.71,1.15-1.73,1.56-3.64,4.74-2.06,3.42-2.57,5.76-1,10.37a4.84,4.84,0,0,0,4,2.14c0,.68-.32,1-.1,1.68h0v0h0c.81,4,4.87,8.82,5.77,12.81s.67,5.08.67,5.08c.36,3.8.59,5.28,0,6.37a32.62,32.62,0,0,1-.12,3.27.62.62,0,0,1-.32.24s-1.83,1.06-4.63-6.86c-1.79-5.05-2.61-12.64-6.18-12.74s-5.79,3.77-6.37,8.11-2.41,8.59-3.67,13.9c-2.31-3.09-2.36-14.53-1.78-20C13.36,140.66,13.94,138.49,19.25,131.68Z"/>
          <path class="cls-6" d="M26,127.77a4.84,4.84,0,0,0,4,2.14v.17h0a4.32,4.32,0,0,1-4.25-2.52,12.14,12.14,0,0,1-.61-3.65A16.32,16.32,0,0,0,26,127.77Z"/>
          <g class="cls-7">
            <path class="cls-8" d="M25.06,124.12c-1.21-2.37-1.31-4.42-1-4.41S24.5,123,25.06,124.12Z"/>
            <path class="cls-8" d="M11.05,123.79c3.24,4.5,6.35,6.7,8.41,7.18h.09c1.68-.43,4.24-.37,4-.21-.93.68-2.06.68-3.76,2s-4.66,5.94-5.59,7.3c-.46.67-.92,3.47-1.27,6.1h0c.05-1.65.15-3.16.28-4.38s.72-3.28,6-10.09c0,0-1.45-.09-3.67-2.09A22.57,22.57,0,0,1,11.05,123.79Z"/>
            <path class="cls-8" d="M19,136.94c.48-.84,1.5-.29-.1,1.4s-2.41,3.19-3,7.77a48.42,48.42,0,0,0-.38,8,33.18,33.18,0,0,1,.91-12.65A28.43,28.43,0,0,1,19,136.94Z"/>
            <path class="cls-8" d="M21.87,134.45c0,2-2.67,4-3.67,7.59,1-1.25,1.25-2.53,2.11-3.79,1-1.47,2-2.5,1.9-3.47A.8.8,0,0,0,21.87,134.45Z"/>
          </g>
        </g>
      </g>
      <text class="cls-9" transform="translate(12.79 146.15)">Saudi Arabia</text>
      <g class="cls-2">
        <g>
          <path class="cls-3" d="M60.15,115.45c2.06,8.3-1,13-2.19,13.52-1.42.57-5.53-1-5.53-1-3.29-4.76.38-11.45,2.89-12.55S60,114.66,60.15,115.45Z"/>
          <path class="cls-4" d="M51.13,122.47c3-4.45,6.81-6.79,9-7a6.79,6.79,0,0,0-3-4.58c-2.89,1-4.76,4.35-5.51,7.16C50.79,121.2,51.13,122.47,51.13,122.47Z"/>
          <path class="cls-5" d="M47,130.83s-1.45-.1-3.67-2.09-5.57-6.27-5.54-9.14,1.6-6.6,7.18-9.46c5.4-2.77,10.71-.26,13.22,0,0,0,.61.41.13,1.64-.71,1.15-1.72,1.56-3.63,4.74-2.06,3.41-2.58,5.75-1,10.37a4.81,4.81,0,0,0,3.95,2.14c0,.67-.32,1-.1,1.68h0v0h0c.81,4,4.86,8.81,5.76,12.8s.67,5.09.67,5.09c.36,3.79.6,5.27,0,6.37-.1,1.7,0,3.09-.12,3.27a.72.72,0,0,1-.32.24s-1.83,1.06-4.63-6.86c-1.79-5.06-2.61-12.64-6.18-12.74s-5.79,3.76-6.37,8.11S44,155.64,42.71,161c-2.32-3.09-2.37-14.53-1.79-20C41.07,139.81,41.65,137.64,47,130.83Z"/>
          <path class="cls-6" d="M53.67,126.92a4.81,4.81,0,0,0,3.95,2.14.49.49,0,0,1,0,.17h0a4.33,4.33,0,0,1-4.24-2.52,11.59,11.59,0,0,1-.61-3.65A15.39,15.39,0,0,0,53.67,126.92Z"/>
          <g class="cls-7">
            <path class="cls-8" d="M52.77,123.27c-1.22-2.37-1.31-4.42-1-4.41S52.21,122.14,52.77,123.27Z"/>
            <path class="cls-8" d="M38.75,122.93c3.24,4.51,6.36,6.71,8.42,7.18h.09c1.67-.44,4.23-.37,4-.21-.94.67-2.06.67-3.77,2s-4.65,6-5.58,7.31c-.47.67-.93,3.46-1.27,6.1h0c.05-1.65.14-3.16.27-4.38s.73-3.28,6-10.09c0,0-1.45-.1-3.67-2.09A22.7,22.7,0,0,1,38.75,122.93Z"/>
            <path class="cls-8" d="M46.72,136.09c.48-.84,1.49-.29-.1,1.4s-2.41,3.19-3,7.77a49.09,49.09,0,0,0-.39,8,33.09,33.09,0,0,1,.92-12.64A27.67,27.67,0,0,1,46.72,136.09Z"/>
            <path class="cls-8" d="M49.58,133.6c0,2-2.67,4-3.68,7.59,1-1.25,1.25-2.53,2.12-3.79,1-1.47,2-2.51,1.9-3.48A.73.73,0,0,0,49.58,133.6Z"/>
          </g>
        </g>
      </g>
      <g class="cls-2">
        <g>
          <path class="cls-3" d="M70.79,115.45c-2.05,8.3,1,13,2.19,13.52,1.42.57,5.54-1,5.54-1,3.28-4.76-.39-11.45-2.9-12.55S71,114.66,70.79,115.45Z"/>
          <path class="cls-4" d="M79.82,122.47c-3-4.45-6.81-6.79-9-7a6.79,6.79,0,0,1,3-4.58c2.9,1,4.77,4.35,5.51,7.16C80.15,121.2,79.82,122.47,79.82,122.47Z"/>
          <path class="cls-5" d="M84,130.83s1.45-.1,3.67-2.09,5.56-6.27,5.53-9.14S91.6,113,86,110.14c-5.4-2.77-10.71-.26-13.22,0,0,0-.6.41-.13,1.64.71,1.15,1.73,1.56,3.64,4.74,2,3.41,2.57,5.75,1,10.37a4.84,4.84,0,0,1-4,2.14c0,.67.32,1,.1,1.68h0v0h0c-.81,4-4.87,8.81-5.77,12.8s-.67,5.09-.67,5.09c-.36,3.79-.59,5.27,0,6.37.1,1.7,0,3.09.11,3.27a.72.72,0,0,0,.32.24s1.84,1.06,4.64-6.86c1.79-5.06,2.6-12.64,6.18-12.74s5.79,3.76,6.37,8.11S87,155.64,88.23,161c2.32-3.09,2.37-14.53,1.79-20C89.88,139.81,89.3,137.64,84,130.83Z"/>
          <path class="cls-6" d="M77.28,126.92a4.84,4.84,0,0,1-4,2.14v.17h0a4.35,4.35,0,0,0,4.25-2.52,12.19,12.19,0,0,0,.61-3.65A16.32,16.32,0,0,1,77.28,126.92Z"/>
          <g class="cls-7">
            <path class="cls-8" d="M78.18,123.27c1.21-2.37,1.31-4.42,1-4.41S78.74,122.14,78.18,123.27Z"/>
            <path class="cls-8" d="M92.19,122.93c-3.24,4.51-6.35,6.71-8.41,7.18h-.1c-1.67-.44-4.23-.37-4-.21.93.67,2,.67,3.76,2s4.66,6,5.59,7.31c.46.67.92,3.46,1.26,6.1h0c0-1.65-.14-3.16-.27-4.38s-.72-3.28-6-10.09c0,0,1.45-.1,3.67-2.09A22.46,22.46,0,0,0,92.19,122.93Z"/>
            <path class="cls-8" d="M84.23,136.09c-.48-.84-1.5-.29.09,1.4s2.42,3.19,3,7.77a48.31,48.31,0,0,1,.38,8,33.15,33.15,0,0,0-.91-12.64A29.23,29.23,0,0,0,84.23,136.09Z"/>
            <path class="cls-8" d="M81.36,133.6c0,2,2.68,4,3.68,7.59-1-1.25-1.25-2.53-2.11-3.79-1-1.47-2-2.51-1.9-3.48A.74.74,0,0,1,81.36,133.6Z"/>
          </g>
        </g>
      </g>
      <g class="cls-2">
        <g>
          <path class="cls-3" d="M120.66,114.67c2.06,8.3-1,13-2.18,13.51-1.42.58-5.54-1-5.54-1-3.28-4.77.39-11.46,2.9-12.55S120.48,113.88,120.66,114.67Z"/>
          <path class="cls-4" d="M111.64,121.68c3-4.45,6.81-6.79,9-7a6.71,6.71,0,0,0-3-4.58c-2.9,1-4.77,4.35-5.51,7.15C111.31,120.42,111.64,121.68,111.64,121.68Z"/>
          <path class="cls-5" d="M107.47,130.05S106,130,103.8,128s-5.56-6.28-5.53-9.14,1.59-6.61,7.18-9.46c5.4-2.77,10.71-.26,13.22,0,0,0,.6.41.13,1.63-.71,1.16-1.73,1.56-3.64,4.74-2,3.42-2.57,5.76-1,10.38a4.83,4.83,0,0,0,4,2.13c0,.68-.32,1-.1,1.68v0h0c.81,4,4.87,8.81,5.77,12.8s.67,5.08.67,5.08c.36,3.8.59,5.28,0,6.37-.1,1.71,0,3.09-.11,3.27a.65.65,0,0,1-.32.24s-1.84,1.06-4.64-6.85c-1.79-5.06-2.6-12.65-6.18-12.74s-5.79,3.76-6.37,8.1-2.41,8.59-3.66,13.9c-2.32-3.09-2.37-14.52-1.79-20C101.58,139,102.16,136.85,107.47,130.05Z"/>
          <path class="cls-6" d="M114.18,126.14a4.83,4.83,0,0,0,4,2.13v.17h0a4.36,4.36,0,0,1-4.25-2.52,12.2,12.2,0,0,1-.61-3.66A16.5,16.5,0,0,0,114.18,126.14Z"/>
          <g class="cls-7">
            <path class="cls-8" d="M113.28,122.48c-1.21-2.37-1.31-4.41-1-4.4S112.72,121.36,113.28,122.48Z"/>
            <path class="cls-8" d="M99.27,122.15c3.24,4.51,6.35,6.71,8.41,7.18h.1c1.67-.44,4.23-.38,4-.22-.93.68-2.06.68-3.76,2s-4.66,5.94-5.59,7.3c-.46.68-.92,3.47-1.27,6.11h0c0-1.65.15-3.17.28-4.39s.72-3.28,6-10.08c0,0-1.45-.1-3.67-2.09A22.81,22.81,0,0,1,99.27,122.15Z"/>
            <path class="cls-8" d="M107.23,135.31c.48-.85,1.5-.29-.1,1.4s-2.41,3.18-3,7.77a48.3,48.3,0,0,0-.38,8,33.21,33.21,0,0,1,.91-12.65A29.07,29.07,0,0,1,107.23,135.31Z"/>
            <path class="cls-8" d="M110.1,132.81c0,2-2.68,4-3.68,7.6,1-1.26,1.25-2.54,2.11-3.8,1-1.47,2-2.5,1.9-3.47A.81.81,0,0,0,110.1,132.81Z"/>
          </g>
        </g>
      </g>
      <path class="cls-10" d="M66.16,8c-29.33-3-54.64,9.47-56.54,27.91S30,71.69,59.27,74.71s54.64-9.47,56.55-27.9S95.49,11,66.16,8Zm38.76,42.74C103.57,63.77,85.7,72.64,65,70.5S28.63,56,30,43,49.2,21,69.89,23.14,106.27,37.61,104.92,50.69Z"/>
      <text class="cls-11" transform="translate(40.32 84.74)">R</text>
      <text class="cls-12" transform="translate(27.49 106.23)">Ladies</text>
      <text class="cls-13" transform="translate(37.75 156.24)">Dammam</text>
    </g>
  </g>
</svg>
