<svg xmlns="http://www.w3.org/2000/svg" xmlns:xlink="http://www.w3.org/1999/xlink" viewBox="0 0 270.69 154.3"><defs><style>.cls-1{isolation:isolate;}.cls-2{opacity:0.25;}.cls-3{fill:#f4a093;}.cls-4{fill:#fff;}.cls-5{fill:#77a2d0;}.cls-6,.cls-8{fill:#b4d1ef;}.cls-17,.cls-20,.cls-6,.cls-7{mix-blend-mode:multiply;}.cls-9{font-size:17.06px;fill:#1d71b8;}.cls-13,.cls-9{font-family:STHeitiTC-Medium, Heiti TC;font-weight:500;}.cls-10{fill:url(#Fading_Sky);}.cls-11{font-size:72px;fill:#636;font-family:Arial-BoldMT, Arial;font-weight:700;}.cls-12{opacity:0.36;font-size:26.91px;fill:#951b81;font-family:Phosphate-Inline, Phosphate;}.cls-13{font-size:11px;fill:#009fe3;}.cls-14{opacity:0.29;}.cls-15{fill:#464b53;}.cls-16{fill:#50565f;}.cls-17{fill:#c0cce2;}.cls-18{fill:#3c2f3e;}.cls-19{fill:#503f53;}.cls-20{fill:#c8d5eb;}.cls-21{fill:#5f6871;}</style><linearGradient id="Fading_Sky" x1="186.17" y1="41.33" x2="292.6" y2="41.33" gradientUnits="userSpaceOnUse"><stop offset="0" stop-color="#2581c4"/><stop offset="1" stop-color="#2581c4" stop-opacity="0"/></linearGradient></defs><g class="cls-1"><g id="Layer_1" data-name="Layer 1"><g class="cls-2"><path class="cls-3" d="M209.11,116.3c2.06,8.3-1,13-2.19,13.52-1.41.58-5.53-1-5.53-1-3.28-4.76.39-11.45,2.9-12.55S208.93,115.52,209.11,116.3Z" transform="translate(-30.83 -7.5)"/><path class="cls-4" d="M200.09,123.32c3-4.45,6.81-6.79,9-7a6.77,6.77,0,0,0-3-4.58c-2.9,1-4.77,4.35-5.52,7.16C199.76,122.05,200.09,123.32,200.09,123.32Z" transform="translate(-30.83 -7.5)"/><path class="cls-5" d="M195.92,131.68s-1.45-.09-3.67-2.09-5.56-6.27-5.53-9.14,1.59-6.6,7.17-9.46c5.41-2.76,10.72-.25,13.23,0,0,0,.6.41.12,1.63-.71,1.15-1.72,1.56-3.63,4.74-2.06,3.42-2.57,5.76-1,10.37a4.83,4.83,0,0,0,4,2.14c0,.68-.33,1-.1,1.68h0v0h0c.81,4,4.86,8.82,5.77,12.81s.67,5.08.67,5.08c.36,3.8.59,5.28,0,6.37a32.62,32.62,0,0,1-.12,3.27.62.62,0,0,1-.32.24s-1.83,1.06-4.63-6.86c-1.79-5.05-2.61-12.64-6.18-12.74s-5.79,3.77-6.37,8.11-2.41,8.59-3.67,13.9c-2.31-3.09-2.36-14.53-1.78-20C190,140.66,190.61,138.49,195.92,131.68Z" transform="translate(-30.83 -7.5)"/><path class="cls-6" d="M202.63,127.77a4.83,4.83,0,0,0,4,2.14v.17h0a4.32,4.32,0,0,1-4.25-2.52,12.14,12.14,0,0,1-.61-3.65A15.84,15.84,0,0,0,202.63,127.77Z" transform="translate(-30.83 -7.5)"/><g class="cls-7"><path class="cls-8" d="M201.73,124.12c-1.21-2.37-1.31-4.42-1-4.41S201.17,123,201.73,124.12Z" transform="translate(-30.83 -7.5)"/><path class="cls-8" d="M187.71,123.79c3.25,4.5,6.36,6.7,8.42,7.18h.09c1.68-.43,4.24-.37,4-.21-.93.68-2.06.68-3.76,2s-4.66,5.94-5.59,7.3c-.46.67-.92,3.47-1.27,6.1h0c0-1.65.15-3.16.28-4.38s.72-3.28,6-10.09c0,0-1.45-.09-3.67-2.09A22.81,22.81,0,0,1,187.71,123.79Z" transform="translate(-30.83 -7.5)"/><path class="cls-8" d="M195.68,136.94c.48-.84,1.5-.29-.1,1.4s-2.41,3.19-3,7.77a49.21,49.21,0,0,0-.39,8,33.33,33.33,0,0,1,.92-12.65A27.67,27.67,0,0,1,195.68,136.94Z" transform="translate(-30.83 -7.5)"/><path class="cls-8" d="M198.54,134.45c0,2-2.67,4-3.67,7.59,1-1.25,1.25-2.53,2.11-3.79,1-1.47,2-2.5,1.9-3.47A.8.8,0,0,0,198.54,134.45Z" transform="translate(-30.83 -7.5)"/></g></g><text class="cls-9" transform="translate(158.62 138.65)">Saudi Arabia</text><g class="cls-2"><path class="cls-3" d="M236.82,115.45c2.06,8.3-1,13-2.19,13.52-1.42.57-5.54-1-5.54-1-3.28-4.76.39-11.45,2.9-12.55S236.63,114.66,236.82,115.45Z" transform="translate(-30.83 -7.5)"/><path class="cls-4" d="M227.79,122.47c3-4.45,6.82-6.79,9-7a6.79,6.79,0,0,0-3-4.58c-2.89,1-4.76,4.35-5.51,7.16C227.46,121.2,227.79,122.47,227.79,122.47Z" transform="translate(-30.83 -7.5)"/><path class="cls-5" d="M223.62,130.83s-1.44-.1-3.66-2.09-5.57-6.27-5.54-9.14,1.6-6.6,7.18-9.46c5.4-2.77,10.71-.26,13.22,0,0,0,.61.41.13,1.64-.71,1.15-1.72,1.56-3.63,4.74-2.06,3.41-2.58,5.75-1,10.37a4.84,4.84,0,0,0,4,2.14c0,.67-.32,1-.1,1.68h0v0h0c.82,4,4.87,8.81,5.77,12.8s.67,5.09.67,5.09c.36,3.79.59,5.27,0,6.37-.1,1.7,0,3.09-.12,3.27a.72.72,0,0,1-.32.24s-1.84,1.06-4.64-6.86c-1.78-5.06-2.6-12.64-6.17-12.74s-5.8,3.76-6.37,8.11-2.42,8.59-3.67,13.9c-2.32-3.09-2.37-14.53-1.79-20C217.74,139.81,218.32,137.64,223.62,130.83Z" transform="translate(-30.83 -7.5)"/><path class="cls-6" d="M230.33,126.92a4.84,4.84,0,0,0,4,2.14v.17h0a4.35,4.35,0,0,1-4.25-2.52,12.19,12.19,0,0,1-.61-3.65A16.32,16.32,0,0,0,230.33,126.92Z" transform="translate(-30.83 -7.5)"/><g class="cls-7"><path class="cls-8" d="M229.43,123.27c-1.21-2.37-1.31-4.42-1-4.41S228.87,122.14,229.43,123.27Z" transform="translate(-30.83 -7.5)"/><path class="cls-8" d="M215.42,122.93c3.24,4.51,6.36,6.71,8.42,7.18h.09c1.67-.44,4.23-.37,4-.21-.94.67-2.06.67-3.77,2s-4.65,6-5.59,7.31c-.46.67-.92,3.46-1.26,6.1h0c.05-1.65.14-3.16.27-4.38s.73-3.28,6-10.09c0,0-1.44-.1-3.66-2.09A22.48,22.48,0,0,1,215.42,122.93Z" transform="translate(-30.83 -7.5)"/><path class="cls-8" d="M223.38,136.09c.49-.84,1.5-.29-.09,1.4s-2.42,3.19-3,7.77a49.68,49.68,0,0,0-.38,8,33.09,33.09,0,0,1,.92-12.64A28.48,28.48,0,0,1,223.38,136.09Z" transform="translate(-30.83 -7.5)"/><path class="cls-8" d="M226.25,133.6c0,2-2.67,4-3.68,7.59,1-1.25,1.25-2.53,2.12-3.79,1-1.47,2-2.51,1.9-3.48A.78.78,0,0,0,226.25,133.6Z" transform="translate(-30.83 -7.5)"/></g></g><g class="cls-2"><path class="cls-3" d="M247.46,115.45c-2.06,8.3,1,13,2.19,13.52,1.42.57,5.54-1,5.54-1,3.28-4.76-.39-11.45-2.9-12.55S247.65,114.66,247.46,115.45Z" transform="translate(-30.83 -7.5)"/><path class="cls-4" d="M256.49,122.47c-3-4.45-6.81-6.79-9-7a6.79,6.79,0,0,1,3-4.58c2.89,1,4.76,4.35,5.51,7.16C256.82,121.2,256.49,122.47,256.49,122.47Z" transform="translate(-30.83 -7.5)"/><path class="cls-5" d="M260.66,130.83s1.44-.1,3.66-2.09,5.57-6.27,5.54-9.14-1.6-6.6-7.18-9.46c-5.4-2.77-10.71-.26-13.22,0,0,0-.6.41-.13,1.64.71,1.15,1.72,1.56,3.64,4.74,2.05,3.41,2.57,5.75,1,10.37a4.84,4.84,0,0,1-4,2.14c0,.67.32,1,.1,1.68h0v0h0c-.81,4-4.87,8.81-5.77,12.8s-.67,5.09-.67,5.09c-.36,3.79-.59,5.27,0,6.37.11,1.7,0,3.09.12,3.27a.72.72,0,0,0,.32.24s1.84,1.06,4.64-6.86c1.78-5.06,2.6-12.64,6.17-12.74s5.8,3.76,6.37,8.11,2.42,8.59,3.67,13.9c2.32-3.09,2.37-14.53,1.79-20C266.54,139.81,266,137.64,260.66,130.83Z" transform="translate(-30.83 -7.5)"/><path class="cls-6" d="M254,126.92a4.84,4.84,0,0,1-4,2.14v.17h0a4.35,4.35,0,0,0,4.25-2.52,12.19,12.19,0,0,0,.61-3.65A16.32,16.32,0,0,1,254,126.92Z" transform="translate(-30.83 -7.5)"/><g class="cls-7"><path class="cls-8" d="M254.85,123.27c1.21-2.37,1.31-4.42,1-4.41S255.41,122.14,254.85,123.27Z" transform="translate(-30.83 -7.5)"/><path class="cls-8" d="M268.86,122.93c-3.24,4.51-6.36,6.71-8.42,7.18h-.09c-1.67-.44-4.23-.37-4-.21.94.67,2.06.67,3.77,2s4.65,6,5.59,7.31c.46.67.92,3.46,1.26,6.1h0c0-1.65-.14-3.16-.27-4.38s-.73-3.28-6-10.09c0,0,1.44-.1,3.66-2.09A22.48,22.48,0,0,0,268.86,122.93Z" transform="translate(-30.83 -7.5)"/><path class="cls-8" d="M260.9,136.09c-.49-.84-1.5-.29.09,1.4s2.42,3.19,3,7.77a48.31,48.31,0,0,1,.38,8,33.36,33.36,0,0,0-.91-12.64A29.23,29.23,0,0,0,260.9,136.09Z" transform="translate(-30.83 -7.5)"/><path class="cls-8" d="M258,133.6c0,2,2.67,4,3.68,7.59-1-1.25-1.25-2.53-2.12-3.79-1-1.47-2-2.51-1.89-3.48A.74.74,0,0,1,258,133.6Z" transform="translate(-30.83 -7.5)"/></g></g><g class="cls-2"><path class="cls-3" d="M297.33,114.67c2.06,8.3-1,13-2.18,13.51-1.42.58-5.54-1-5.54-1-3.28-4.77.39-11.46,2.9-12.55S297.15,113.88,297.33,114.67Z" transform="translate(-30.83 -7.5)"/><path class="cls-4" d="M288.31,121.68c3-4.45,6.81-6.79,9-7a6.71,6.71,0,0,0-3-4.58c-2.9,1-4.77,4.35-5.51,7.15C288,120.42,288.31,121.68,288.31,121.68Z" transform="translate(-30.83 -7.5)"/><path class="cls-5" d="M284.14,130.05s-1.45-.1-3.67-2.09-5.56-6.28-5.53-9.14,1.59-6.61,7.17-9.46c5.41-2.77,10.72-.26,13.23,0,0,0,.6.41.13,1.63-.71,1.16-1.73,1.56-3.64,4.74-2.06,3.42-2.57,5.76-1,10.38a4.82,4.82,0,0,0,4,2.13c0,.68-.33,1-.1,1.68v0h0c.81,4,4.87,8.81,5.77,12.8s.67,5.08.67,5.08c.36,3.8.59,5.28,0,6.37a32.62,32.62,0,0,1-.12,3.27.57.57,0,0,1-.32.24s-1.83,1.06-4.63-6.85c-1.79-5.06-2.61-12.65-6.18-12.74s-5.79,3.76-6.37,8.1-2.41,8.59-3.67,13.9c-2.31-3.09-2.36-14.52-1.78-20C278.25,139,278.83,136.85,284.14,130.05Z" transform="translate(-30.83 -7.5)"/><path class="cls-6" d="M290.85,126.14a4.82,4.82,0,0,0,4,2.13v.17h0a4.35,4.35,0,0,1-4.25-2.52,12.2,12.2,0,0,1-.61-3.66A16.5,16.5,0,0,0,290.85,126.14Z" transform="translate(-30.83 -7.5)"/><g class="cls-7"><path class="cls-8" d="M290,122.48c-1.21-2.37-1.31-4.41-1-4.4S289.39,121.36,290,122.48Z" transform="translate(-30.83 -7.5)"/><path class="cls-8" d="M275.94,122.15c3.24,4.51,6.35,6.71,8.41,7.18h.09c1.68-.44,4.24-.38,4-.22-.93.68-2.06.68-3.76,2s-4.66,5.94-5.59,7.3c-.46.68-.92,3.47-1.27,6.11h0c.05-1.65.15-3.17.28-4.39s.72-3.28,6-10.08c0,0-1.45-.1-3.67-2.09A22.81,22.81,0,0,1,275.94,122.15Z" transform="translate(-30.83 -7.5)"/><path class="cls-8" d="M283.9,135.31c.48-.85,1.5-.29-.1,1.4s-2.41,3.18-3,7.77a49.08,49.08,0,0,0-.39,8,33.36,33.36,0,0,1,.92-12.65A27.53,27.53,0,0,1,283.9,135.31Z" transform="translate(-30.83 -7.5)"/><path class="cls-8" d="M286.76,132.81c0,2-2.67,4-3.67,7.6,1-1.26,1.25-2.54,2.11-3.8,1-1.47,2-2.5,1.9-3.47A.8.8,0,0,0,286.76,132.81Z" transform="translate(-30.83 -7.5)"/></g></g><path class="cls-10" d="M242.83,8c-29.33-3-54.64,9.47-56.54,27.91s20.33,35.83,49.65,38.85,54.64-9.47,56.54-27.9S272.15,11,242.83,8Zm38.76,42.74c-1.35,13.08-19.22,22-39.91,19.81S205.3,56,206.65,43,225.87,21,246.56,23.14,282.94,37.61,281.59,50.69Z" transform="translate(-30.83 -7.5)"/><text class="cls-11" transform="translate(186.16 77.24)">R</text><text class="cls-12" transform="translate(173.33 98.73)">Ladies</text><text class="cls-13" transform="translate(183.59 148.74)">Dammam</text><g class="cls-2"><path class="cls-3" d="M71.1,75.55c3.7,14.92-1.74,23.37-3.94,24.3-2.54,1-9.95-1.74-9.95-1.74-5.9-8.56.69-20.59,5.21-22.56S70.77,74.13,71.1,75.55Z" transform="translate(-30.83 -7.5)"/><path class="cls-4" d="M54.87,88.16c5.44-8,12.25-12.21,16.23-12.61,0-1.68-1.74-5.84-5.39-8.23-5.21,1.73-8.57,7.82-9.91,12.86C54.27,85.89,54.87,88.16,54.87,88.16Z" transform="translate(-30.83 -7.5)"/><path class="cls-5" d="M47.38,103.2s-2.61-.17-6.6-3.76-10-11.28-10-16.43,2.87-11.87,12.9-17c9.72-5,19.27-.46,23.78.06,0,0,1.08.74.23,2.94-1.28,2.07-3.1,2.81-6.54,8.52-3.7,6.14-4.62,10.35-1.76,18.65,1.13,2.09,4.25,3.84,7.11,3.84.07,1.22-.58,1.81-.17,3v0l0,0h0c1.46,7.28,8.74,15.84,10.36,23S78,135.25,78,135.25c.65,6.83,1.07,9.49,0,11.46-.19,3.06,0,5.55-.22,5.87a1.09,1.09,0,0,1-.57.43s-3.3,1.91-8.33-12.32c-3.22-9.09-4.69-22.74-11.11-22.91s-10.41,6.77-11.46,14.58-4.33,15.45-6.59,25c-4.17-5.55-4.25-26.12-3.21-36C36.79,119.34,37.83,115.44,47.38,103.2Z" transform="translate(-30.83 -7.5)"/><path class="cls-6" d="M59.44,96.17c1.13,2.09,4.25,3.84,7.11,3.84a1.6,1.6,0,0,1,0,.31h0c-2.94.18-6.51-1.51-7.63-4.53a21.7,21.7,0,0,1-1.1-6.57A29,29,0,0,0,59.44,96.17Z" transform="translate(-30.83 -7.5)"/><g class="cls-7"><path class="cls-8" d="M57.82,89.6c-2.18-4.26-2.35-7.94-1.83-7.92S56.81,87.58,57.82,89.6Z" transform="translate(-30.83 -7.5)"/><path class="cls-8" d="M32.62,89c5.83,8.11,11.43,12.06,15.14,12.91a.43.43,0,0,0,.16,0c3-.79,7.61-.67,7.21-.39-1.68,1.22-3.7,1.22-6.77,3.59s-8.37,10.69-10,13.13c-.83,1.21-1.66,6.24-2.28,11h0c.09-3,.27-5.69.5-7.88.26-2,1.3-5.9,10.85-18.14,0,0-2.61-.17-6.6-3.76A40.79,40.79,0,0,1,32.62,89Z" transform="translate(-30.83 -7.5)"/><path class="cls-8" d="M46.94,112.66c.87-1.52,2.69-.52-.17,2.52s-4.34,5.73-5.38,14a88.52,88.52,0,0,0-.7,14.4,59.84,59.84,0,0,1,1.65-22.73C43.21,118.13,46.18,114,46.94,112.66Z" transform="translate(-30.83 -7.5)"/><path class="cls-8" d="M52.09,108.18c0,3.53-4.8,7.17-6.61,13.65,1.78-2.26,2.25-4.56,3.8-6.83,1.82-2.64,3.65-4.49,3.42-6.24A1.34,1.34,0,0,0,52.09,108.18Z" transform="translate(-30.83 -7.5)"/></g></g><g class="cls-14"><path class="cls-15" d="M91.92,82.28c.94,15-6.62,18.77-4,28.6C98,97,105.31,92,104.7,92.34c-2.5-2.65-3.65-7.33-3.65-7.33C99.45,84.7,91.92,82.28,91.92,82.28Z" transform="translate(-30.83 -7.5)"/><path class="cls-16" d="M95,104.89c-1.91,2.53-6.82,2.25-6.95.8,0-.83,2.81-4.4,2.81-4.4,2.12.69,6.87-.64,6.87-.64C97.53,102.69,95,104.89,95,104.89Z" transform="translate(-30.83 -7.5)"/><path class="cls-17" d="M97.31,100.65s-4.34,1.33-6.46.64l-.2.26a1.33,1.33,0,0,0,0,.35c.37,1.82,3.28,1.53,5.36-.08C96,101.73,97.3,100.74,97.31,100.65Z" transform="translate(-30.83 -7.5)"/><path class="cls-15" d="M95,59.21c-1.12,1.27-3.71,5.87-3.2,14.9,8.51-7.55,7.5-16,7.5-16Z" transform="translate(-30.83 -7.5)"/><path class="cls-18" d="M97.42,63.42c.18-1.46,4.87-3.59,6-3.14,3.46,4.42,3.85,12.7,3.37,17C104.77,76.39,97.42,63.42,97.42,63.42Z" transform="translate(-30.83 -7.5)"/><path class="cls-19" d="M93.7,67.8a1.7,1.7,0,0,0-.84-1.15C93,65,95.1,60.54,97.42,59.19a7,7,0,0,1,6.91,2.33,24.25,24.25,0,0,0-6.91,1.9C95.34,64.35,93.7,67.8,93.7,67.8Z" transform="translate(-30.83 -7.5)"/><path class="cls-18" d="M91.93,80.76c-.17,2.76.51,5.3,1.32,6.14,1.61,1.25,5.9,1.75,5.9,1.75-.16,2.27-3.06,5.73-3.06,5.73,3.81,2,10.53-3,12-7.53s-1.76-11.65-1.76-11.65C95.83,75.55,91.93,80.76,91.93,80.76Z" transform="translate(-30.83 -7.5)"/><path class="cls-16" d="M100.22,98.33c-5,5.4-9.26,5.51-9.56,3.32-.17-1.7,3.85-7.14,4.9-7.24-.42-1.24,2.08-3.28,2.9-3.61,1.84,1.55,9.17-5.87,15-2.94A42.53,42.53,0,0,1,100.22,98.33Z" transform="translate(-30.83 -7.5)"/><path class="cls-20" d="M99.24,94.29a11.65,11.65,0,0,0,2.09-.79C100.53,93.84,99.84,94.1,99.24,94.29Z" transform="translate(-30.83 -7.5)"/><path class="cls-20" d="M95.56,94.41a.81.81,0,0,0-.31.13c.17.11,1.2.63,4-.25C97.8,94.7,96.22,94.89,95.56,94.41Z" transform="translate(-30.83 -7.5)"/><path class="cls-3" d="M92.86,66.65c-2.39,6.38-1.25,17.22.32,18.53,1.45,1.57,10.46,1.13,13.63-8a19.3,19.3,0,0,0-9.39-13.81A10.58,10.58,0,0,0,92.86,66.65Z" transform="translate(-30.83 -7.5)"/><path class="cls-17" d="M99.62,59.61c5.35,2,6.59,9.5,6.41,17.13a32,32,0,0,1-3.2,12.87A9.63,9.63,0,0,1,100,94.05c-.42,1.37-3.3,7.14-4,7.77a79.35,79.35,0,0,0-5.36,15.51c18.1-16.9,26.33-36.71,22.43-45.85s-5.22-12.31-8.76-12.93S99.62,59.61,99.62,59.61Z" transform="translate(-30.83 -7.5)"/><path class="cls-16" d="M102.2,91.75c6-11.82,4.64-21.12,2.92-26.62C102.91,58,95,59.21,95,59.21c2.22-2.17,7.52-3.67,11.51-3.05,7.62,1.42,11.6,3.54,15.41,10.89s4.16,20.63,1,24.7c-3.1,2.92-7.17,1.77-8.41,2.3-6.64,8.33-8.85,17.18-8.14,21.7s1,7.26,1,7.26c-4.16,3.36-5.4,8.68-5.49,14.7s-2.39,6.5-4.78,9-5.18,6.11-3.85,10.62c-4.12-1.19-1.6-9.29-2.79-17.53S89.06,120.57,92,112.47,99.56,97,102.2,91.75Z" transform="translate(-30.83 -7.5)"/><path class="cls-20" d="M113.63,58.23a29,29,0,0,0-7.09-2.07A29.64,29.64,0,0,1,108.73,81a46.11,46.11,0,0,1-7.06,11.75c-1.25,2.39-2.84,5.19-4.46,8.26v0c-1.07,2-2.16,4.2-3.17,6.45a73.21,73.21,0,0,1,12-16.06c5.41-5.33,7.83-10,11-31C117.08,60.45,113.74,58.85,113.63,58.23Z" transform="translate(-30.83 -7.5)"/><path class="cls-20" d="M99.66,118.85c.73-3.85,2.23-9.7,2.54-11.16-6.33,12.19-4,28.52-4.28,38.21,2.06-1.88,3.85-2.9,3.93-8.19,0-1.13.07-2.23.18-3.29A25.22,25.22,0,0,1,99.66,118.85Z" transform="translate(-30.83 -7.5)"/><path class="cls-21" d="M106.54,56.16c5.47,8.57,8.13,22.78-5.32,37.46-4.48,5.77-8.36,16.62-8.36,16.62,6.9-16,15.17-18.16,19.28-29.84a94.72,94.72,0,0,0,4.94-20C116.09,58.12,107.35,55.49,106.54,56.16Z" transform="translate(-30.83 -7.5)"/><path class="cls-20" d="M119.62,88.74a12.56,12.56,0,0,0,1.66-4.25,14.62,14.62,0,0,1-.71,1.91,19.67,19.67,0,0,1-2.43,4.06,22.37,22.37,0,0,1-3.09,3.14q-.27.21-.54.45c2.17-1.41,5.07-1.37,4.8-1.9s-1.59-.2-3.14.69a2.11,2.11,0,0,0,.23-.19A15.36,15.36,0,0,0,119.62,88.74Z" transform="translate(-30.83 -7.5)"/></g></g></g></svg>