<svg xmlns="http://www.w3.org/2000/svg" xmlns:xlink="http://www.w3.org/1999/xlink" viewBox="0 0 204.42 273.44"><defs><style>.cls-1{isolation:isolate;}.cls-2{opacity:0.25;}.cls-3{fill:#f4a093;}.cls-4{fill:#fff;}.cls-5{fill:#77a2d0;}.cls-6,.cls-8{fill:#b4d1ef;}.cls-6,.cls-7{mix-blend-mode:multiply;}.cls-9{font-size:30.23px;fill:#1d71b8;}.cls-13,.cls-9{font-family:STHeitiTC-Medium, Heiti TC;font-weight:500;}.cls-10{fill:url(#linear-gradient);}.cls-11{font-size:127.59px;fill:#636;font-family:Arial-BoldMT, Arial;font-weight:700;}.cls-12{opacity:0.36;font-size:47.68px;fill:#951b81;font-family:Phosphate-Inline, Phosphate;}.cls-13{font-size:19.49px;fill:#00b5ec;}</style><linearGradient id="linear-gradient" x1="5.14" y1="61.23" x2="193.74" y2="61.23" gradientUnits="userSpaceOnUse"><stop offset="0" stop-color="#00add5"/><stop offset="1" stop-color="#2581c4" stop-opacity="0"/></linearGradient></defs><g class="cls-1"><g id="Layer_1" data-name="Layer 1"><g class="cls-2"><path class="cls-3" d="M45.8,194.09c3.65,14.71-1.71,23-3.88,23.95-2.51,1-9.81-1.71-9.81-1.71-5.81-8.44.69-20.3,5.13-22.24S45.47,192.69,45.8,194.09Z" transform="translate(-5.14 -1.28)"/><path class="cls-4" d="M29.81,206.52c5.35-7.88,12.07-12,16-12.43,0-1.65-1.71-5.76-5.31-8.12-5.13,1.72-8.44,7.71-9.77,12.68C29.22,204.28,29.81,206.52,29.81,206.52Z" transform="translate(-5.14 -1.28)"/><path class="cls-5" d="M22.42,221.34s-2.57-.17-6.5-3.7-9.87-11.12-9.81-16.2,2.83-11.7,12.72-16.76c9.58-4.9,19-.46,23.43.06,0,0,1.07.72.23,2.89-1.26,2.05-3.06,2.77-6.44,8.4-3.65,6.05-4.56,10.2-1.74,18.39,1.11,2.05,4.19,3.78,7,3.78.07,1.2-.57,1.78-.17,3v0l0,0h0c1.43,7.18,8.62,15.61,10.22,22.68s1.18,9,1.18,9c.64,6.73,1.06,9.36,0,11.29-.18,3,0,5.48-.21,5.79a1.19,1.19,0,0,1-.57.43s-3.25,1.88-8.21-12.15c-3.17-9-4.62-22.41-11-22.58s-10.26,6.68-11.29,14.37-4.27,15.23-6.5,24.64c-4.1-5.48-4.19-25.75-3.16-35.5C12,237.25,13,233.4,22.42,221.34Z" transform="translate(-5.14 -1.28)"/><path class="cls-6" d="M34.31,214.42c1.11,2.05,4.19,3.78,7,3.78a1.5,1.5,0,0,1,0,.3h0c-2.9.18-6.42-1.49-7.53-4.46a21.41,21.41,0,0,1-1.08-6.48A28.59,28.59,0,0,0,34.31,214.42Z" transform="translate(-5.14 -1.28)"/><g class="cls-7"><path class="cls-8" d="M32.71,207.94c-2.14-4.2-2.32-7.82-1.8-7.81S31.72,206,32.71,207.94Z" transform="translate(-5.14 -1.28)"/><path class="cls-8" d="M7.88,207.35c5.75,8,11.26,11.88,14.91,12.72a.49.49,0,0,0,.17,0c3-.78,7.5-.66,7.1-.38-1.65,1.2-3.65,1.2-6.67,3.54s-8.25,10.53-9.9,12.94c-.83,1.19-1.64,6.14-2.25,10.81h0c.09-2.92.26-5.6.49-7.76.25-2,1.28-5.82,10.69-17.88,0,0-2.57-.17-6.5-3.7A40.14,40.14,0,0,1,7.88,207.35Z" transform="translate(-5.14 -1.28)"/><path class="cls-8" d="M22,230.67c.86-1.5,2.65-.52-.17,2.48s-4.28,5.64-5.3,13.77a86.65,86.65,0,0,0-.69,14.2,58.73,58.73,0,0,1,1.63-22.41C18.31,236.06,21.24,232,22,230.67Z" transform="translate(-5.14 -1.28)"/><path class="cls-8" d="M27.07,226.25c0,3.48-4.74,7.07-6.52,13.46,1.75-2.23,2.22-4.5,3.75-6.73,1.79-2.61,3.59-4.44,3.36-6.15A1.31,1.31,0,0,0,27.07,226.25Z" transform="translate(-5.14 -1.28)"/></g></g><text class="cls-9" transform="translate(5.82 245.71)">Saudi Arabia</text><g class="cls-2"><path class="cls-3" d="M94.89,192.58c3.65,14.71-1.71,23-3.87,23.95-2.51,1-9.81-1.71-9.81-1.71-5.82-8.44.68-20.3,5.13-22.24S94.57,191.18,94.89,192.58Z" transform="translate(-5.14 -1.28)"/><path class="cls-4" d="M78.9,205c5.36-7.88,12.07-12,16-12.43,0-1.65-1.71-5.76-5.3-8.12-5.14,1.72-8.45,7.71-9.77,12.68C78.31,202.77,78.9,205,78.9,205Z" transform="translate(-5.14 -1.28)"/><path class="cls-5" d="M71.52,219.83s-2.57-.17-6.51-3.7-9.86-11.12-9.8-16.2,2.82-11.7,12.71-16.76c9.58-4.9,19-.46,23.44.06,0,0,1.07.72.22,2.89-1.25,2-3,2.77-6.44,8.4-3.64,6-4.56,10.2-1.74,18.39,1.12,2.05,4.19,3.78,7,3.78.07,1.2-.58,1.78-.18,3v.06h0c1.44,7.18,8.62,15.61,10.22,22.68s1.19,9,1.19,9c.64,6.73,1,9.35,0,11.29-.18,3,0,5.48-.22,5.79a1.12,1.12,0,0,1-.56.43s-3.25,1.88-8.21-12.15c-3.17-9-4.62-22.41-11-22.58s-10.26,6.67-11.29,14.37S66.21,263.8,64,273.21c-4.11-5.48-4.19-25.75-3.17-35.5C61.08,235.74,62.11,231.89,71.52,219.83Z" transform="translate(-5.14 -1.28)"/><path class="cls-6" d="M83.4,212.91c1.12,2.05,4.19,3.78,7,3.78v.3h0c-2.9.18-6.42-1.49-7.53-4.46a21.41,21.41,0,0,1-1.08-6.48A29,29,0,0,0,83.4,212.91Z" transform="translate(-5.14 -1.28)"/><g class="cls-7"><path class="cls-8" d="M81.81,206.43c-2.15-4.2-2.32-7.82-1.8-7.81S80.82,204.44,81.81,206.43Z" transform="translate(-5.14 -1.28)"/><path class="cls-8" d="M57,205.84c5.75,8,11.27,11.88,14.92,12.72h.16c3-.78,7.5-.66,7.11-.38-1.66,1.2-3.65,1.2-6.68,3.54s-8.25,10.53-9.9,12.94c-.82,1.19-1.63,6.14-2.24,10.81h0c.08-2.92.26-5.6.48-7.76.26-2,1.29-5.82,10.7-17.88,0,0-2.57-.17-6.51-3.7A40.36,40.36,0,0,1,57,205.84Z" transform="translate(-5.14 -1.28)"/><path class="cls-8" d="M71.09,229.16c.85-1.5,2.65-.52-.17,2.48s-4.28,5.64-5.31,13.77a87.23,87.23,0,0,0-.68,14.2,59,59,0,0,1,1.62-22.41C67.41,234.55,70.33,230.48,71.09,229.16Z" transform="translate(-5.14 -1.28)"/><path class="cls-8" d="M76.16,224.74c0,3.48-4.73,7.07-6.51,13.46,1.75-2.23,2.21-4.5,3.75-6.73,1.78-2.61,3.59-4.44,3.36-6.15A1.3,1.3,0,0,0,76.16,224.74Z" transform="translate(-5.14 -1.28)"/></g></g><g class="cls-2"><path class="cls-3" d="M113.76,192.58c-3.65,14.71,1.71,23,3.88,23.95,2.51,1,9.8-1.71,9.8-1.71,5.82-8.44-.68-20.3-5.13-22.24S114.08,191.18,113.76,192.58Z" transform="translate(-5.14 -1.28)"/><path class="cls-4" d="M129.75,205c-5.36-7.88-12.07-12-16-12.43,0-1.65,1.71-5.76,5.31-8.12,5.13,1.72,8.44,7.71,9.77,12.68C130.34,202.77,129.75,205,129.75,205Z" transform="translate(-5.14 -1.28)"/><path class="cls-5" d="M137.14,219.83s2.56-.17,6.5-3.7,9.86-11.12,9.81-16.2-2.83-11.7-12.72-16.76c-9.58-4.9-19-.46-23.44.06,0,0-1.06.72-.22,2.89,1.26,2,3.05,2.77,6.44,8.4,3.65,6,4.56,10.2,1.74,18.39-1.11,2.05-4.19,3.78-7,3.78-.07,1.2.57,1.78.17,3v.06h0c-1.44,7.18-8.62,15.61-10.22,22.68s-1.19,9-1.19,9c-.63,6.73-1,9.35,0,11.29.18,3,0,5.48.21,5.79a1.1,1.1,0,0,0,.57.43s3.25,1.88,8.21-12.15c3.17-9,4.62-22.41,10.94-22.58s10.27,6.67,11.29,14.37,4.28,15.23,6.5,24.64c4.11-5.48,4.2-25.75,3.17-35.5C147.57,235.74,146.55,231.89,137.14,219.83Z" transform="translate(-5.14 -1.28)"/><path class="cls-6" d="M125.25,212.91c-1.11,2.05-4.19,3.78-7,3.78,0,.11,0,.21,0,.3h0c2.89.18,6.42-1.49,7.52-4.46a21.1,21.1,0,0,0,1.08-6.48A28,28,0,0,1,125.25,212.91Z" transform="translate(-5.14 -1.28)"/><g class="cls-7"><path class="cls-8" d="M126.84,206.43c2.15-4.2,2.32-7.82,1.8-7.81S127.84,204.44,126.84,206.43Z" transform="translate(-5.14 -1.28)"/><path class="cls-8" d="M151.68,205.84c-5.75,8-11.27,11.88-14.92,12.72h-.16c-3-.78-7.5-.66-7.1-.38,1.65,1.2,3.65,1.2,6.67,3.54s8.25,10.53,9.9,12.94c.82,1.19,1.64,6.14,2.25,10.81h0c-.09-2.92-.26-5.6-.49-7.76-.26-2-1.28-5.82-10.69-17.88,0,0,2.56-.17,6.5-3.7A40.36,40.36,0,0,0,151.68,205.84Z" transform="translate(-5.14 -1.28)"/><path class="cls-8" d="M137.57,229.16c-.86-1.5-2.66-.52.17,2.48s4.27,5.64,5.3,13.77a85.87,85.87,0,0,1,.68,14.2,59,59,0,0,0-1.62-22.41C141.24,234.55,138.32,230.48,137.57,229.16Z" transform="translate(-5.14 -1.28)"/><path class="cls-8" d="M132.49,224.74c0,3.48,4.73,7.07,6.51,13.46-1.75-2.23-2.21-4.5-3.74-6.73-1.79-2.61-3.6-4.44-3.37-6.15A1.35,1.35,0,0,1,132.49,224.74Z" transform="translate(-5.14 -1.28)"/></g></g><g class="cls-2"><path class="cls-3" d="M202.14,191.19c3.64,14.71-1.72,23-3.88,23.95-2.51,1-9.81-1.71-9.81-1.71-5.82-8.44.68-20.3,5.13-22.24S201.81,189.79,202.14,191.19Z" transform="translate(-5.14 -1.28)"/><path class="cls-4" d="M186.15,203.62c5.35-7.88,12.07-12,16-12.43,0-1.65-1.72-5.76-5.31-8.12-5.13,1.72-8.45,7.71-9.77,12.68C185.56,201.38,186.15,203.62,186.15,203.62Z" transform="translate(-5.14 -1.28)"/><path class="cls-5" d="M178.76,218.44s-2.57-.17-6.5-3.7-9.87-11.12-9.81-16.2,2.82-11.7,12.71-16.76c9.58-4.9,19-.46,23.44.06,0,0,1.07.72.23,2.89-1.26,2.05-3.06,2.77-6.45,8.4-3.64,6.05-4.55,10.2-1.73,18.39,1.11,2,4.19,3.78,7,3.78.07,1.2-.57,1.78-.18,3v.06h0c1.44,7.17,8.63,15.61,10.22,22.68s1.19,9,1.19,9c.64,6.73,1.05,9.35.05,11.29-.18,3,0,5.48-.21,5.79a1.19,1.19,0,0,1-.57.43s-3.25,1.88-8.21-12.15c-3.17-9-4.62-22.41-10.95-22.58s-10.26,6.67-11.29,14.37-4.28,15.23-6.5,24.64c-4.11-5.48-4.19-25.75-3.16-35.5C168.32,234.35,169.35,230.5,178.76,218.44Z" transform="translate(-5.14 -1.28)"/><path class="cls-6" d="M190.65,211.52c1.11,2,4.19,3.78,7,3.78a3,3,0,0,1,0,.3h0c-2.9.18-6.42-1.49-7.53-4.46a21.41,21.41,0,0,1-1.08-6.48A28.59,28.59,0,0,0,190.65,211.52Z" transform="translate(-5.14 -1.28)"/><g class="cls-7"><path class="cls-8" d="M189.05,205c-2.14-4.2-2.32-7.82-1.8-7.81S188.06,203.05,189.05,205Z" transform="translate(-5.14 -1.28)"/><path class="cls-8" d="M164.21,204.45c5.75,8,11.27,11.88,14.92,12.72a.43.43,0,0,0,.16,0c3-.78,7.5-.66,7.11-.38-1.66,1.2-3.65,1.2-6.67,3.54s-8.25,10.53-9.9,12.94c-.83,1.19-1.64,6.14-2.25,10.81h0c.09-2.92.26-5.6.49-7.76.25-2,1.28-5.82,10.69-17.88,0,0-2.57-.17-6.5-3.7A40.38,40.38,0,0,1,164.21,204.45Z" transform="translate(-5.14 -1.28)"/><path class="cls-8" d="M178.33,227.77c.85-1.5,2.65-.52-.17,2.48s-4.28,5.64-5.3,13.77a86.65,86.65,0,0,0-.69,14.2,58.73,58.73,0,0,1,1.63-22.41C174.65,233.16,177.58,229.09,178.33,227.77Z" transform="translate(-5.14 -1.28)"/><path class="cls-8" d="M183.4,223.35c0,3.48-4.73,7.07-6.51,13.45,1.75-2.22,2.22-4.49,3.75-6.72,1.78-2.61,3.59-4.44,3.36-6.16A1.3,1.3,0,0,0,183.4,223.35Z" transform="translate(-5.14 -1.28)"/></g></g><path class="cls-10" d="M105.55,2.08C53.58-3.28,8.72,18.86,5.35,51.53s36,63.5,88,68.86,96.83-16.78,100.2-49.45S157.51,7.44,105.55,2.08Zm68.69,75.73c-2.39,23.18-34.06,38.9-70.73,35.12S39,87.29,41.43,64.12,75.49,25.22,112.16,29,176.63,54.64,174.24,77.81Z" transform="translate(-5.14 -1.28)"/><text class="cls-11" transform="translate(54.61 136.88)">R</text><text class="cls-12" transform="translate(31.88 174.97)">Ladies</text><text class="cls-13" transform="translate(50.06 263.59)">Dammam</text></g></g></svg>